<svg xmlns="http://www.w3.org/2000/svg" viewBox="0 0 256 256" focusable="false" color="var(--token-89d9e315-f04a-40f9-a4a1-41ee7a97f847, rgb(255, 120, 31))" style="user-select: none; width: 100%; height: 100%; display: inline-block; fill: var(--token-89d9e315-f04a-40f9-a4a1-41ee7a97f847, rgb(255, 120, 31)); color: var(--token-89d9e315-f04a-40f9-a4a1-41ee7a97f847, rgb(255, 120, 31)); flex-shrink: 0;">
  <g color="var(--token-89d9e315-f04a-40f9-a4a1-41ee7a97f847, rgb(255, 120, 31))" weight="duotone">
    <path d="M216,120v96H152V152H104v64H40V120a8,8,0,0,1,2.34-5.66l80-80a8,8,0,0,1,11.32,0l80,80A8,8,0,0,1,216,120Z" opacity="0.2"></path>
    <path d="M219.31,108.68l-80-80a16,16,0,0,0-22.62,0l-80,80A15.87,15.87,0,0,0,32,120v96a8,8,0,0,0,8,8h64a8,8,0,0,0,8-8V160h32v56a8,8,0,0,0,8,8h64a8,8,0,0,0,8-8V120A15.87,15.87,0,0,0,219.31,108.68ZM208,208H160V152a8,8,0,0,0-8-8H104a8,8,0,0,0-8,8v56H48V120l80-80,80,80Z"></path>
  </g>
</svg>