<svg width="110" height="105" viewBox="0 0 110 105" fill="none" xmlns="http://www.w3.org/2000/svg">
<path d="M77.8571 0.0703125H32.1429C27.0934 0.0703125 23 4.16371 23 9.21317V54.9275C23 59.9769 27.0934 64.0703 32.1429 64.0703H77.8571C82.9066 64.0703 87 59.9769 87 54.9275V9.21317C87 4.16371 82.9066 0.0703125 77.8571 0.0703125Z" fill="#1E4DFF"/>
<path opacity="0.8" d="M54.8814 40.5412L37.8071 27.4304V10.3561L54.8814 23.4669V40.5412Z" fill="white"/>
<path opacity="0.45" d="M73.1045 53.7846L59.2759 42.7309V25.6566L73.1045 36.7103V53.7846Z" fill="white"/>
<path opacity="0.65" d="M54.8804 40.5412L71.9547 27.4304V10.3561L54.8804 23.4669V40.5412Z" fill="white"/>
<path opacity="0.6" d="M37.8071 53.6337L54.8814 40.5274V23.4531L37.8071 36.564V53.6337Z" fill="white"/>
<path opacity="0.4" d="M59.9946 36.6097L66.9843 31.2429L60.1272 25.7526L59.9946 36.6097Z" fill="white"/>
<path opacity="0.2" d="M54.8804 33.6383L71.9547 20.5275V18.5846L54.8804 31.6909V33.6383Z" fill="white"/>
<path d="M54.8822 40.5411L43.7554 31.9971L54.8822 23.4668V40.5411Z" fill="white"/>
<path opacity="0.4" d="M37.8071 46.7857L54.8814 33.6748V31.6908L37.8071 44.8017V46.7857Z" fill="white"/>
<path d="M4.89714 101.027L3.72133 103.934H0.23584L6.735 88.9675H10.2175L16.6103 103.934H12.999L11.8232 101.027H4.89714ZM8.38113 92.4965L6.00854 98.3111H10.7327L8.38113 92.4965Z" fill="#FAFAFA"/>
<path d="M28.9505 103.934H25.6792V102.244C24.8659 103.42 23.6257 104.063 22.044 104.063C18.7727 104.063 16.6143 101.689 16.6143 98.1403C16.6143 94.6339 18.7517 92.2987 21.9586 92.2987C23.5837 92.2987 24.8449 92.9398 25.6792 94.1156V88.0703H28.9505V103.934ZM24.9692 98.2257C24.9692 96.3444 23.7934 95.0398 22.1039 95.0398C20.4143 95.0398 19.2175 96.3654 19.1965 98.2257C19.2175 100.107 20.3724 101.412 22.1039 101.412C23.7934 101.412 24.9692 100.107 24.9692 98.2257Z" fill="#FAFAFA"/>
<path d="M40.6247 93.5644L39.4909 95.8112C38.2282 95.1042 36.946 94.7028 35.9814 94.7028C35.2115 94.7028 34.6558 94.9589 34.6558 95.558C34.6558 97.2896 40.7266 96.4133 40.7056 100.475C40.7056 102.827 38.6326 104.07 36.0233 104.07C34.163 104.07 32.3461 103.515 31.0415 102.466L32.111 100.243C33.3092 101.161 34.8475 101.675 36.1087 101.675C36.943 101.675 37.5631 101.397 37.5631 100.777C37.5631 98.9387 31.5972 99.9228 31.5972 95.8816C31.5972 93.5075 33.6283 92.2867 36.1297 92.2867C37.7174 92.2886 39.2734 92.7309 40.6247 93.5644Z" fill="#FAFAFA"/>
<path d="M49.323 88.9675C53.129 88.9675 55.3144 90.8488 55.3144 94.1636C55.3144 97.649 53.1335 99.6577 49.323 99.6577H46.3513V103.934H42.9736V88.9675H49.323ZM46.3513 96.8357H49.1522C51.0335 96.8357 52.103 95.9804 52.103 94.2699C52.103 92.6028 51.0335 91.7685 49.1522 91.7685H46.3513V96.8357Z" fill="#FAFAFA"/>
<path d="M68.7577 98.1823C68.7577 101.689 66.2772 104.063 62.6 104.063C58.9228 104.063 56.4214 101.689 56.4214 98.1823C56.4214 94.6758 58.8973 92.3242 62.6 92.3242C66.3027 92.3242 68.7577 94.6549 68.7577 98.1823ZM59.7346 98.2257C59.7346 100.107 60.8895 101.389 62.6 101.389C64.3105 101.389 65.4654 100.107 65.4654 98.2257C65.4654 96.3444 64.2896 95.0608 62.6 95.0608C60.9104 95.0608 59.7346 96.3504 59.7346 98.2257Z" fill="#FAFAFA"/>
<path d="M81.3503 103.934L78.8699 96.3504L76.4119 103.94H73.1271L68.9077 92.456L72.2644 92.4351L74.8302 100.673L77.3091 92.4425H80.5385L83.0609 100.681L85.5832 92.45H88.8336L84.6396 103.952L81.3503 103.934Z" fill="#FAFAFA"/>
<path d="M100.486 99.1875H92.2332C92.6181 100.642 93.731 101.497 95.2049 101.497C95.7464 101.497 96.2824 101.389 96.7818 101.18C97.2812 100.97 97.734 100.664 98.1137 100.278L99.8452 102.032C98.6904 103.314 96.9993 104.063 94.9278 104.063C91.2506 104.063 88.9199 101.711 88.9199 98.2213C88.9199 94.6714 91.3359 92.3198 94.8424 92.3198C98.8911 92.3243 100.765 95.0025 100.486 99.1875ZM97.4082 97.2492C97.3648 95.7319 96.3807 94.7478 94.8619 94.7478C93.4075 94.7478 92.4249 95.7319 92.1658 97.2492H97.4082Z" fill="#FAFAFA"/>
<path d="M105.958 94.5051C106.749 93.0941 108.055 92.3242 109.764 92.3032V95.4038C107.411 95.1896 105.958 96.4523 105.958 98.3995V103.941H102.663V92.432H105.958V94.5051Z" fill="#FAFAFA"/>
</svg>
