<svg width="86" height="91" viewBox="0 0 86 91" fill="none" xmlns="http://www.w3.org/2000/svg">
<path d="M85.582 48.0703H0.417969C0.417969 33.4319 9.17399 20.7213 22.1548 14.1002L15.6059 2.04714C15.2365 1.39855 15.4167 0.569788 16.0653 0.20045C16.705 -0.0788057 17.5427 0.101359 17.9119 0.758961L24.5331 12.9111C30.1632 10.4158 36.4239 9.03754 43.0451 9.03754C49.6661 9.03754 55.9268 10.4158 61.557 12.9021L68.1781 0.749953C68.5474 0.101359 69.3852 -0.0788057 70.0247 0.191442C70.6734 0.56078 70.8535 1.38954 70.4841 2.03814L63.9352 14.0912C76.835 20.7213 85.582 33.4319 85.582 48.0703ZM27.1995 29.1079C27.1995 27.1711 25.641 25.5137 23.6233 25.5137C21.6774 25.5137 20.1191 27.1711 20.1191 29.1079C20.1191 31.0356 21.6774 32.6932 23.6233 32.6932C25.641 32.7022 27.1995 31.0448 27.1995 29.1079ZM65.9711 29.1079C65.9711 27.1711 64.4126 25.5137 62.4667 25.5137C60.44 25.5137 58.8905 27.1711 58.8905 29.1079C58.8905 31.0356 60.449 32.6932 62.4667 32.6932C64.4126 32.7022 65.9711 31.0448 65.9711 29.1079Z" fill="#32DE84"/>
<path d="M13.6118 89.7514C13.3991 89.1286 13.1789 88.5134 12.9511 87.9058C12.7232 87.2982 12.5029 86.6754 12.2903 86.0374H5.63715C5.42443 86.6754 5.20422 87.3058 4.97636 87.9286C4.76364 88.5362 4.55101 89.1437 4.33838 89.7514H1.35352C1.946 88.0653 2.50795 86.5083 3.03961 85.0805C3.57128 83.6526 4.08773 82.3007 4.58903 81.0248C5.10548 79.7488 5.61435 78.5336 6.11557 77.3792C6.61687 76.2247 7.13332 75.0855 7.66499 73.9615H10.3763C10.908 75.0855 11.4244 76.2247 11.9257 77.3792C12.427 78.5336 12.9283 79.7488 13.4296 81.0248C13.946 82.3007 14.47 83.6526 15.0017 85.0805C15.5485 86.5083 16.1181 88.0653 16.7106 89.7514H13.6118ZM8.96367 77.0146C8.61435 77.8197 8.21179 78.7995 7.75608 79.9539C7.31559 81.1083 6.8523 82.3615 6.36622 83.7133H11.5612C11.0751 82.3615 10.6042 81.1008 10.1485 79.9311C9.69283 78.7614 9.29784 77.7893 8.96367 77.0146ZM18.5696 78.2222C19.1013 78.0703 19.7924 77.9261 20.643 77.7893C21.4937 77.6526 22.4355 77.5842 23.4684 77.5842C24.4405 77.5842 25.2532 77.721 25.9064 77.9943C26.5595 78.2526 27.076 78.6248 27.4557 79.1108C27.8506 79.5817 28.1241 80.159 28.276 80.8424C28.4431 81.5109 28.5266 82.2475 28.5266 83.0526V89.7514H25.7696V83.4856C25.7696 82.8476 25.7241 82.3083 25.633 81.8678C25.557 81.4121 25.4203 81.0475 25.2228 80.7741C25.0406 80.4856 24.7823 80.2805 24.4482 80.159C24.1291 80.0222 23.7342 79.9539 23.2634 79.9539C22.914 79.9539 22.5494 79.9767 22.1697 80.0222C21.7899 80.0678 21.5089 80.1058 21.3266 80.1362V89.7514H18.5696V78.2222ZM34.0624 83.7589C34.0624 84.9742 34.3509 85.9311 34.9279 86.6298C35.5058 87.3134 36.3032 87.6551 37.3209 87.6551C37.7608 87.6551 38.1334 87.64 38.4371 87.6095C38.7559 87.564 39.0141 87.5185 39.2117 87.4729V80.6374C38.9687 80.4703 38.6423 80.3184 38.2318 80.1818C37.8374 80.0298 37.4118 79.9539 36.9559 79.9539C35.9533 79.9539 35.2173 80.2956 34.7463 80.9792C34.2904 81.6627 34.0624 82.5894 34.0624 83.7589ZM41.9689 89.3868C41.4222 89.5539 40.7308 89.7058 39.8956 89.8425C39.0755 89.9792 38.2091 90.0476 37.2982 90.0476C36.3562 90.0476 35.5134 89.9033 34.769 89.6147C34.0246 89.326 33.3862 88.9159 32.8546 88.3843C32.3382 87.8374 31.9361 87.1843 31.6476 86.4248C31.3742 85.6501 31.2371 84.7842 31.2371 83.8273C31.2371 82.8855 31.3507 82.0349 31.5786 81.2754C31.8217 80.5007 32.1716 79.8399 32.6267 79.2931C33.0825 78.7463 33.6368 78.3285 34.2904 78.0399C34.9431 77.7361 35.695 77.5842 36.5462 77.5842C37.1232 77.5842 37.6321 77.6526 38.0729 77.7893C38.5128 77.9261 38.893 78.078 39.2117 78.245V72.526L41.9689 72.0703V89.3868ZM52.2608 80.3184C52.0328 80.2425 51.7141 80.1665 51.3036 80.0906C50.9091 79.9995 50.4457 79.9539 49.9141 79.9539C49.6104 79.9539 49.2832 79.9843 48.9342 80.045C48.6003 80.1058 48.3647 80.159 48.2276 80.2045V89.7514H45.4713V78.4045C46.0029 78.2071 46.6632 78.0248 47.453 77.8577C48.2579 77.6754 49.147 77.5842 50.1193 77.5842C50.301 77.5842 50.5138 77.5994 50.7569 77.6298C51 77.645 51.243 77.6754 51.4861 77.721C51.7292 77.7514 51.9647 77.7969 52.1927 77.8577C52.4206 77.9033 52.6023 77.9488 52.7394 77.9943L52.2608 80.3184ZM65.4377 83.7817C65.4377 84.7235 65.3014 85.5817 65.0272 86.3565C64.7539 87.1311 64.3669 87.7919 63.8656 88.3387C63.3643 88.8855 62.7571 89.3109 62.0429 89.6147C61.344 89.9185 60.5693 90.0703 59.719 90.0703C58.8677 90.0703 58.0931 89.9185 57.395 89.6147C56.696 89.3109 56.0963 88.8855 55.595 88.3387C55.0937 87.7919 54.6983 87.1311 54.4098 86.3565C54.1365 85.5817 53.9994 84.7235 53.9994 83.7817C53.9994 82.8399 54.1365 81.9893 54.4098 81.2299C54.6983 80.4551 55.0937 79.7944 55.595 79.2475C56.1114 78.7007 56.7187 78.283 57.4177 77.9943C58.1158 77.6905 58.8829 77.5387 59.719 77.5387C60.5542 77.5387 61.3213 77.6905 62.0202 77.9943C62.7343 78.283 63.3416 78.7007 63.8429 79.2475C64.3442 79.7944 64.7311 80.4551 65.0045 81.2299C65.293 81.9893 65.4377 82.8399 65.4377 83.7817ZM62.6124 83.7817C62.6124 82.5969 62.3542 81.6627 61.8377 80.9792C61.3364 80.2805 60.6299 79.9311 59.719 79.9311C58.8072 79.9311 58.0931 80.2805 57.5766 80.9792C57.0753 81.6627 56.8247 82.5969 56.8247 83.7817C56.8247 84.9817 57.0753 85.9311 57.5766 86.6298C58.0931 87.3285 58.8072 87.6779 59.719 87.6779C60.6299 87.6779 61.3364 87.3285 61.8377 86.6298C62.3542 85.9311 62.6124 84.9817 62.6124 83.7817ZM71.058 89.7514H68.3008V77.8349H71.058V89.7514ZM71.3541 74.3488C71.3541 74.8652 71.1867 75.2754 70.8528 75.5792C70.5189 75.883 70.1235 76.0349 69.6677 76.0349C69.1966 76.0349 68.7946 75.883 68.4607 75.5792C68.1259 75.2754 67.9593 74.8652 67.9593 74.3488C67.9593 73.8172 68.1259 73.3994 68.4607 73.0956C68.7946 72.7918 69.1966 72.6399 69.6677 72.6399C70.1235 72.6399 70.5189 72.7918 70.8528 73.0956C71.1867 73.3994 71.3541 73.8172 71.3541 74.3488ZM76.7397 83.7589C76.7397 84.9742 77.0282 85.9311 77.6052 86.6298C78.1823 87.3134 78.9805 87.6551 79.9974 87.6551C80.4381 87.6551 80.8107 87.64 81.1144 87.6095C81.4332 87.564 81.6914 87.5185 81.889 87.4729V80.6374C81.646 80.4703 81.3196 80.3184 80.9091 80.1818C80.5147 80.0298 80.0891 79.9539 79.6332 79.9539C78.6306 79.9539 77.8938 80.2956 77.4227 80.9792C76.9677 81.6627 76.7397 82.5894 76.7397 83.7589ZM84.6462 89.3868C84.0987 89.5539 83.4081 89.7058 82.5729 89.8425C81.7519 89.9792 80.8864 90.0476 79.9747 90.0476C79.0335 90.0476 78.1898 89.9033 77.4463 89.6147C76.7019 89.326 76.0635 88.9159 75.5319 88.3843C75.0155 87.8374 74.6126 87.1843 74.3241 86.4248C74.0507 85.6501 73.9144 84.7842 73.9144 83.8273C73.9144 82.8855 74.028 82.0349 74.2559 81.2754C74.499 80.5007 74.8481 79.8399 75.304 79.2931C75.7598 78.7463 76.3141 78.3285 76.9677 78.0399C77.6204 77.7361 78.3723 77.5842 79.2227 77.5842C79.8006 77.5842 80.3094 77.6526 80.7493 77.7893C81.1901 77.9261 81.5703 78.078 81.889 78.245V72.526L84.6462 72.0703V89.3868Z" fill="#FAFAFA"/>
</svg>
