<svg width="72" height="107" viewBox="0 0 72 107" fill="none" xmlns="http://www.w3.org/2000/svg">
<path d="M63.2863 20.7745L61.3128 15.4146L62.6852 12.3377C62.7714 12.1435 62.797 11.9279 62.7586 11.719C62.7202 11.5101 62.6196 11.3177 62.4699 11.167L58.7382 7.39483C57.937 6.58196 56.9216 6.01337 55.8098 5.7553C54.6981 5.49722 53.5359 5.56027 52.4586 5.93712L51.4136 6.30042L45.7128 0.124134L36.0425 0.0703125H35.9796L26.2465 0.146562L20.5501 6.37219L19.5365 6.01336C18.4522 5.63206 17.2817 5.56795 16.1623 5.82853C15.0429 6.08912 14.021 6.66359 13.2166 7.48454L9.41757 11.3285C9.29834 11.4486 9.21826 11.602 9.18784 11.7685C9.15742 11.935 9.17809 12.1069 9.24713 12.2614L10.6779 15.4549L8.71338 20.8104L9.98272 25.6411L15.7733 47.655C16.4404 50.1909 17.9751 52.4128 20.1106 53.9345C20.1106 53.9345 27.139 58.8907 34.0734 63.3941C34.6218 63.8319 35.3026 64.0703 36.0044 64.0703C36.706 64.0703 37.3869 63.8319 37.9352 63.3941C45.7262 58.2898 51.8891 53.9165 51.8891 53.9165C54.0229 52.3942 55.556 50.1724 56.2218 47.6372L61.981 25.6143L63.2863 20.7745Z" fill="url(#paint0_linear_9008_117270)"/>
<path d="M37.595 39.7436C37.2257 39.5783 36.845 39.4405 36.4557 39.3309H35.7694C35.3801 39.4405 34.9993 39.5783 34.6301 39.7436L32.9033 40.4612C32.3561 40.69 31.477 41.0982 30.9522 41.3583L27.7766 43.0135C27.6616 43.0508 27.5604 43.1216 27.486 43.2169C27.4116 43.3123 27.3676 43.4276 27.3593 43.5484C27.3511 43.669 27.3792 43.7893 27.44 43.8937C27.5008 43.9983 27.5914 44.0821 27.7004 44.1348L30.4588 46.0814C30.9432 46.4223 31.7057 47.0232 32.1543 47.4269L32.9303 48.0952C33.3788 48.4809 34.1099 49.1224 34.5539 49.5172L35.2895 50.1674C35.5167 50.3568 35.8033 50.4606 36.099 50.4606C36.3949 50.4606 36.6814 50.3568 36.9087 50.1674L37.6802 49.4947L39.3038 48.0773L40.0844 47.3956C40.5328 47.0053 41.2908 46.4044 41.7753 46.05L44.5337 44.0765C44.6429 44.024 44.7336 43.9399 44.7941 43.8351C44.8546 43.7303 44.8821 43.6096 44.8729 43.4888C44.8636 43.3682 44.8182 43.253 44.7425 43.1586C44.6668 43.0642 44.5643 42.9948 44.4485 42.9596L41.2774 41.3494C40.7481 41.0803 39.869 40.6766 39.3172 40.4523L37.595 39.7436Z" fill="white"/>
<path d="M57.1523 21.9714L57.2421 21.6843C57.2473 21.3003 57.2233 20.9165 57.1702 20.5361C56.9032 19.8567 56.5602 19.2097 56.1476 18.6074L54.3535 15.9745C54.0216 15.4812 53.4565 14.7007 53.0752 14.2387L50.6711 11.2291C50.4517 10.9357 50.2136 10.6571 49.9578 10.3948H49.9085C49.9085 10.3948 49.4242 10.48 48.8411 10.5922L45.1675 11.3008L43.5573 11.6103C43.0227 11.6354 42.4884 11.5578 41.983 11.3816L39.081 10.4441C38.5159 10.2602 37.5828 9.9956 37.0043 9.87001C36.3945 9.80521 35.7796 9.80521 35.1699 9.87001C34.5912 10.0046 33.6583 10.2647 33.0931 10.4486L30.1911 11.3905C29.6858 11.5668 29.1513 11.6444 28.6167 11.6193L27.0065 11.3143L23.3285 10.6101C22.7455 10.498 22.2655 10.4083 22.2611 10.4127H22.2117C21.9561 10.675 21.7178 10.9537 21.4986 11.247L19.0989 14.2567C18.7311 14.7052 18.1525 15.5036 17.8206 15.9925L16.0265 18.6254C15.7166 19.0793 15.4335 19.5511 15.1787 20.0382C15.025 20.5814 14.9436 21.1424 14.9365 21.7067L15.0262 21.9938C15.0694 22.1782 15.1249 22.3596 15.1922 22.5365C15.5645 22.9851 16.2014 23.7297 16.6096 24.1647L22.8891 30.8389C23.0975 31.0822 23.2369 31.377 23.293 31.6925C23.3489 32.008 23.3194 32.3328 23.2075 32.633L22.1803 35.0685C21.9468 35.7138 21.9294 36.4175 22.131 37.0735L22.3373 37.6387C22.6744 38.5565 23.2522 39.3667 24.0104 39.9845L24.9972 40.7873C25.2534 40.9722 25.5525 41.089 25.8664 41.1267C26.1802 41.1643 26.4984 41.1216 26.7912 41.0026L30.2987 39.3296C30.9426 39.0073 31.5451 38.6082 32.0928 38.141L34.9006 35.6068C35.0125 35.5058 35.103 35.3835 35.1667 35.2468C35.2304 35.1103 35.2659 34.9624 35.2714 34.8118C35.2768 34.6612 35.2519 34.5111 35.1983 34.3702C35.1446 34.2294 35.0632 34.1008 34.959 33.9921L28.6212 29.722C28.3813 29.5518 28.2104 29.3011 28.1395 29.0154C28.0688 28.7298 28.1028 28.4283 28.2355 28.1657L30.6934 23.5457C30.8332 23.2629 30.9158 22.9554 30.9367 22.6406C30.9574 22.3257 30.916 22.0099 30.8146 21.7113C30.5093 21.1414 30.0165 20.6945 29.4196 20.4464L21.7138 17.5354C21.1577 17.3246 21.1891 17.0869 21.7766 17.0509L26.3023 16.6025C27.012 16.5574 27.7244 16.6209 28.4149 16.7908L32.3531 17.8898C32.6326 17.974 32.8721 18.1568 33.0272 18.4044C33.1822 18.6518 33.2423 18.947 33.1963 19.2353L31.6488 27.6857C31.5454 28.1538 31.5195 28.6356 31.5726 29.1121C31.6354 29.3139 32.1647 29.5605 32.7432 29.704L35.1429 30.2155C35.8397 30.3435 36.5541 30.3435 37.251 30.2155L39.4084 29.7266C39.987 29.5964 40.5118 29.3229 40.5791 29.1209C40.6307 28.6443 40.6034 28.1625 40.4984 27.6947L38.9419 19.2443C38.8959 18.956 38.956 18.6607 39.111 18.4132C39.2661 18.1658 39.5057 17.983 39.7851 17.8987L43.7234 16.7954C44.4138 16.6253 45.1262 16.5618 45.8359 16.6069L50.3615 17.0286C50.9536 17.0824 50.9805 17.3022 50.4288 17.513L42.7276 20.4329C42.1307 20.6811 41.6378 21.128 41.3326 21.6979C41.1283 22.3011 41.172 22.9611 41.4538 23.5323L43.9162 28.1521C44.0488 28.4149 44.0828 28.7163 44.0121 29.002C43.9414 29.2875 43.7703 29.5383 43.5304 29.7086L37.1971 33.9876C37.0928 34.0964 37.0115 34.225 36.9579 34.3657C36.9043 34.5065 36.8794 34.6567 36.8848 34.8073C36.8902 34.9578 36.9258 35.1058 36.9895 35.2424C37.0532 35.3789 37.1437 35.5013 37.2554 35.6023L40.0678 38.1365C40.6158 38.6021 41.2183 38.9997 41.8619 39.3206L45.3694 40.9891C45.6626 41.1075 45.9811 41.1495 46.2948 41.1111C46.6087 41.0725 46.9076 40.955 47.1636 40.7693L48.1504 39.962C48.9092 39.3432 49.4872 38.5314 49.8233 37.6117L50.0297 37.0466C50.2312 36.3907 50.2138 35.6868 49.9804 35.0417L48.9487 32.6061C48.8367 32.3059 48.8072 31.9811 48.8632 31.6656C48.9191 31.35 49.0587 31.0554 49.2671 30.812L55.5466 24.1288C55.9547 23.6804 56.5871 22.9627 56.9594 22.5006C57.0354 22.3286 57.0998 22.1519 57.1523 21.9714Z" fill="white"/>
<mask id="mask0_9008_117270" style="mask-type:luminance" maskUnits="userSpaceOnUse" x="0" y="88" width="72" height="19">
<path d="M72 88.0703H0V106.07H72V88.0703Z" fill="white"/>
</mask>
<g mask="url(#mask0_9008_117270)">
<path d="M1.53125 96.1516V85.3047H2.56856C2.97403 85.3047 3.36298 85.4658 3.64969 85.7525C3.9364 86.0392 4.09753 86.4281 4.09753 86.8336V91.6572C5.75951 90.1734 7.17569 89.5803 9.05868 89.542C12.6668 89.4676 15.8238 92.1533 16.1125 95.757C16.4688 100.064 13.3365 103.305 9.25711 103.305C4.78076 103.305 1.53125 100.526 1.53125 96.1516ZM4.0569 97.004C4.30951 99.2455 6.45177 101.097 8.70912 101.133C11.6407 101.178 13.6545 99.2613 13.6545 96.4222C13.6545 93.583 11.6971 91.7091 8.83538 91.7091C5.77979 91.7091 3.70963 93.9303 4.0569 97.004ZM20.4017 89.8148V91.7474C22.0163 89.9433 22.977 89.4721 24.8667 89.4721C25.4174 89.4729 25.9671 89.5174 26.5106 89.6051V92.1714C25.9304 92.0114 25.3311 91.931 24.7291 91.9323C23.3603 91.9323 22.2102 92.3834 21.3601 93.229C20.6204 93.9709 20.4017 94.5528 20.4017 95.7096V102.856H17.7452V89.8148H20.4017ZM27.1398 94.1265C27.2774 92.8569 27.5232 92.1692 28.0711 91.5061C29.1671 90.1531 31.1403 89.4766 33.9344 89.4766C36.1533 89.4766 37.7676 89.8216 38.8956 90.5613C39.827 91.1701 40.2104 92.0699 40.2104 93.6575V99.453C40.2104 100.723 40.5396 101.174 41.4439 101.147C41.6453 101.139 41.846 101.121 42.0461 101.092V102.84C41.596 102.994 41.123 103.066 40.6479 103.052C38.9769 103.052 38.2101 102.549 37.6912 101.095C36.0473 102.603 34.3493 103.239 31.9116 103.239C28.653 103.239 26.6527 101.758 26.6527 99.3492C26.6457 98.6768 26.8367 98.0171 27.2021 97.4525C27.5674 96.8879 28.0908 96.4433 28.7071 96.1741C29.6926 95.7502 30.2856 95.6194 33.118 95.3262C35.5287 95.0872 35.9391 95.0353 36.6244 94.8234C37.3641 94.5843 37.6933 94.1897 37.6933 93.5267C37.6933 92.124 36.5164 91.4971 34.0494 91.4971C31.7176 91.4971 30.5179 91.9481 30.0353 93.1388C29.9202 93.4346 29.7184 93.6888 29.4566 93.8683C29.1946 94.0477 28.8847 94.144 28.5673 94.1446L27.1398 94.1265ZM37.6871 96.3546C35.9945 96.8469 34.2568 97.1665 32.5001 97.3085C30.1165 97.5474 29.3768 97.9849 29.3768 99.1869C29.3768 100.511 30.4728 101.198 32.6354 101.198C34.4169 101.198 35.7587 100.747 36.7168 99.8747C37.4836 99.1598 37.6753 98.657 37.6753 97.4122L37.6871 96.3546ZM48.4727 102.858H47.7962C47.5003 102.859 47.2107 102.777 46.9593 102.621C46.7085 102.465 46.5057 102.242 46.3759 101.976L40.6208 89.8148H42.2169C42.6725 89.8113 43.1184 89.9401 43.5018 90.1855C43.8845 90.4309 44.188 90.7824 44.3756 91.1972L48.2088 99.9513L52.1663 91.1679C52.3573 90.76 52.6615 90.4156 53.0421 90.1757C53.4234 89.9358 53.8652 89.8105 54.3159 89.8148H55.7654L49.8868 101.992C49.7548 102.253 49.552 102.473 49.3027 102.626C49.0526 102.779 48.7658 102.859 48.4727 102.858ZM57.5678 97.0897C57.84 99.6041 59.8223 101.165 62.754 101.165C64.4181 101.165 65.6586 100.671 66.4413 99.6807C66.6636 99.3999 66.9463 99.1728 67.2678 99.0166C67.5901 98.8604 67.9436 98.7791 68.3013 98.7787H69.8467C68.493 101.744 66.094 103.199 62.506 103.199C58.0137 103.199 55.0014 100.472 55.0014 96.3974C55.0014 92.3224 58.0977 89.4631 62.5623 89.4631C65.794 89.4631 68.3965 90.9176 69.4383 93.353C69.9029 94.4648 70.0967 95.4705 70.0967 97.0829L57.5678 97.0897ZM67.3727 95.0782C66.7705 92.7758 64.989 91.47 62.5241 91.47C60.0591 91.47 58.2776 92.7667 57.6484 95.0782H67.3727Z" fill="#FAFAFA"/>
<path d="M71.3118 89.9777C71.3173 90.198 71.2576 90.415 71.1395 90.601C71.0207 90.787 70.8499 90.9335 70.6478 91.0217C70.4457 91.1099 70.222 91.1358 70.0053 91.0961C69.7886 91.0564 69.5886 90.9528 69.4309 90.7988C69.2733 90.6446 69.1656 90.447 69.1205 90.2312C69.076 90.0154 69.0969 89.7911 69.1802 89.5871C69.2642 89.3832 69.4066 89.2088 69.59 89.0864C69.7733 88.9639 69.9887 88.8989 70.2088 88.8997C70.3526 88.897 70.495 88.9229 70.6283 88.9758C70.7617 89.0287 70.8832 89.1076 70.986 89.2079C71.0888 89.3082 71.1701 89.4279 71.2263 89.56C71.2819 89.6922 71.3111 89.8342 71.3118 89.9777ZM69.3747 89.9777C69.3712 90.09 69.39 90.202 69.4309 90.3068C69.4719 90.4117 69.533 90.5072 69.6115 90.5877C69.69 90.6681 69.7844 90.7319 69.8879 90.7751C69.9921 90.8183 70.1032 90.84 70.2158 90.839C70.3262 90.8386 70.4359 90.8158 70.5373 90.7722C70.6387 90.7287 70.7304 90.6651 70.8068 90.5855C70.8839 90.5057 70.9436 90.4115 70.9832 90.3082C71.0221 90.205 71.0409 90.0948 71.0367 89.9844C71.0423 89.8716 71.0256 89.7589 70.986 89.6529C70.9471 89.547 70.8867 89.4501 70.8089 89.3682C70.7311 89.2863 70.6381 89.2211 70.5339 89.1765C70.4304 89.132 70.3186 89.109 70.206 89.109C70.0928 89.109 69.981 89.132 69.8775 89.1765C69.7733 89.2211 69.6803 89.2863 69.6025 89.3682C69.5247 89.4501 69.4643 89.547 69.4254 89.6529C69.3858 89.7589 69.3691 89.8716 69.3747 89.9844V89.9777ZM70.038 90.5437H69.7872V89.4657C69.9241 89.4412 70.063 89.4299 70.2026 89.4319C70.3318 89.4217 70.4623 89.449 70.5769 89.5109C70.6089 89.5389 70.6353 89.5734 70.6526 89.6123C70.6707 89.6512 70.6804 89.6935 70.6804 89.7364C70.6756 89.797 70.6506 89.8545 70.6103 89.8997C70.5693 89.9449 70.5144 89.9754 70.4547 89.9866V90.0002C70.5082 90.0219 70.5547 90.0577 70.5894 90.1039C70.6235 90.1499 70.645 90.2045 70.6512 90.2618C70.6617 90.3551 70.6888 90.4459 70.7297 90.5301H70.4595C70.4179 90.4477 70.3894 90.3595 70.3734 90.2685C70.3533 90.1513 70.288 90.0971 70.1484 90.0971H70.031L70.038 90.5437ZM70.038 89.9325H70.1546C70.2929 89.9325 70.4054 89.8874 70.4054 89.7747C70.4054 89.6619 70.3331 89.61 70.1796 89.61C70.1338 89.6091 70.0873 89.6137 70.0421 89.6236L70.038 89.9325Z" fill="#77777A"/>
</g>
<defs>
<linearGradient id="paint0_linear_9008_117270" x1="8.73132" y1="32.0731" x2="63.2683" y2="32.0731" gradientUnits="userSpaceOnUse">
<stop stop-color="#F1562B"/>
<stop offset="0.3" stop-color="#F1542B"/>
<stop offset="0.41" stop-color="#F04D2A"/>
<stop offset="0.49" stop-color="#EF4229"/>
<stop offset="0.5" stop-color="#EF4029"/>
<stop offset="0.56" stop-color="#E83E28"/>
<stop offset="0.67" stop-color="#E13C26"/>
<stop offset="1" stop-color="#DF3C26"/>
</linearGradient>
</defs>
</svg>
