<svg width="80" height="102" viewBox="0 0 80 102" fill="none" xmlns="http://www.w3.org/2000/svg">
<path d="M7.52951 101.383C6.3573 101.383 5.3054 101.201 4.3736 100.837C3.4419 100.473 2.65289 99.9417 2.00669 99.2438C1.36049 98.5308 0.864592 97.6661 0.518991 96.6497C0.17329 95.6332 0.000488281 94.4651 0.000488281 93.1452C0.000488281 91.8254 0.19589 90.6572 0.586591 89.6408C0.992292 88.6244 1.54089 87.7672 2.23219 87.0694C2.9234 86.3564 3.735 85.8178 4.6667 85.4537C5.5984 85.0896 6.5978 84.9076 7.66481 84.9076C8.31101 84.9076 8.89711 84.9606 9.42301 85.0668C9.94901 85.1579 10.4074 85.2641 10.7981 85.3854C11.1888 85.5068 11.5119 85.6357 11.7674 85.7723C12.0229 85.9088 12.2032 86.0074 12.3084 86.0681L11.4744 88.412C11.1137 88.1844 10.5952 87.972 9.91901 87.7748C9.25771 87.5624 8.53641 87.4562 7.75491 87.4562C7.0787 87.4562 6.44751 87.5776 5.8614 87.8203C5.2753 88.0479 4.7644 88.3968 4.3286 88.8671C3.9078 89.3374 3.5772 89.929 3.3367 90.6421C3.0963 91.3551 2.97599 92.1819 2.97599 93.1225C2.97599 93.9569 3.06619 94.723 3.24649 95.4208C3.4419 96.1187 3.735 96.7255 4.1257 97.2413C4.5164 97.7419 5.0123 98.1364 5.6134 98.4246C6.2146 98.6977 6.93591 98.8342 7.77751 98.8342C8.78431 98.8342 9.60341 98.7356 10.2345 98.5384C10.8657 98.326 11.3541 98.1288 11.6998 97.9467L12.4662 100.291C12.2859 100.412 12.0379 100.533 11.7223 100.655C11.4218 100.776 11.0611 100.897 10.6403 101.019C10.2195 101.125 9.74611 101.208 9.22021 101.269C8.69421 101.345 8.13061 101.383 7.52951 101.383Z" fill="#FAFAFA"/>
<path d="M14.8262 101.042V83.8381L17.5538 83.3829V89.2767C17.8544 89.1705 18.2 89.0795 18.5907 89.0036C18.9965 88.9278 19.3947 88.8899 19.7855 88.8899C20.7322 88.8899 21.5137 89.0264 22.1298 89.2995C22.761 89.5574 23.2644 89.9291 23.6401 90.4146C24.0158 90.8849 24.2788 91.4538 24.4291 92.1213C24.5944 92.7888 24.6771 93.5322 24.6771 94.3514V101.042H21.9495V94.7838C21.9495 94.1466 21.9044 93.608 21.8142 93.1681C21.7391 92.713 21.6039 92.3489 21.4085 92.0758C21.2282 91.7876 20.9802 91.5827 20.6646 91.4614C20.349 91.3248 19.9583 91.2566 19.4924 91.2566C19.1318 91.2566 18.7636 91.2945 18.3879 91.3704C18.0122 91.4462 17.7342 91.5145 17.5538 91.5752V101.042H14.8262Z" fill="#FAFAFA"/>
<path d="M34.6628 91.6206C34.4374 91.5447 34.1218 91.4689 33.716 91.393C33.3253 91.302 32.8669 91.2565 32.3409 91.2565C32.0404 91.2565 31.7173 91.2868 31.3716 91.3475C31.041 91.4082 30.8081 91.4613 30.6728 91.5068V101.042H27.9453V89.7091C28.4712 89.5119 29.125 89.3298 29.9064 89.1629C30.7029 88.9809 31.582 88.8899 32.5438 88.8899C32.7242 88.8899 32.9346 88.905 33.175 88.9354C33.4154 88.9505 33.6559 88.9809 33.8963 89.0264C34.1368 89.0567 34.3697 89.1022 34.5951 89.1629C34.8206 89.2084 35.0009 89.2539 35.1361 89.2995L34.6628 91.6206Z" fill="#FAFAFA"/>
<path d="M47.7018 95.0796C47.7018 96.0202 47.5666 96.8773 47.2961 97.651C47.0256 98.4247 46.6424 99.0846 46.1464 99.6308C45.6505 100.177 45.0494 100.602 44.3431 100.905C43.6518 101.208 42.8854 101.36 42.0438 101.36C41.2022 101.36 40.4358 101.208 39.7445 100.905C39.0532 100.602 38.4596 100.177 37.9636 99.6308C37.4677 99.0846 37.077 98.4247 36.7914 97.651C36.5209 96.8773 36.3857 96.0202 36.3857 95.0796C36.3857 94.139 36.5209 93.2894 36.7914 92.5309C37.077 91.7572 37.4677 91.0973 37.9636 90.5511C38.4747 90.005 39.0758 89.5878 39.7671 89.2996C40.4584 88.9961 41.2173 88.8444 42.0438 88.8444C42.8703 88.8444 43.6293 88.9961 44.3205 89.2996C45.0269 89.5878 45.628 90.005 46.1239 90.5511C46.6198 91.0973 47.003 91.7572 47.2735 92.5309C47.5591 93.2894 47.7018 94.139 47.7018 95.0796ZM44.9066 95.0796C44.9066 93.8963 44.6512 92.9633 44.1402 92.2806C43.6443 91.5827 42.9455 91.2338 42.0438 91.2338C41.1421 91.2338 40.4358 91.5827 39.9249 92.2806C39.4289 92.9633 39.181 93.8963 39.181 95.0796C39.181 96.2781 39.4289 97.2262 39.9249 97.9241C40.4358 98.6219 41.1421 98.9709 42.0438 98.9709C42.9455 98.9709 43.6443 98.6219 44.1402 97.9241C44.6512 97.2262 44.9066 96.2781 44.9066 95.0796Z" fill="#FAFAFA"/>
<path d="M57.2273 94.7837C57.2273 93.5397 57.0695 92.6446 56.754 92.0985C56.4534 91.5371 55.8823 91.2565 55.0408 91.2565C54.7402 91.2565 54.4096 91.2792 54.0489 91.3247C53.6883 91.3703 53.4178 91.4082 53.2374 91.4385V101.042H50.5098V89.527C51.0358 89.3753 51.7196 89.2312 52.5612 89.0947C53.4177 88.9581 54.3194 88.8899 55.2662 88.8899C56.0777 88.8899 56.7389 88.996 57.2499 89.2084C57.7759 89.4208 58.2117 89.7015 58.5573 90.0504C58.7226 89.929 58.933 89.8001 59.1885 89.6636C59.444 89.527 59.7295 89.4057 60.045 89.2995C60.361 89.1781 60.691 89.0795 61.037 89.0036C61.398 88.9278 61.758 88.8899 62.119 88.8899C63.036 88.8899 63.787 89.0264 64.373 89.2995C64.974 89.5574 65.44 89.929 65.771 90.4145C66.116 90.8848 66.349 91.4613 66.47 92.144C66.605 92.8115 66.672 93.5472 66.672 94.3513V101.042H63.945V94.7837C63.945 93.5397 63.795 92.6446 63.494 92.0985C63.193 91.5371 62.615 91.2565 61.758 91.2565C61.322 91.2565 60.909 91.3323 60.518 91.484C60.128 91.6206 59.8347 91.7571 59.6393 91.8936C59.7596 92.2729 59.8422 92.6749 59.8873 93.0997C59.9324 93.5245 59.9549 93.9796 59.9549 94.4651V101.042H57.2273V94.7837Z" fill="#FAFAFA"/>
<path d="M69.3594 95.1479C69.3594 94.1011 69.5094 93.1833 69.8104 92.3944C70.1264 91.6055 70.5394 90.9532 71.0504 90.4374C71.5614 89.9064 72.1474 89.512 72.8084 89.254C73.4694 88.981 74.1464 88.8444 74.8374 88.8444C76.4604 88.8444 77.7224 89.3527 78.6244 90.3691C79.5414 91.3855 79.9994 92.9026 79.9994 94.9203C79.9994 95.072 79.9914 95.2465 79.9764 95.4437C79.9764 95.6257 79.9694 95.7926 79.9544 95.9443H72.1774C72.2524 96.9001 72.5834 97.6434 73.1694 98.1744C73.7704 98.6902 74.6344 98.9481 75.7614 98.9481C76.4224 98.9481 77.0234 98.8874 77.5644 98.7661C78.1214 98.6447 78.5564 98.5157 78.8724 98.3792L79.2334 100.632C79.0824 100.708 78.8724 100.791 78.6014 100.882C78.3464 100.958 78.0454 101.026 77.7004 101.087C77.3694 101.163 77.0084 101.224 76.6184 101.269C76.2274 101.315 75.8294 101.337 75.4234 101.337C74.3864 101.337 73.4844 101.186 72.7184 100.882C71.9524 100.564 71.3204 100.131 70.8244 99.5853C70.3284 99.024 69.9604 98.3716 69.7204 97.6283C69.4794 96.8697 69.3594 96.0429 69.3594 95.1479ZM77.2714 93.919C77.2714 93.5398 77.2194 93.1833 77.1144 92.8495C77.0084 92.5006 76.8514 92.2047 76.6404 91.962C76.4454 91.7041 76.1974 91.5069 75.8964 91.3704C75.6114 91.2187 75.2654 91.1428 74.8594 91.1428C74.4394 91.1428 74.0704 91.2262 73.7554 91.3931C73.4394 91.5448 73.1694 91.7496 72.9434 92.0075C72.7334 92.2654 72.5684 92.5613 72.4474 92.895C72.3274 93.2288 72.2454 93.5701 72.1994 93.919H77.2714Z" fill="#FAFAFA"/>
<g filter="url(#filter0_ii_9008_117265)">
<g clip-path="url(#clip0_9008_117265)">
<path d="M15.5005 3.02917V41.3554H29.4825L41.7717 20.0631H73.0005V3.02917H15.5005Z" fill="#DB4437"/>
<path d="M15.5005 3.02917V41.3554H29.4825L41.7717 20.0631H73.0005V3.02917H15.5005Z" fill="url(#paint0_linear_9008_117265)"/>
<path d="M29.812 41.2138L15.6809 16.976L15.4751 17.3308L29.5068 41.3912L29.812 41.2138Z" fill="black" fill-opacity="0.15"/>
<path d="M10.5425 65.4871H40.2702L54.0676 51.6897V41.3558H29.4749L10.5425 8.87781V65.4871Z" fill="#0F9D58"/>
<path d="M10.5425 65.4871H40.2702L54.0676 51.6897V41.3558H29.4749L10.5425 8.87781V65.4871Z" fill="url(#paint1_linear_9008_117265)"/>
<path d="M53.7654 41.8165L53.4709 41.6461L39.8438 65.4758H40.2519L53.7725 41.8271L53.7654 41.8165Z" fill="#263238" fill-opacity="0.15"/>
<path d="M41.7721 20.064L54.0685 41.3563L40.271 65.4877H73.0009V20.064H41.7721Z" fill="#FFCD40"/>
<path d="M41.7721 20.064L54.0685 41.3563L40.271 65.4877H73.0009V20.064H41.7721Z" fill="url(#paint2_linear_9008_117265)"/>
<path d="M41.7706 20.064L54.067 41.3563L40.2695 65.4877H72.9995V20.064H41.7706Z" fill="#FFCD40"/>
<path d="M41.7706 20.064L54.067 41.3563L40.2695 65.4877H72.9995V20.064H41.7706Z" fill="url(#paint3_linear_9008_117265)"/>
<path d="M15.4995 3.02917V41.3554H29.4815L41.7708 20.0631H72.9996V3.02917H15.4995Z" fill="#DB4437"/>
<path d="M15.4995 3.02917V41.3554H29.4815L41.7708 20.0631H72.9996V3.02917H15.4995Z" fill="url(#paint4_linear_9008_117265)"/>
<path d="M41.7715 20.064V27.4985L69.5935 20.064H41.7715Z" fill="url(#paint5_radial_9008_117265)"/>
<path d="M10.5425 65.4871H40.2702L47.8041 52.7117L54.0676 41.3558H29.4749L10.5425 8.87781V65.4871Z" fill="#0F9D58"/>
<path d="M10.5425 65.4871H40.2702L48.3364 51.4696L54.0676 41.3558H29.4749L10.5425 8.87781V65.4871Z" fill="url(#paint6_linear_9008_117265)"/>
<path d="M15.5005 17.3838L35.8169 37.6967L29.4789 41.3555L15.5005 17.3838Z" fill="url(#paint7_radial_9008_117265)"/>
<path d="M40.291 65.4524L47.7292 37.7013L54.0672 41.3565L40.291 65.4524Z" fill="url(#paint8_radial_9008_117265)"/>
<path d="M41.7711 48.4538C49.6107 48.4538 55.966 42.0985 55.966 34.2589C55.966 26.4192 49.6107 20.064 41.7711 20.064C33.9315 20.064 27.5762 26.4192 27.5762 34.2589C27.5762 42.0985 33.9315 48.4538 41.7711 48.4538Z" fill="#F1F1F1"/>
<path d="M41.771 45.6142C48.0427 45.6142 53.1269 40.53 53.1269 34.2583C53.1269 27.9866 48.0427 22.9023 41.771 22.9023C35.4993 22.9023 30.415 27.9866 30.415 34.2583C30.415 40.53 35.4993 45.6142 41.771 45.6142Z" fill="#4285F4"/>
<path d="M41.7711 19.7083C33.9284 19.7083 27.5762 26.0605 27.5762 33.9032V34.258C27.5762 26.4154 33.9284 20.0631 41.7711 20.0631H72.9999V19.7083H41.7711Z" fill="black" fill-opacity="0.2"/>
<path d="M54.0499 41.3558C51.5942 45.593 47.0234 48.4532 41.7713 48.4532C36.5192 48.4532 31.9413 45.593 29.4927 41.3558H29.4785L10.5425 8.87781V9.23268L29.4927 41.7106C31.9484 45.9478 36.5192 48.8081 41.7713 48.8081C47.0234 48.8081 51.5942 45.9514 54.0499 41.7106H54.0676V41.3558H54.0463H54.0499Z" fill="white" fill-opacity="0.1"/>
<path opacity="0.1" d="M42.1271 20.064C42.0668 20.064 42.01 20.0711 41.9497 20.0746C49.7072 20.1704 55.9672 26.4801 55.9672 34.2589C55.9672 42.0377 49.7072 48.3473 41.9497 48.4431C42.01 48.4431 42.0668 48.4538 42.1271 48.4538C49.9698 48.4538 56.3221 42.1016 56.3221 34.2589C56.3221 26.4162 49.9698 20.064 42.1271 20.064Z" fill="black"/>
<path d="M54.1912 41.8181C55.3978 39.7315 56.0969 37.3183 56.0969 34.7349C56.0977 33.2791 55.8739 31.8319 55.4333 30.4445C55.7704 31.6581 55.9656 32.9286 55.9656 34.2522C55.9656 36.8357 55.2665 39.2489 54.0599 41.3355L54.067 41.3497L40.2695 65.481H40.6812L54.1912 41.8181Z" fill="white" fill-opacity="0.2"/>
<path d="M41.7713 3.38393C58.9578 3.38393 72.9008 17.2701 73.0001 34.4353C73.0001 34.375 73.0037 34.3182 73.0037 34.2579C73.0037 17.011 59.0217 3.02905 41.7748 3.02905C24.528 3.02905 10.5425 17.011 10.5425 34.2579C10.5425 34.3182 10.546 34.375 10.546 34.4353C10.6418 17.2701 24.5848 3.38393 41.7713 3.38393Z" fill="white" fill-opacity="0.2"/>
<path d="M41.7713 65.1324C58.9578 65.1324 72.9008 51.2463 73.0001 34.0811C73.0001 34.1414 73.0037 34.1982 73.0037 34.2585C73.0037 51.5053 59.0217 65.4873 41.7748 65.4873C24.528 65.4873 10.5425 51.5053 10.5425 34.2585C10.5425 34.1982 10.546 34.1414 10.546 34.0811C10.6418 51.2463 24.5848 65.1324 41.7748 65.1324H41.7713Z" fill="black" fill-opacity="0.15"/>
</g>
</g>
<defs>
<filter id="filter0_ii_9008_117265" x="10.5425" y="2.65734" width="62.4575" height="63.2011" filterUnits="userSpaceOnUse" color-interpolation-filters="sRGB">
<feFlood flood-opacity="0" result="BackgroundImageFix"/>
<feBlend mode="normal" in="SourceGraphic" in2="BackgroundImageFix" result="shape"/>
<feColorMatrix in="SourceAlpha" type="matrix" values="0 0 0 0 0 0 0 0 0 0 0 0 0 0 0 0 0 0 127 0" result="hardAlpha"/>
<feOffset dy="0.371715"/>
<feGaussianBlur stdDeviation="0.371715"/>
<feComposite in2="hardAlpha" operator="arithmetic" k2="-1" k3="1"/>
<feColorMatrix type="matrix" values="0 0 0 0 1 0 0 0 0 1 0 0 0 0 1 0 0 0 0.25 0"/>
<feBlend mode="normal" in2="shape" result="effect1_innerShadow_9008_117265"/>
<feColorMatrix in="SourceAlpha" type="matrix" values="0 0 0 0 0 0 0 0 0 0 0 0 0 0 0 0 0 0 127 0" result="hardAlpha"/>
<feOffset dy="-0.371715"/>
<feGaussianBlur stdDeviation="0.371715"/>
<feComposite in2="hardAlpha" operator="arithmetic" k2="-1" k3="1"/>
<feColorMatrix type="matrix" values="0 0 0 0 0 0 0 0 0 0 0 0 0 0 0 0 0 0 0.12 0"/>
<feBlend mode="normal" in2="effect1_innerShadow_9008_117265" result="effect2_innerShadow_9008_117265"/>
</filter>
<linearGradient id="paint0_linear_9008_117265" x1="18.1159" y1="26.8128" x2="36.7467" y2="15.9288" gradientUnits="userSpaceOnUse">
<stop stop-color="#A52714" stop-opacity="0.6"/>
<stop offset="0.66" stop-color="#A52714" stop-opacity="0"/>
</linearGradient>
<linearGradient id="paint1_linear_9008_117265" x1="47.0589" y1="58.5671" x2="26.3485" y2="46.4305" gradientUnits="userSpaceOnUse">
<stop stop-color="#055524" stop-opacity="0.4"/>
<stop offset="0.33" stop-color="#055524" stop-opacity="0"/>
</linearGradient>
<linearGradient id="paint2_linear_9008_117265" x1="50.9633" y1="17.8638" x2="56.1799" y2="40.6821" gradientUnits="userSpaceOnUse">
<stop stop-color="#EA6100" stop-opacity="0.3"/>
<stop offset="0.66" stop-color="#EA6100" stop-opacity="0"/>
</linearGradient>
<linearGradient id="paint3_linear_9008_117265" x1="50.9619" y1="17.8638" x2="56.1785" y2="40.6821" gradientUnits="userSpaceOnUse">
<stop stop-color="#EA6100" stop-opacity="0.3"/>
<stop offset="0.66" stop-color="#EA6100" stop-opacity="0"/>
</linearGradient>
<linearGradient id="paint4_linear_9008_117265" x1="18.1149" y1="26.8128" x2="36.7458" y2="15.9288" gradientUnits="userSpaceOnUse">
<stop stop-color="#A52714" stop-opacity="0.6"/>
<stop offset="0.66" stop-color="#A52714" stop-opacity="0"/>
</linearGradient>
<radialGradient id="paint5_radial_9008_117265" cx="0" cy="0" r="1" gradientUnits="userSpaceOnUse" gradientTransform="translate(40.423 20.0462) scale(29.8377 29.8377)">
<stop stop-color="#3E2723" stop-opacity="0.2"/>
<stop offset="1" stop-color="#3E2723" stop-opacity="0"/>
</radialGradient>
<linearGradient id="paint6_linear_9008_117265" x1="47.0589" y1="58.5671" x2="26.3485" y2="46.4305" gradientUnits="userSpaceOnUse">
<stop stop-color="#055524" stop-opacity="0.4"/>
<stop offset="0.33" stop-color="#055524" stop-opacity="0"/>
</linearGradient>
<radialGradient id="paint7_radial_9008_117265" cx="0" cy="0" r="1" gradientUnits="userSpaceOnUse" gradientTransform="translate(15.4756 17.4086) scale(27.6943 27.6943)">
<stop stop-color="#3E2723" stop-opacity="0.2"/>
<stop offset="1" stop-color="#3E2723" stop-opacity="0"/>
</radialGradient>
<radialGradient id="paint8_radial_9008_117265" cx="0" cy="0" r="1" gradientUnits="userSpaceOnUse" gradientTransform="translate(41.6999 34.3087) scale(31.1827 31.1827)">
<stop stop-color="#263238" stop-opacity="0.2"/>
<stop offset="1" stop-color="#263238" stop-opacity="0"/>
</radialGradient>
<clipPath id="clip0_9008_117265">
<rect x="10.5425" y="3.02905" width="62.4576" height="62.4576" rx="31.2288" fill="white"/>
</clipPath>
</defs>
</svg>
