<svg width="134" height="109" viewBox="0 0 134 109" fill="none" xmlns="http://www.w3.org/2000/svg">
<path d="M36.1377 31.0703C36.1377 0.0703125 36.1377 0.0703125 67.0002 0.0703125C97.8623 0.0703125 97.8623 0.0703125 97.8623 31.0703C97.8623 62.0703 97.8623 62.0703 67.0002 62.0703C36.1377 62.0703 36.1377 62.0703 36.1377 31.0703Z" fill="url(#paint0_linear_9008_117311)"/>
<path d="M79.6819 29.7592V32.3993C79.6819 37.1697 78.3388 40.8847 75.6532 43.5433C72.9861 46.183 69.1129 47.4939 64.0321 47.4939H55.4482C57.7055 46.5162 58.8344 44.4043 58.8344 41.1586V36.2316C58.8344 34.8824 59.1263 33.924 59.7109 33.3187C60.3144 32.7317 61.0152 32.3794 61.8515 32.243V29.8976C61.0152 29.7599 60.3144 29.4089 59.7109 28.8219C59.1263 28.2154 58.8344 27.2582 58.8344 25.909V20.9807C58.8344 17.7358 57.7055 15.624 55.4482 14.6462H64.0317C69.171 14.6462 73.0639 15.9563 75.7107 18.5764C78.3592 21.1753 79.6819 24.9104 79.6819 29.7592Z" fill="white"/>
<mask id="mask0_9008_117311" style="mask-type:luminance" maskUnits="userSpaceOnUse" x="0" y="86" width="134" height="23">
<path d="M134 86.0703H0V108.07H134V86.0703Z" fill="white"/>
</mask>
<g mask="url(#mask0_9008_117311)">
<path d="M3.4585 86.653H8.31104C10.6317 86.653 12.3898 87.2433 13.5854 88.4224C14.7807 89.6026 15.3787 91.2873 15.3787 93.4766V94.6632C15.3787 96.8248 14.7737 98.5031 13.5639 99.6966C12.3542 100.89 10.6032 101.487 8.31075 101.487H3.4585V86.653ZM5.99014 88.8991V99.2407H8.31104C9.77367 99.2407 10.8742 98.8664 11.6126 98.1179C12.3514 97.3689 12.7201 96.2176 12.7201 94.6632V93.4766C12.7201 91.9374 12.3474 90.7891 11.602 90.0329C10.8567 89.2778 9.75916 88.8991 8.31075 88.8991H5.99014Z" fill="#FAFAFA"/>
<path d="M22.1251 101.678C20.5356 101.678 19.2946 101.226 18.4014 100.321C17.508 99.4175 17.062 98.1526 17.062 96.5281V95.8496C17.062 95.0444 17.178 94.3243 17.4099 93.688C17.6418 93.0524 17.9796 92.512 18.4226 92.0671C18.8655 91.6223 19.3966 91.2831 20.0154 91.0499C20.634 90.8169 21.3373 90.6999 22.1251 90.6999C23.7144 90.6999 24.9555 91.1526 25.8489 92.0563C26.7421 92.9603 27.1889 94.2251 27.1889 95.8496V96.5281C27.1889 97.3334 27.073 98.0535 26.8408 98.6897C26.6085 99.3253 26.2713 99.8657 25.828 100.311C25.3849 100.755 24.8502 101.095 24.2243 101.328C23.5985 101.561 22.8986 101.678 22.1251 101.678ZM22.1251 99.3886C22.9268 99.3886 23.5422 99.1557 23.9712 98.6895C24.4003 98.2229 24.6149 97.5028 24.6149 96.5279V95.8494C24.6149 94.889 24.393 94.1719 23.9504 93.6987C23.5074 93.2255 22.8986 92.9889 22.1253 92.9889C21.3236 92.9889 20.7081 93.2218 20.2794 93.688C19.8501 94.1545 19.636 94.8747 19.636 95.8496V96.5281C19.636 97.4885 19.8571 98.2056 20.3003 98.6788C20.7435 99.152 21.3518 99.3886 22.1251 99.3886Z" fill="#FAFAFA"/>
<path d="M30.1975 100.587C29.5996 99.9864 29.3008 99.1214 29.3008 97.9907V86.653H31.748V97.7366C31.748 98.287 31.8676 98.6902 32.1068 98.9444C32.3459 99.1987 32.7114 99.3261 33.2039 99.3261H33.7313V101.488H32.7607C31.6496 101.487 30.7952 101.187 30.1975 100.587Z" fill="#FAFAFA"/>
<path d="M40.8415 101.678C39.5196 101.678 38.4924 101.261 37.7612 100.427V105.726H35.314V90.8908H37.2337L37.4659 92.3323C37.8315 91.7812 38.2994 91.3713 38.8689 91.1025C39.4385 90.8346 40.0958 90.6999 40.8415 90.6999C41.4464 90.6999 42.0057 90.8096 42.5192 91.0283C43.0321 91.2481 43.4712 91.5729 43.8375 92.0033C44.2029 92.4348 44.491 92.9715 44.7025 93.6145C44.9132 94.2573 45.0186 95.0021 45.0186 95.8496V96.5281C45.0186 97.3756 44.9132 98.1174 44.7025 98.7532C44.491 99.3888 44.1992 99.9262 43.8264 100.364C43.4543 100.802 43.0144 101.13 42.5075 101.349C42.002 101.568 41.4464 101.678 40.8415 101.678ZM40.1031 99.3888C40.8481 99.3888 41.425 99.1632 41.8332 98.711C42.2407 98.2588 42.4448 97.5313 42.4448 96.5281V95.8496C42.4448 94.8747 42.2341 94.1545 41.8119 93.688C41.3904 93.2221 40.8208 92.9889 40.1031 92.9889C39.4282 92.9889 38.8763 93.2218 38.4467 93.688C38.0179 94.1545 37.7893 94.8327 37.7612 95.7229V96.5281C37.7612 97.4603 37.9832 98.1701 38.4254 98.6578C38.8689 99.1452 39.4282 99.3888 40.1031 99.3888Z" fill="#FAFAFA"/>
<path d="M47.124 86.653H49.5718V91.8027C50.2748 91.068 51.2518 90.7004 52.5037 90.7004C53.7976 90.7004 54.8071 91.0854 55.5314 91.8557C56.2557 92.6259 56.6175 93.7874 56.6175 95.3417V101.487H54.1712V95.3417C54.1712 94.5647 53.984 93.9781 53.6112 93.5828C53.2383 93.1873 52.7292 92.9894 52.0822 92.9894C51.3225 92.9894 50.7213 93.1941 50.2784 93.604C49.8349 94.014 49.5991 94.5577 49.5718 95.2355V101.487H47.124V86.653Z" fill="#FAFAFA"/>
<path d="M60.5901 89.6205C60.1399 89.6205 59.7633 89.469 59.4612 89.1647C59.1584 88.8612 59.0073 88.4832 59.0073 88.031C59.0073 87.5787 59.1584 87.201 59.4612 86.8972C59.7633 86.5937 60.1399 86.4414 60.5901 86.4414C61.0255 86.4414 61.3991 86.5934 61.7086 86.8972C62.0173 87.2008 62.1721 87.5787 62.1721 88.031C62.1721 88.4832 62.0173 88.8609 61.7086 89.1647C61.3991 89.469 61.0255 89.6205 60.5901 89.6205ZM59.3669 90.8917H61.8132V101.488H59.3669V90.8917Z" fill="#FAFAFA"/>
<path d="M64.6606 90.8908H66.5809L66.7702 92.0775C67.5572 91.1594 68.6477 90.6999 70.0403 90.6999C71.3335 90.6999 72.3437 91.0849 73.068 91.8552C73.7923 92.6254 74.1541 93.7869 74.1541 95.3412V101.487H71.7071V95.3414C71.7071 94.5644 71.5199 93.9778 71.1471 93.5825C70.775 93.1871 70.2651 92.9892 69.6189 92.9892C68.8592 92.9892 68.2579 93.1938 67.8143 93.6038C67.3707 94.0137 67.1357 94.5574 67.1077 95.2353V101.487H64.6606V90.8908Z" fill="#FAFAFA"/>
<path d="M83.0141 88.0096H82.0429C80.4388 88.0096 79.6371 88.8572 79.6371 90.5528V93.3072C79.6371 93.9434 79.5428 94.512 79.3527 95.0132C79.1633 95.5156 78.7441 95.9073 78.0971 96.1898C78.4206 96.3455 78.6851 96.5219 78.8885 96.7198C79.0926 96.9178 79.2503 97.1398 79.363 97.3868C79.4758 97.6343 79.5495 97.8992 79.5848 98.1817C79.6195 98.4642 79.6371 98.7613 79.6371 99.0716V101.827C79.6371 103.522 80.4388 104.37 82.0429 104.37H83.0141V105.726H82.0429C79.4551 105.726 78.1612 104.426 78.1612 101.827V99.0713C78.1612 98.3228 77.9955 97.7824 77.6646 97.4504C77.3345 97.1183 76.9366 96.9172 76.4731 96.8461V95.5326C76.9366 95.4621 77.3345 95.2605 77.6646 94.9284C77.9955 94.5963 78.1612 94.0562 78.1612 93.3069V90.5526C78.1612 87.9533 79.4551 86.653 82.0429 86.653H83.0141V88.0096Z" fill="#FAFAFA"/>
<path d="M88.1832 101.635C87.1288 101.635 86.319 101.364 85.7575 100.82C85.1946 100.276 84.9131 99.5235 84.9131 98.5625C84.9131 98.0537 84.9941 97.5911 85.1562 97.1739C85.3176 96.7573 85.5777 96.4079 85.9366 96.1253C86.2954 95.8429 86.7552 95.6236 87.3189 95.4679C87.8804 95.3128 88.556 95.2349 89.3437 95.2349H91.7495V94.2813C91.7495 93.5189 91.5616 92.9569 91.1903 92.5965C90.8167 92.2367 90.2014 92.0561 89.3437 92.0561C88.57 92.0561 87.9901 92.2081 87.6026 92.5119C87.2165 92.8163 86.9947 93.2291 86.9387 93.7518H85.4407C85.4687 93.3136 85.5674 92.9115 85.7354 92.5439C85.9041 92.1763 86.1502 91.8587 86.4745 91.5902C86.7979 91.3217 87.1988 91.1133 87.677 90.9649C88.1552 90.8171 88.71 90.7429 89.3437 90.7429C90.5956 90.7429 91.541 91.0537 92.182 91.6751C92.8209 92.2969 93.1414 93.1661 93.1414 94.2815V101.487H92.0649L91.8541 99.4951C91.4887 100.173 90.9861 100.7 90.3458 101.074C89.7055 101.448 88.9849 101.635 88.1832 101.635ZM88.2886 100.321C88.7668 100.321 89.217 100.233 89.6392 100.057C90.0607 99.8801 90.4306 99.6399 90.7459 99.3359C91.0628 99.0323 91.3089 98.6789 91.485 98.2763C91.6611 97.8737 91.7488 97.4464 91.7488 96.9942V96.507H89.3437C88.2598 96.507 87.4898 96.6977 87.033 97.0787C86.5761 97.4604 86.3477 97.9551 86.3477 98.5625C86.3477 99.0993 86.5128 99.5265 86.8436 99.8446C87.1745 100.162 87.6556 100.321 88.2886 100.321Z" fill="#FAFAFA"/>
<path d="M96.6211 90.8907H97.6969L97.8656 92.6287C98.2171 92.0214 98.6916 91.5555 99.2899 91.2301C99.8875 90.9053 100.58 90.7429 101.368 90.7429C102.577 90.7429 103.53 91.1105 104.226 91.8445C104.923 92.5791 105.27 93.6739 105.27 95.1294V101.487H103.878V95.1297C103.878 94.0987 103.639 93.3285 103.161 92.8194C102.682 92.3107 102.015 92.0564 101.156 92.0564C100.229 92.0564 99.4793 92.3249 98.9097 92.8617C98.3394 93.399 98.041 94.1119 98.013 95.0023V101.487H96.6211V90.8907Z" fill="#FAFAFA"/>
<path d="M107.276 90.8913H109.175V87.9251H110.567V90.8913H113.395V92.1631H110.567V98.5208C110.567 99.6508 111.088 100.216 112.128 100.216H113.605V101.488H111.959C111.046 101.488 110.352 101.251 109.882 100.778C109.411 100.305 109.175 99.6086 109.175 98.6904V92.1634H107.276V90.8913Z" fill="#FAFAFA"/>
<path d="M119.659 101.488L115.292 90.8913H116.853L120.418 99.7497L123.731 90.8913H125.208L119.511 105.726H118.035L119.659 101.488Z" fill="#FAFAFA"/>
<path d="M126.556 104.369H127.526C129.129 104.369 129.931 103.522 129.931 101.826V99.071C129.931 98.4354 130.025 97.8668 130.216 97.3649C130.406 96.864 130.824 96.4715 131.471 96.1889C131.147 96.0338 130.884 95.8569 130.68 95.659C130.476 95.4616 130.318 95.239 130.206 94.9914C130.093 94.7444 130.02 94.4795 129.984 94.197C129.949 93.9146 129.931 93.6183 129.931 93.3066V90.5523C129.931 88.8566 129.129 88.009 127.526 88.009H126.556V86.653H127.526C130.114 86.653 131.409 87.9534 131.409 90.5525V93.307C131.409 94.056 131.573 94.5969 131.904 94.9289C132.234 95.2605 132.632 95.4621 133.095 95.5326V96.8462C132.632 96.9172 132.234 97.1183 131.904 97.4503C131.573 97.7819 131.409 98.3225 131.409 99.0713V101.826C131.409 104.425 130.114 105.726 127.526 105.726H126.556V104.369Z" fill="#FAFAFA"/>
</g>
<defs>
<linearGradient id="paint0_linear_9008_117311" x1="67.0002" y1="0.0703125" x2="67.0002" y2="62.0703" gradientUnits="userSpaceOnUse">
<stop offset="0.0056" stop-color="#B645EE"/>
<stop offset="1" stop-color="#9B26B6"/>
</linearGradient>
</defs>
</svg>
