<svg width="154" height="108" viewBox="0 0 154 108" fill="none" xmlns="http://www.w3.org/2000/svg">
<path d="M105.737 22.0407C104.39 18.7977 101.656 15.2963 99.5149 14.1895C101.042 17.1468 102.102 20.3229 102.656 23.6045L102.662 23.6565C99.1547 14.913 93.2075 11.3875 88.3503 3.71074C88.0994 3.31938 87.8558 2.92342 87.6196 2.52305C87.4978 2.31392 87.3838 2.10035 87.2778 1.88278C87.0763 1.49267 86.9212 1.08038 86.8152 0.654279C86.8154 0.634616 86.8084 0.61559 86.7952 0.600829C86.7823 0.586067 86.7643 0.576605 86.7448 0.574246C86.7258 0.569001 86.7054 0.569001 86.6864 0.574246C86.6824 0.574246 86.676 0.581449 86.6712 0.583049C86.6664 0.58465 86.656 0.591853 86.6488 0.595054L86.6608 0.574246C78.8696 5.13613 76.2261 13.5812 75.9828 17.8053C72.8714 18.0192 69.8966 19.1657 67.4465 21.0955C67.1908 20.8789 66.9237 20.6764 66.6461 20.4888C65.9393 18.015 65.9092 15.3968 66.5589 12.9073C63.6977 14.2934 61.1552 16.2583 59.0926 18.6777H59.0782C57.8489 17.1195 57.9353 11.9813 58.0058 10.9081C57.6421 11.0543 57.2949 11.2386 56.9701 11.4579C55.8849 12.2325 54.8704 13.1015 53.9385 14.055C52.8765 15.1317 51.9066 16.2954 51.0389 17.534C49.0447 20.3613 47.6302 23.5547 46.8772 26.9315L46.8356 27.1364C46.7212 27.7798 46.6195 28.4257 46.5306 29.0732C46.5306 29.0964 46.5258 29.118 46.5234 29.1412C46.2519 30.5525 46.0837 31.9817 46.02 33.4174V33.5774C46.0268 41.3442 48.9469 48.8256 54.203 54.5434C59.4592 60.2612 66.669 63.7993 74.4076 64.4583C82.1463 65.1175 89.8506 62.8497 95.9979 58.1031C102.145 53.3565 106.289 46.4765 107.609 38.8228C107.661 38.4226 107.703 38.0265 107.749 37.6223C108.388 32.3419 107.697 26.9856 105.737 22.0407ZM69.9867 46.3211C70.1316 46.3907 70.2676 46.466 70.4165 46.5324L70.4381 46.546C70.2876 46.474 70.1372 46.399 69.9867 46.3211ZM102.664 23.6638V23.6341L102.67 23.667L102.664 23.6638Z" fill="url(#paint0_linear_9008_117271)"/>
<path d="M105.737 22.0398C104.39 18.7968 101.656 15.2953 99.5149 14.1885C101.042 17.1457 102.102 20.3218 102.656 23.6036V23.6332L102.662 23.666C105.053 30.5076 104.707 38.0084 101.697 44.6011C98.1415 52.229 89.5364 60.0474 76.0668 59.6673C61.5128 59.2551 48.6955 48.4555 46.2993 34.3104C45.8632 32.0799 46.2993 30.949 46.5186 29.1363C46.2195 30.5444 46.0526 31.9773 46.02 33.4165V33.5765C46.0268 41.3431 48.9469 48.8246 54.203 54.5424C59.4592 60.2603 66.669 63.7983 74.4076 64.4574C82.1463 65.1164 89.8506 62.8486 95.9979 58.102C102.145 53.3554 106.289 46.4754 107.609 38.8219C107.661 38.4217 107.703 38.0256 107.749 37.6214C108.388 32.341 107.697 26.9847 105.737 22.0398Z" fill="url(#paint1_radial_9008_117271)"/>
<path d="M105.737 22.0398C104.39 18.7968 101.656 15.2953 99.5149 14.1885C101.042 17.1457 102.102 20.3218 102.656 23.6036V23.6332L102.662 23.666C105.053 30.5076 104.707 38.0084 101.697 44.6011C98.1415 52.229 89.5364 60.0474 76.0668 59.6673C61.5128 59.2551 48.6955 48.4555 46.2993 34.3104C45.8632 32.0799 46.2993 30.949 46.5186 29.1363C46.2195 30.5444 46.0526 31.9773 46.02 33.4165V33.5765C46.0268 41.3431 48.9469 48.8246 54.203 54.5424C59.4592 60.2603 66.669 63.7983 74.4076 64.4574C82.1463 65.1164 89.8506 62.8486 95.9979 58.102C102.145 53.3554 106.289 46.4754 107.609 38.8219C107.661 38.4217 107.703 38.0256 107.749 37.6214C108.388 32.341 107.697 26.9847 105.737 22.0398Z" fill="url(#paint2_radial_9008_117271)"/>
<path d="M90.6637 25.6862C90.7309 25.7335 90.7933 25.7807 90.8566 25.8279C90.0775 24.4464 89.1075 23.1814 87.9754 22.0703C78.3346 12.428 85.4487 1.16333 86.6484 0.591094L86.6604 0.573486C78.8692 5.13537 76.2257 13.5805 75.9824 17.8046C76.3442 17.7798 76.7027 17.7494 77.0725 17.7494C79.837 17.7545 82.5509 18.4914 84.9381 19.8856C87.3253 21.2796 89.3009 23.2811 90.6637 25.6862Z" fill="url(#paint3_radial_9008_117271)"/>
<path d="M77.0939 27.6117C77.0427 28.3833 74.3167 31.0443 73.3636 31.0443C64.5431 31.0443 63.1113 36.3801 63.1113 36.3801C63.5019 40.8732 66.6328 44.5739 70.4175 46.5315C70.5904 46.6212 70.7657 46.702 70.941 46.7812C71.2446 46.9157 71.5482 47.0399 71.8517 47.1542C73.1507 47.6139 74.5112 47.8764 75.8878 47.9329C91.3478 48.658 94.3426 29.4453 83.186 23.8702C85.818 23.5277 88.4834 24.1748 90.6651 25.6861C89.3023 23.2808 87.3268 21.2795 84.9395 19.8853C82.5523 18.4913 79.8384 17.7542 77.0739 17.7493C76.7057 17.7493 76.3456 17.7797 75.9838 17.8045C72.8725 18.0183 69.8976 19.1649 67.4475 21.0946C67.9205 21.4948 68.4543 22.0294 69.5788 23.1379C71.6837 25.2115 77.0819 27.3596 77.0939 27.6117Z" fill="url(#paint4_radial_9008_117271)"/>
<path d="M77.0939 27.6117C77.0427 28.3833 74.3167 31.0443 73.3636 31.0443C64.5431 31.0443 63.1113 36.3801 63.1113 36.3801C63.5019 40.8732 66.6328 44.5739 70.4175 46.5315C70.5904 46.6212 70.7657 46.702 70.941 46.7812C71.2446 46.9157 71.5482 47.0399 71.8517 47.1542C73.1507 47.6139 74.5112 47.8764 75.8878 47.9329C91.3478 48.658 94.3426 29.4453 83.186 23.8702C85.818 23.5277 88.4834 24.1748 90.6651 25.6861C89.3023 23.2808 87.3268 21.2795 84.9395 19.8853C82.5523 18.4913 79.8384 17.7542 77.0739 17.7493C76.7057 17.7493 76.3456 17.7797 75.9838 17.8045C72.8725 18.0183 69.8976 19.1649 67.4475 21.0946C67.9205 21.4948 68.4543 22.0294 69.5788 23.1379C71.6837 25.2115 77.0819 27.3596 77.0939 27.6117Z" fill="url(#paint5_radial_9008_117271)"/>
<path d="M66.0012 20.0632C66.2525 20.2233 66.4598 20.3625 66.6414 20.4882C65.9346 18.0144 65.9045 15.3961 66.5542 12.9066C63.6929 14.2927 61.1505 16.2576 59.0879 18.677C59.2392 18.673 63.7386 18.5922 66.0012 20.0632Z" fill="url(#paint6_radial_9008_117271)"/>
<path d="M46.3048 34.3103C48.6986 48.4554 61.5182 59.255 76.0722 59.6672C89.5418 60.0482 98.1469 52.2289 101.702 44.601C104.712 38.0085 105.058 30.5077 102.667 23.666V23.6363C102.667 23.6131 102.662 23.5995 102.667 23.6067L102.673 23.6588C103.773 30.8433 100.119 37.8038 94.4062 42.5105L94.3886 42.5505C83.2576 51.6159 72.6052 48.02 70.4491 46.5522C70.2986 46.4802 70.1482 46.4053 69.9977 46.3273C63.5078 43.2252 60.8267 37.3124 61.4014 32.2415C59.8608 32.2642 58.3468 31.8397 57.0426 31.0194C55.7384 30.199 54.7002 29.0181 54.0536 27.6196C55.7572 26.576 57.6996 25.986 59.6959 25.9058C61.6922 25.8257 63.6757 26.2581 65.4574 27.1618C69.1308 28.8295 73.3109 28.9938 77.1038 27.6196C77.0918 27.3675 71.6936 25.2186 69.5887 23.1457C68.4643 22.0373 67.9305 21.5035 67.4575 21.1025C67.2018 20.8861 66.9347 20.6836 66.6571 20.4958C66.4731 20.3702 66.2658 20.2341 66.0169 20.0709C63.7543 18.5999 59.2549 18.6807 59.1061 18.6847H59.0916C57.8623 17.1265 57.9488 11.9884 58.0192 10.9152C57.6555 11.0613 57.3084 11.2456 56.9836 11.465C55.8984 12.2395 54.8838 13.1086 53.9519 14.0621C52.8862 15.1357 51.9122 16.2968 51.0403 17.533C49.0461 20.3603 47.6316 23.5538 46.8786 26.9305C46.8634 26.9937 45.7613 31.8117 46.3048 34.3103Z" fill="url(#paint7_radial_9008_117271)"/>
<path d="M87.978 22.0711C89.1103 23.1834 90.0803 24.4497 90.8592 25.8326C91.0297 25.9615 91.1889 26.0896 91.3242 26.2136C98.3567 32.6963 94.672 41.8601 94.3974 42.5123C100.11 37.8056 103.761 30.8451 102.664 23.6605C99.1554 14.913 93.2082 11.3875 88.351 3.71074C88.1 3.31938 87.8564 2.92342 87.6203 2.52305C87.4984 2.31392 87.3845 2.10035 87.2785 1.88278C87.077 1.49267 86.9217 1.08038 86.8159 0.654279C86.8161 0.634616 86.8089 0.61559 86.7959 0.600829C86.783 0.586067 86.765 0.576605 86.7455 0.574246C86.7263 0.569001 86.7061 0.569001 86.6871 0.574246C86.6831 0.574246 86.6767 0.581449 86.6719 0.583049C86.6671 0.58465 86.6567 0.591853 86.6495 0.595054C85.4498 1.16409 78.3356 12.4287 87.978 22.0711Z" fill="url(#paint8_radial_9008_117271)"/>
<path d="M91.32 26.211C91.1711 26.0771 91.0158 25.9498 90.855 25.8301C90.7917 25.7829 90.7293 25.7356 90.6621 25.6884C88.4804 24.1772 85.815 23.5301 83.183 23.8725C94.3396 29.4508 91.3464 48.6603 75.8848 47.9352C74.5082 47.8787 73.1477 47.6162 71.8487 47.1565C71.5453 47.0428 71.2416 46.9186 70.938 46.7835C70.7627 46.7035 70.5874 46.6235 70.4146 46.5338L70.4362 46.5474C72.5922 48.0192 83.2414 51.6151 94.3756 42.5458L94.3932 42.5058C94.6709 41.8575 98.3557 32.6913 91.32 26.211Z" fill="url(#paint9_radial_9008_117271)"/>
<path d="M63.1097 36.3818C63.1097 36.3818 64.5415 31.046 73.3619 31.046C74.3151 31.046 77.0435 28.3849 77.0923 27.6134C73.2994 28.9876 69.1192 28.8232 65.4459 27.1556C63.6642 26.2519 61.6806 25.8194 59.6843 25.8996C57.6881 25.9798 55.7456 26.5698 54.042 27.6134C54.6886 29.0119 55.7268 30.1929 57.031 31.0132C58.3352 31.8335 59.8493 32.258 61.3898 32.2353C60.8152 37.307 63.4963 43.2198 69.9862 46.3211C70.131 46.3907 70.2671 46.466 70.4159 46.5324C66.628 44.5756 63.5003 40.8749 63.1097 36.3818Z" fill="url(#paint10_radial_9008_117271)"/>
<path d="M105.737 22.0407C104.39 18.7977 101.656 15.2963 99.5149 14.1895C101.042 17.1468 102.102 20.3229 102.656 23.6045L102.662 23.6565C99.1547 14.913 93.2075 11.3875 88.3503 3.71074C88.0994 3.31938 87.8558 2.92342 87.6196 2.52305C87.4978 2.31392 87.3838 2.10035 87.2778 1.88278C87.0763 1.49267 86.9212 1.08038 86.8152 0.654279C86.8154 0.634616 86.8084 0.61559 86.7952 0.600829C86.7823 0.586067 86.7643 0.576605 86.7448 0.574246C86.7258 0.569001 86.7054 0.569001 86.6864 0.574246C86.6824 0.574246 86.676 0.581449 86.6712 0.583049C86.6664 0.58465 86.656 0.591853 86.6488 0.595054L86.6608 0.574246C78.8696 5.13613 76.2261 13.5812 75.9828 17.8053C76.3445 17.7805 76.7031 17.7501 77.0728 17.7501C79.8373 17.7552 82.5511 18.4922 84.9385 19.8864C87.3257 21.2804 89.3012 23.2818 90.664 25.687C88.4822 24.1758 85.8169 23.5287 83.1849 23.871C94.3415 29.4493 91.3483 48.6589 75.8867 47.9338C74.51 47.8773 73.1496 47.6147 71.8507 47.155C71.547 47.0414 71.2435 46.917 70.9399 46.7821C70.7646 46.7021 70.5893 46.622 70.4165 46.5324L70.4381 46.546C70.2876 46.474 70.1372 46.399 69.9867 46.3211C70.1316 46.3907 70.2676 46.466 70.4165 46.5324C66.6285 44.5748 63.5008 40.874 63.1103 36.381C63.1103 36.381 64.5421 31.0452 73.3625 31.0452C74.3157 31.0452 77.044 28.3841 77.0928 27.6126C77.0808 27.3605 71.6826 25.2116 69.5777 23.1387C68.4533 22.0303 67.9194 21.4965 67.4465 21.0955C67.1908 20.8789 66.9237 20.6764 66.6461 20.4888C65.9393 18.015 65.9092 15.3968 66.5589 12.9073C63.6977 14.2934 61.1552 16.2583 59.0926 18.6777H59.0782C57.8489 17.1195 57.9353 11.9813 58.0058 10.9081C57.6421 11.0543 57.2949 11.2386 56.9701 11.4579C55.8849 12.2325 54.8704 13.1015 53.9385 14.055C52.8765 15.1317 51.9066 16.2954 51.0389 17.534C49.0447 20.3613 47.6302 23.5547 46.8772 26.9315L46.8356 27.1364C46.7771 27.4093 46.5154 28.7955 46.4778 29.0932C46.4778 29.07 46.4778 29.1156 46.4778 29.0932C46.2384 30.524 46.0856 31.9681 46.02 33.4174V33.5774C46.0268 41.3442 48.9469 48.8256 54.203 54.5434C59.4592 60.2612 66.669 63.7993 74.4076 64.4583C82.1463 65.1175 89.8506 62.8497 95.9979 58.1031C102.145 53.3565 106.289 46.4765 107.609 38.8228C107.661 38.4226 107.703 38.0265 107.749 37.6223C108.388 32.3419 107.697 26.9856 105.737 22.0407Z" fill="url(#paint11_linear_9008_117271)"/>
<mask id="mask0_9008_117271" style="mask-type:luminance" maskUnits="userSpaceOnUse" x="0" y="88" width="154" height="20">
<path d="M154 88.5703H0V107.57H154V88.5703Z" fill="white"/>
</mask>
<g mask="url(#mask0_9008_117271)">
<path d="M4.61963 91.1185H14.1067V93.7285H7.3416V97.265H14.1067V99.8534H7.3416V105.542H4.61963V91.1185ZM17.3334 90.1109C17.5437 90.1039 17.7532 90.1411 17.9486 90.2203C18.1442 90.2995 18.3214 90.4189 18.4693 90.571C18.6172 90.7231 18.7326 90.9047 18.8081 91.1044C18.8836 91.304 18.9177 91.5173 18.9082 91.7309C18.9087 92.1549 18.7446 92.5619 18.4516 92.8638C18.1586 93.1655 17.7603 93.3377 17.3431 93.3429C16.9261 93.3482 16.5237 93.186 16.2235 92.8916C15.9234 92.5972 15.7495 92.1944 15.7395 91.7705C15.7316 91.5537 15.767 91.3376 15.8438 91.1351C15.9205 90.9327 16.0371 90.7483 16.1861 90.5931C16.3352 90.4378 16.5138 90.3151 16.711 90.2322C16.9083 90.1493 17.12 90.1081 17.3334 90.1109ZM15.9919 94.8724H18.6749V105.542H15.9919V94.8724ZM26.4508 97.8365C26.0793 97.538 25.6218 97.3714 25.1482 97.3622C24.0595 97.3622 23.4375 98.0737 23.4375 99.6343V105.542H20.7744V94.8724H23.321V96.4136C23.5105 95.9029 23.8566 95.4677 24.3082 95.1724C24.7598 94.8771 25.2929 94.7373 25.8287 94.7738C26.466 94.772 27.0891 94.9647 27.6174 95.3269L26.4508 97.8365ZM27.5576 100.267C27.5375 99.534 27.6626 98.8049 27.9255 98.1227C28.1884 97.4404 28.5838 96.8188 29.0881 96.2952C29.5924 95.7715 30.1953 95.3564 30.8609 95.0746C31.5263 94.7928 32.2409 94.6502 32.9618 94.655C36.111 94.655 38.3468 96.9275 38.3468 100.089V101.214H30.1831C30.4749 102.557 31.5051 103.447 33.08 103.447C33.6175 103.464 34.1484 103.324 34.6101 103.044C35.0718 102.763 35.4448 102.355 35.6851 101.866L37.9205 103.229C36.8136 104.889 35.2379 105.758 33.002 105.758C29.6 105.76 27.559 103.448 27.559 100.267H27.5576ZM30.2207 99.0614H35.7417C35.4504 97.6979 34.3617 96.9464 32.9423 96.9464C32.3181 96.9242 31.7057 97.123 31.2097 97.5088C30.7136 97.8945 30.3647 98.4433 30.2225 99.0614H30.2207ZM39.0078 94.8724H40.8935V94.3391C40.8935 91.4344 42.0986 90.2293 44.7427 90.2293H45.6755V92.5805H44.9176C43.6735 92.5805 43.4012 93.0152 43.4012 94.3391V94.8724H45.6755V97.3226H43.4618V105.542H40.8939V97.3226H39.0083L39.0078 94.8724ZM46.1803 100.208C46.1683 99.4732 46.3021 98.7439 46.5738 98.0633C46.8453 97.3828 47.2492 96.7648 47.7612 96.2464C48.2732 95.7281 48.8827 95.3201 49.5533 95.0466C50.224 94.7731 50.9421 94.64 51.6647 94.655C52.3863 94.6484 53.1018 94.7872 53.7704 95.0632C54.4389 95.3393 55.0463 95.7472 55.559 96.2634C56.0717 96.7797 56.4782 97.394 56.7562 98.0709C57.0334 98.7479 57.1768 99.474 57.1768 100.207C57.1768 100.941 57.0334 101.667 56.7562 102.344C56.4782 103.021 56.0717 103.635 55.559 104.151C55.0463 104.667 54.4389 105.075 53.7704 105.351C53.1018 105.628 52.3863 105.766 51.6647 105.76C50.9395 105.786 50.216 105.661 49.5408 105.391C48.8653 105.122 48.2514 104.714 47.7374 104.194C47.2233 103.673 46.82 103.05 46.5525 102.365C46.285 101.679 46.1591 100.945 46.1825 100.208H46.1803ZM54.539 100.208C54.539 99.4318 54.2361 98.6879 53.696 98.1393C53.1567 97.5908 52.4244 97.2826 51.6611 97.2826C50.8979 97.2826 50.1664 97.5908 49.6265 98.1393C49.0868 98.6879 48.7836 99.4318 48.7836 100.208C48.7836 100.983 49.0868 101.727 49.6265 102.276C50.1664 102.824 50.8979 103.133 51.6611 103.133C52.4244 103.133 53.1567 102.824 53.696 102.276C54.2361 101.727 54.539 100.983 54.539 100.208ZM60.7604 100.089L56.9696 94.8724H60.1184L62.3542 98.1524L64.6485 94.8724H67.7389L63.8897 100.069L67.9337 105.542H64.8035L62.2958 102.065L59.866 105.542H56.7385L60.7604 100.089ZM83.4465 98.0926C84.0282 97.8162 84.5161 97.3728 84.8526 96.817C85.1882 96.2613 85.3556 95.6178 85.3352 94.966C85.3352 92.6309 83.5828 91.1266 80.9352 91.1266H74.8599V105.572H81.1301C83.8166 105.572 85.6274 104.028 85.6274 101.495C85.6611 100.767 85.4689 100.046 85.0775 99.4358C84.6861 98.825 84.1159 98.3551 83.4465 98.0926ZM76.4759 92.6309H80.9166C82.6486 92.6309 83.7201 93.5809 83.7201 94.966C83.7201 96.3511 82.7859 97.3802 81.053 97.3802H76.4759V92.6309ZM81.1106 104.049H76.4759V98.9039H81.0326C82.9807 98.9039 83.9919 99.9529 83.9919 101.477C83.9919 102.98 82.8647 104.049 81.1106 104.049ZM89.0941 96.905V94.8868H87.5578V105.573H89.1348V99.7153C89.1348 97.3604 90.1469 96.3313 91.8993 96.3313C92.3509 96.3131 92.7972 96.4301 93.1833 96.6679L93.8474 95.1244C93.3081 94.8368 92.7033 94.7001 92.095 94.7284C91.4247 94.6834 90.7597 94.8755 90.2124 95.2723C89.6652 95.669 89.2703 96.2459 89.0941 96.905ZM99.3745 94.669C98.2925 94.669 97.2343 94.9951 96.3347 95.6061C95.435 96.2171 94.7337 97.0855 94.3202 98.1016C93.9058 99.1176 93.7978 100.236 94.0085 101.314C94.2193 102.393 94.7408 103.384 95.5059 104.161C96.2709 104.939 97.2458 105.469 98.3067 105.683C99.3684 105.898 100.468 105.788 101.468 105.367C102.468 104.946 103.322 104.234 103.923 103.319C104.525 102.405 104.845 101.33 104.845 100.23C104.855 99.497 104.72 98.7695 104.449 98.0903C104.177 97.4111 103.775 96.7941 103.264 96.2757C102.755 95.7573 102.148 95.348 101.479 95.0721C100.812 94.7961 100.095 94.659 99.3745 94.669ZM99.3745 104.247C98.8601 104.251 98.35 104.149 97.8745 103.947C97.3999 103.745 96.9705 103.447 96.6118 103.071C96.2541 102.696 95.9743 102.251 95.7892 101.762C95.605 101.274 95.52 100.753 95.5386 100.23C95.5227 99.7062 95.6095 99.1843 95.7954 98.6954C95.9814 98.2064 96.2621 97.7605 96.6207 97.3839C96.9793 97.0075 97.4088 96.708 97.8834 96.5036C98.358 96.2991 98.8689 96.1938 99.3843 96.1938C99.8996 96.1938 100.411 96.2991 100.885 96.5036C101.36 96.708 101.789 97.0075 102.149 97.3839C102.507 97.7605 102.787 98.2064 102.973 98.6954C103.159 99.1843 103.247 99.7062 103.23 100.23C103.247 100.754 103.159 101.276 102.973 101.765C102.786 102.253 102.505 102.699 102.144 103.074C101.785 103.449 101.354 103.747 100.877 103.948C100.402 104.15 99.8899 104.251 99.3745 104.247ZM117.66 103.297L114.523 94.8868H113.044L109.831 103.356L107.183 94.8868H105.508L108.955 105.573H110.512L113.744 97.1035L116.976 105.573H118.417L122.058 94.8868H120.403L117.66 103.297ZM127.687 99.3985C126.052 99.0623 124.786 98.8445 124.786 97.7366C124.786 96.7466 125.45 96.0347 127.065 96.0347C127.623 96.0126 128.178 96.131 128.681 96.3796C129.183 96.6282 129.618 96.9991 129.946 97.4594L131.27 96.5491C130.765 95.9185 130.121 95.4177 129.391 95.0877C128.66 94.7576 127.862 94.6075 127.064 94.6496C124.572 94.6298 123.151 96.0937 123.151 97.7546C123.151 99.8917 125.077 100.386 126.888 100.742C128.426 101.059 129.867 101.297 129.867 102.484C129.867 103.553 129.011 104.344 127.375 104.344C126.711 104.373 126.051 104.228 125.458 103.923C124.865 103.618 124.358 103.163 123.987 102.602L122.605 103.553C123.539 104.918 125.04 105.788 127.336 105.788C130.081 105.808 131.483 104.146 131.483 102.464C131.482 100.27 129.498 99.7549 127.687 99.3985ZM138.28 94.669C137.554 94.6555 136.832 94.7912 136.158 95.0682C135.485 95.3452 134.874 95.7575 134.361 96.2806C133.848 96.8037 133.444 97.4267 133.175 98.1121C132.905 98.7977 132.774 99.5315 132.79 100.27C132.79 103.396 134.97 105.79 138.339 105.79C139.319 105.832 140.291 105.602 141.153 105.124C142.013 104.647 142.73 103.94 143.225 103.079L141.863 102.269C141.532 102.92 141.023 103.459 140.398 103.824C139.773 104.189 139.058 104.364 138.339 104.327C136.119 104.327 134.581 102.883 134.348 100.845H143.635V100.111C143.658 99.3896 143.535 98.6711 143.275 98C143.014 97.3289 142.62 96.7194 142.118 96.2092C141.616 95.699 141.016 95.2991 140.356 95.0341C139.695 94.7693 138.988 94.645 138.278 94.669H138.28ZM134.384 99.4183C134.54 98.4861 135.018 97.6409 135.732 97.0351C136.446 96.4292 137.349 96.1024 138.28 96.1135C139.201 96.0635 140.105 96.381 140.8 96.9981C141.494 97.6153 141.925 98.4836 141.999 99.4183H134.384ZM150.077 94.7284C149.408 94.684 148.743 94.8765 148.197 95.2733C147.65 95.6699 147.255 96.2464 147.079 96.905V94.8868H145.541V105.573H147.118V99.7153C147.118 97.3604 148.13 96.3313 149.883 96.3313C150.334 96.3131 150.78 96.4301 151.167 96.6679L151.831 95.1244C151.291 94.8368 150.687 94.7 150.078 94.7284H150.077Z" fill="#FAFAFA"/>
</g>
<defs>
<linearGradient id="paint0_linear_9008_117271" x1="101.632" y1="10.4855" x2="50.1393" y2="60.166" gradientUnits="userSpaceOnUse">
<stop offset="0.048" stop-color="#FFF44F"/>
<stop offset="0.111" stop-color="#FFE847"/>
<stop offset="0.225" stop-color="#FFC830"/>
<stop offset="0.368" stop-color="#FF980E"/>
<stop offset="0.401" stop-color="#FF8B16"/>
<stop offset="0.462" stop-color="#FF672A"/>
<stop offset="0.534" stop-color="#FF3647"/>
<stop offset="0.705" stop-color="#E31587"/>
</linearGradient>
<radialGradient id="paint1_radial_9008_117271" cx="0" cy="0" r="1" gradientUnits="userSpaceOnUse" gradientTransform="translate(99.2524 7.67219) scale(64.6643 64.6643)">
<stop offset="0.129" stop-color="#FFBD4F"/>
<stop offset="0.186" stop-color="#FFAC31"/>
<stop offset="0.247" stop-color="#FF9D17"/>
<stop offset="0.283" stop-color="#FF980E"/>
<stop offset="0.403" stop-color="#FF563B"/>
<stop offset="0.467" stop-color="#FF3750"/>
<stop offset="0.71" stop-color="#F5156C"/>
<stop offset="0.782" stop-color="#EB0878"/>
<stop offset="0.86" stop-color="#E50080"/>
</radialGradient>
<radialGradient id="paint2_radial_9008_117271" cx="0" cy="0" r="1" gradientUnits="userSpaceOnUse" gradientTransform="translate(75.6234 34.1087) scale(64.6643 64.6643)">
<stop offset="0.3" stop-color="#960E18"/>
<stop offset="0.351" stop-color="#B11927" stop-opacity="0.74"/>
<stop offset="0.435" stop-color="#DB293D" stop-opacity="0.343"/>
<stop offset="0.497" stop-color="#F5334B" stop-opacity="0.094"/>
<stop offset="0.53" stop-color="#FF3750" stop-opacity="0"/>
</radialGradient>
<radialGradient id="paint3_radial_9008_117271" cx="0" cy="0" r="1" gradientUnits="userSpaceOnUse" gradientTransform="translate(83.4191 -7.00243) scale(46.8465)">
<stop offset="0.132" stop-color="#FFF44F"/>
<stop offset="0.252" stop-color="#FFDC3E"/>
<stop offset="0.506" stop-color="#FF9D12"/>
<stop offset="0.526" stop-color="#FF980E"/>
</radialGradient>
<radialGradient id="paint4_radial_9008_117271" cx="0" cy="0" r="1" gradientUnits="userSpaceOnUse" gradientTransform="translate(68.4719 50.9998) scale(30.7895 30.7895)">
<stop offset="0.353" stop-color="#3A8EE6"/>
<stop offset="0.472" stop-color="#5C79F0"/>
<stop offset="0.669" stop-color="#9059FF"/>
<stop offset="1" stop-color="#C139E6"/>
</radialGradient>
<radialGradient id="paint5_radial_9008_117271" cx="0" cy="0" r="1" gradientUnits="userSpaceOnUse" gradientTransform="translate(79.1583 28.8093) rotate(-13.5916) scale(16.3243 19.1119)">
<stop offset="0.206" stop-color="#9059FF" stop-opacity="0"/>
<stop offset="0.278" stop-color="#8C4FF3" stop-opacity="0.064"/>
<stop offset="0.747" stop-color="#7716A8" stop-opacity="0.45"/>
<stop offset="0.975" stop-color="#6E008B" stop-opacity="0.6"/>
</radialGradient>
<radialGradient id="paint6_radial_9008_117271" cx="0" cy="0" r="1" gradientUnits="userSpaceOnUse" gradientTransform="translate(74.808 5.02657) scale(22.1499)">
<stop stop-color="#FFE226"/>
<stop offset="0.121" stop-color="#FFDB27"/>
<stop offset="0.295" stop-color="#FFC82A"/>
<stop offset="0.502" stop-color="#FFA930"/>
<stop offset="0.732" stop-color="#FF7E37"/>
<stop offset="0.792" stop-color="#FF7139"/>
</radialGradient>
<radialGradient id="paint7_radial_9008_117271" cx="0" cy="0" r="1" gradientUnits="userSpaceOnUse" gradientTransform="translate(92.2189 -9.02266) scale(94.5038 94.5038)">
<stop offset="0.113" stop-color="#FFF44F"/>
<stop offset="0.456" stop-color="#FF980E"/>
<stop offset="0.622" stop-color="#FF5634"/>
<stop offset="0.716" stop-color="#FF3647"/>
<stop offset="0.904" stop-color="#E31587"/>
</radialGradient>
<radialGradient id="paint8_radial_9008_117271" cx="0" cy="0" r="1" gradientUnits="userSpaceOnUse" gradientTransform="translate(84.2529 -3.7671) rotate(83.976) scale(69.2641 45.4573)">
<stop stop-color="#FFF44F"/>
<stop offset="0.06" stop-color="#FFE847"/>
<stop offset="0.168" stop-color="#FFC830"/>
<stop offset="0.304" stop-color="#FF980E"/>
<stop offset="0.356" stop-color="#FF8B16"/>
<stop offset="0.455" stop-color="#FF672A"/>
<stop offset="0.57" stop-color="#FF3647"/>
<stop offset="0.737" stop-color="#E31587"/>
</radialGradient>
<radialGradient id="paint9_radial_9008_117271" cx="0" cy="0" r="1" gradientUnits="userSpaceOnUse" gradientTransform="translate(74.2865 13.233) scale(59.0003)">
<stop offset="0.137" stop-color="#FFF44F"/>
<stop offset="0.48" stop-color="#FF980E"/>
<stop offset="0.592" stop-color="#FF5634"/>
<stop offset="0.655" stop-color="#FF3647"/>
<stop offset="0.904" stop-color="#E31587"/>
</radialGradient>
<radialGradient id="paint10_radial_9008_117271" cx="0" cy="0" r="1" gradientUnits="userSpaceOnUse" gradientTransform="translate(89.8591 16.6857) scale(64.5754 64.5754)">
<stop offset="0.094" stop-color="#FFF44F"/>
<stop offset="0.231" stop-color="#FFE141"/>
<stop offset="0.509" stop-color="#FFAF1E"/>
<stop offset="0.626" stop-color="#FF980E"/>
</radialGradient>
<linearGradient id="paint11_linear_9008_117271" x1="101.013" y1="10.2198" x2="57.1982" y2="54.0339" gradientUnits="userSpaceOnUse">
<stop offset="0.167" stop-color="#FFF44F" stop-opacity="0.8"/>
<stop offset="0.266" stop-color="#FFF44F" stop-opacity="0.634"/>
<stop offset="0.489" stop-color="#FFF44F" stop-opacity="0.217"/>
<stop offset="0.6" stop-color="#FFF44F" stop-opacity="0"/>
</linearGradient>
</defs>
</svg>
