<svg width="128" height="113" viewBox="0 0 128 113" fill="none" xmlns="http://www.w3.org/2000/svg">
<path fill-rule="evenodd" clip-rule="evenodd" d="M60.7257 8.40141C63.1297 4.71107 67.537 -0.307783 74.6435 0.0928815C79.8522 0.388108 83.6479 2.9608 84.9343 8.00074C85.82 11.5224 85.0608 16.4358 84.1329 19.9574C81.0752 31.408 73.2939 34.8031 80.063 49.1638C82.3405 53.9718 88.6668 56.9451 85.1241 59.4546C81.7079 61.8796 72.8089 59.2648 67.4948 54.3935C49.6758 38.0506 53.83 18.9874 60.7257 8.40141Z" fill="#AE04BC"/>
<path fill-rule="evenodd" clip-rule="evenodd" d="M81.4761 22.2771C83.627 21.2438 89.3207 20.1261 93.3484 23.4791C96.3007 25.9252 97.4183 29.1095 95.9422 32.6733C94.93 35.1405 92.3151 37.7132 90.2274 39.3792C83.395 44.7987 77.3218 43.3858 75.0233 54.8575C74.2641 58.6954 76.6892 63.2293 73.5049 63.166C70.4261 63.1027 66.3141 57.641 65.3019 52.4535C61.9489 34.9508 73.0832 26.2837 81.4761 22.2771Z" fill="#1900CE"/>
<path fill-rule="evenodd" clip-rule="evenodd" d="M72.2395 63.9884C56.2551 62.5545 40.3761 51.378 33.7124 36.5745C27.8922 23.6478 32.8689 2.34928 51.3417 12.8087C64.4371 20.2316 59.9243 36.1949 70.1729 47.6877C77.5536 55.954 87.992 53.529 86.0097 59.0539C84.386 63.6721 76.1407 64.3469 72.2395 63.9884Z" fill="white"/>
<path d="M0.527832 88.8618H3.92948V106.859H0.527832V88.8618Z" fill="#FAFAFA"/>
<path d="M7.41582 93.545H10.7515V94.9113C11.5053 94.2705 12.1932 93.8277 12.8057 93.5827C13.4182 93.3282 14.0495 93.2057 14.6903 93.2057C16.0095 93.2057 17.1308 93.6675 18.0542 94.5909C18.8269 95.373 19.2132 96.532 19.2132 98.0679V106.869H15.9058V101.036C15.9058 99.4437 15.8304 98.3883 15.6891 97.8701C15.5477 97.3518 15.3027 96.956 14.9447 96.6828C14.5866 96.4095 14.1532 96.2776 13.6349 96.2776C12.9565 96.2776 12.3817 96.5037 11.8917 96.956C11.4111 97.4083 11.0719 98.0302 10.8834 98.8312C10.7892 99.2458 10.7327 100.15 10.7327 101.536V106.878H7.39697V93.545H7.41582Z" fill="#FAFAFA"/>
<path d="M35.4864 96.2399L32.7066 97.7664C32.1884 97.2199 31.6701 96.843 31.1613 96.6263C30.6525 96.419 30.0494 96.3059 29.3709 96.3059C28.1177 96.3059 27.1095 96.6828 26.3368 97.4272C25.5641 98.1716 25.1778 99.1233 25.1778 100.292C25.1778 101.422 25.5453 102.346 26.2897 103.062C27.0341 103.778 28.0046 104.136 29.2202 104.136C30.7184 104.136 31.8774 103.627 32.7161 102.61L35.3545 104.41C33.9316 106.266 31.9151 107.199 29.3144 107.199C26.9775 107.199 25.1401 106.501 23.8115 105.116C22.4828 103.731 21.8232 102.11 21.8232 100.245C21.8232 98.9537 22.1436 97.7664 22.7938 96.6828C23.4345 95.5992 24.3391 94.7417 25.4887 94.1292C26.6383 93.5073 27.9292 93.1964 29.3615 93.1964C30.6807 93.1964 31.868 93.4602 32.9234 93.9879C33.9599 94.525 34.8174 95.2694 35.4864 96.2399Z" fill="#FAFAFA"/>
<path d="M44.7492 93.2057C46.0025 93.2057 47.1898 93.5167 48.2922 94.148C49.3947 94.7794 50.2616 95.6274 50.8835 96.7016C51.5054 97.7758 51.8164 98.9443 51.8164 100.188C51.8164 101.441 51.5054 102.619 50.8835 103.712C50.2616 104.805 49.4135 105.663 48.3299 106.275C47.2557 106.888 46.0684 107.199 44.7681 107.199C42.8552 107.199 41.2345 106.52 39.8776 105.163C38.5207 103.806 37.8423 102.157 37.8423 100.216C37.8423 98.1339 38.6055 96.4001 40.132 95.0149C41.4701 93.8088 43.006 93.2057 44.7492 93.2057ZM44.8058 96.353C43.7693 96.353 42.9024 96.711 42.2145 97.4366C41.5266 98.1622 41.178 99.0856 41.178 100.207C41.178 101.366 41.5172 102.299 42.2051 103.024C42.8835 103.74 43.7504 104.099 44.7963 104.099C45.8423 104.099 46.7092 103.731 47.4065 103.006C48.1038 102.28 48.4524 101.347 48.4524 100.207C48.4524 99.0668 48.1132 98.1339 47.4253 97.4272C46.7375 96.7111 45.8611 96.353 44.8058 96.353Z" fill="#FAFAFA"/>
<path d="M64.3772 93.545H67.7035V104.947C67.7035 107.199 67.2512 108.857 66.3466 109.912C65.1311 111.345 63.303 112.07 60.8531 112.07C59.5433 112.07 58.4503 111.91 57.5645 111.58C56.6788 111.251 55.9249 110.77 55.3125 110.139C54.7 109.507 54.2477 108.735 53.9556 107.83H57.6305C57.9603 108.207 58.3749 108.49 58.8931 108.678C59.4114 108.867 60.0145 108.97 60.7118 108.97C61.6069 108.97 62.3325 108.829 62.879 108.556C63.4255 108.282 63.8119 107.915 64.038 107.481C64.2642 107.038 64.3772 106.285 64.3772 105.201C63.793 105.785 63.1711 106.209 62.5304 106.464C61.8896 106.718 61.1546 106.85 60.3443 106.85C58.5539 106.85 57.0463 106.209 55.8213 104.918C54.5869 103.627 53.9744 101.997 53.9744 100.028C53.9744 97.9172 54.6246 96.2211 55.9344 94.9396C57.1216 93.7805 58.5257 93.2057 60.1652 93.2057C60.9285 93.2057 61.654 93.3471 62.3325 93.6298C63.0109 93.9125 63.6988 94.3742 64.3772 95.0149V93.545ZM60.9096 96.3247C59.8543 96.3247 58.9874 96.6734 58.2995 97.3801C57.6116 98.0868 57.2724 98.9725 57.2724 100.037C57.2724 101.149 57.6211 102.054 58.3278 102.77C59.0251 103.477 59.9108 103.835 60.9662 103.835C62.0027 103.835 62.8602 103.486 63.5292 102.798C64.1982 102.101 64.5374 101.196 64.5374 100.066C64.5374 98.9537 64.1982 98.0585 63.5198 97.3612C62.8507 96.6734 61.9744 96.3247 60.9096 96.3247Z" fill="#FAFAFA"/>
<path d="M71.0765 93.545H74.4121V94.9113C75.166 94.2705 75.8539 93.8277 76.4663 93.5827C77.0788 93.3282 77.7102 93.2057 78.3509 93.2057C79.6701 93.2057 80.7914 93.6675 81.7149 94.5909C82.4875 95.373 82.8739 96.532 82.8739 98.0679V106.869H79.5665V101.036C79.5665 99.4437 79.4911 98.3883 79.3497 97.8701C79.2084 97.3518 78.9634 96.956 78.6053 96.6828C78.2473 96.4095 77.8138 96.2776 77.2955 96.2776C76.6171 96.2776 76.0423 96.5037 75.5523 96.956C75.0717 97.4083 74.7325 98.0302 74.5441 98.8312C74.4498 99.2458 74.3933 100.15 74.3933 101.536V106.878H71.0576V93.545H71.0765Z" fill="#FAFAFA"/>
<path d="M87.416 88.0703C88.0003 88.0703 88.4997 88.287 88.9237 88.7111C89.3383 89.1351 89.555 89.6534 89.555 90.2564C89.555 90.8501 89.3477 91.3589 88.9331 91.7829C88.5185 92.2069 88.0191 92.4142 87.4443 92.4142C86.8507 92.4142 86.3418 92.1975 85.9272 91.7735C85.5126 91.3495 85.2959 90.8218 85.2959 90.2093C85.2959 89.6251 85.5032 89.1162 85.9178 88.7016C86.3324 88.2776 86.8318 88.0703 87.416 88.0703ZM85.7482 93.545H89.0839V106.859H85.7482V93.545Z" fill="#FAFAFA"/>
<path d="M92.5231 88.6451H95.8588V93.5544H97.8375V96.4284H95.8588V106.869H92.5231V96.4189H90.8081V93.545H92.5231V88.6451Z" fill="#FAFAFA"/>
<path d="M105.885 93.2057C107.138 93.2057 108.325 93.5167 109.428 94.148C110.53 94.7794 111.397 95.6274 112.019 96.7016C112.641 97.7758 112.952 98.9443 112.952 100.188C112.952 101.441 112.641 102.619 112.019 103.712C111.397 104.805 110.549 105.663 109.466 106.275C108.391 106.888 107.204 107.199 105.904 107.199C103.991 107.199 102.37 106.52 101.013 105.163C99.6657 103.806 98.9873 102.157 98.9873 100.216C98.9873 98.1339 99.7505 96.4001 101.277 95.0149C102.615 93.8088 104.151 93.2057 105.885 93.2057ZM105.941 96.353C104.905 96.353 104.038 96.711 103.35 97.4366C102.662 98.1622 102.314 99.0856 102.314 100.207C102.314 101.366 102.653 102.299 103.341 103.024C104.019 103.74 104.886 104.099 105.932 104.099C106.978 104.099 107.845 103.731 108.542 103.006C109.239 102.28 109.588 101.347 109.588 100.207C109.588 99.0668 109.249 98.1339 108.561 97.4272C107.873 96.7111 107.006 96.353 105.941 96.353Z" fill="#FAFAFA"/>
<path d="M115.675 93.545H119.011V94.9113C119.765 94.2705 120.453 93.8277 121.065 93.5827C121.678 93.3282 122.309 93.2057 122.95 93.2057C124.269 93.2057 125.39 93.6675 126.314 94.5909C127.086 95.373 127.473 96.532 127.473 98.0679V106.869H124.165V101.036C124.165 99.4437 124.09 98.3883 123.949 97.8701C123.807 97.3518 123.562 96.956 123.204 96.6828C122.846 96.4095 122.413 96.2776 121.894 96.2776C121.216 96.2776 120.641 96.5037 120.151 96.956C119.671 97.4083 119.331 98.0302 119.143 98.8312C119.049 99.2458 118.992 100.15 118.992 101.536V106.878H115.675V93.545Z" fill="#FAFAFA"/>
</svg>
