<svg width="74" height="107" viewBox="0 0 74 107" fill="none" xmlns="http://www.w3.org/2000/svg">
<path d="M19.849 0.26915C13.8736 1.33752 9.06591 5.76007 7.55032 11.574C7.00371 13.6735 6.96644 14.9033 7.02856 31.1897C7.06582 46.1469 7.07825 46.4947 7.32671 47.6501C8.70565 53.8739 13.1282 58.3089 19.4142 59.7748C20.2341 59.9612 21.2776 59.9984 27.9984 60.0357C34.9552 60.0854 35.6757 60.073 35.8621 59.8866C36.0484 59.7003 36.0609 57.3027 36.0609 30.1214C36.0609 9.97143 36.0236 0.480339 35.9366 0.306419C35.8124 0.0828056 35.6012 0.070385 28.3214 0.0828056C22.4081 0.0952301 20.6316 0.1325 19.849 0.26915ZM31.0917 30.0841V55.2529L26.0356 55.1908C21.377 55.1411 20.8801 55.1162 19.9484 54.8802C15.9482 53.8491 12.9791 50.7682 12.1468 46.7556C11.8735 45.5009 11.8735 14.5928 12.1344 13.3629C12.8797 9.87205 15.3022 6.97751 18.5694 5.67311C20.2092 5.01469 20.967 4.94016 26.284 4.92773L31.0917 4.91531V30.0841Z" fill="#FAFAFA"/>
<path d="M20.917 12.5057C20.1344 12.6548 18.9418 13.2511 18.3082 13.8101C17.0038 14.9406 16.3578 16.5431 16.4572 18.4314C16.5069 19.4128 16.569 19.6737 16.9666 20.4688C17.5504 21.6738 18.4325 22.5558 19.6375 23.1521C20.4698 23.5621 20.681 23.6118 21.7618 23.649C22.7432 23.6863 23.0911 23.649 23.7495 23.4254C26.4452 22.5185 28.0726 19.8973 27.613 17.214C27.0788 14.0213 24.0476 11.8846 20.917 12.5057Z" fill="#FAFAFA"/>
<path d="M42.1104 0.157272C42.0607 0.194542 42.0234 13.661 42.0234 30.084C42.0234 57.1784 42.0359 59.9238 42.2222 59.9984C42.5576 60.1226 52.1978 60.0729 53.3904 59.9487C58.4341 59.3772 62.8815 56.3088 65.3039 51.7496C65.6145 51.1657 66.0245 50.1843 66.2357 49.5755C67.0183 47.24 66.9935 47.8612 66.9935 30.0095C66.9935 15.7604 66.9686 13.6361 66.7947 12.7292C65.5648 6.25691 60.6329 1.37471 54.1482 0.256657C53.2786 0.107582 51.9369 0.0703125 47.6137 0.0703125C44.6322 0.0703125 42.1477 0.107582 42.1104 0.157272ZM55.378 27.2143C57.316 27.7237 58.9062 29.202 59.5521 31.0903C59.9621 32.258 59.9497 33.9724 59.5397 35.0408C58.7819 37.0036 57.2912 38.3825 55.378 38.8919C52.2723 39.6993 48.9678 37.8235 48.061 34.7426C47.7877 33.7985 47.8001 32.2083 48.1107 31.2394C49.0424 28.1957 52.2723 26.4068 55.378 27.2143Z" fill="#FAFAFA"/>
<path d="M69.636 84.1969C68.0313 84.7249 67.0788 86.2675 67.348 87.9447C67.5137 89.0214 68.1348 89.8703 69.0873 90.3569C70.3815 90.9988 71.7584 90.8332 72.7937 89.9014C73.5702 89.1974 73.9015 88.4623 73.9015 87.4167C73.9015 86.4331 73.6116 85.6981 72.9594 85.0458C72.1415 84.2279 70.6714 83.8552 69.636 84.1969ZM71.4685 85.7084C72.0897 86.0293 72.4314 86.547 72.4831 87.251C72.5453 88.1724 72.1518 88.835 71.334 89.1767C69.9466 89.7565 68.373 88.4209 68.7664 86.9818C68.932 86.3399 69.2116 85.9776 69.7292 85.7188C70.2883 85.4496 70.9405 85.4392 71.4685 85.7084Z" fill="#FAFAFA"/>
<path d="M0.59668 87.5742V90.7422L1.24892 90.7112L1.89082 90.6801L1.94258 88.682L1.99435 86.6838L3.49555 88.7027L4.99674 90.7319L5.61793 90.7112L6.23912 90.6801V87.5742V84.4683L5.59722 84.4372L4.94498 84.4062V86.4457V88.4956L3.42307 86.4561L1.89082 84.4165H1.24892H0.59668V87.5742Z" fill="#FAFAFA"/>
<path d="M10.9487 87.5915V90.7492H11.6217H12.2946V87.5915V84.4338H11.6217H10.9487V87.5915Z" fill="#FAFAFA"/>
<path d="M17.0066 84.5686C16.9756 84.641 16.9652 86.049 16.9756 87.6952L17.0066 90.6976L17.6589 90.7286L18.3008 90.7597V88.6684V86.5667L19.8537 88.658L21.4067 90.7494H22.0279H22.6491V87.5917V84.434H21.9761H21.3032L21.2824 86.4218L21.2514 88.4096L19.7605 86.4218L18.2801 84.434H17.6692C17.2654 84.434 17.0377 84.4754 17.0066 84.5686Z" fill="#FAFAFA"/>
<path d="M27.07 84.5063C27.0286 84.5374 26.9976 84.8479 26.9976 85.1792V85.7797H28.0329H29.0682V88.2645V90.7492H29.7411H30.4141V88.2645V85.7797H31.3976H32.3812V85.1068V84.4338H29.7618C28.3124 84.4338 27.1011 84.4649 27.07 84.5063Z" fill="#FAFAFA"/>
<path d="M36.936 87.5915V90.7492H39.369H41.802V90.128V89.5068H39.9902H38.1784V88.7821V88.0574H39.8349H41.4914V87.488V86.9186H39.8349H38.1784V86.2974V85.6762L39.9695 85.6555L41.7502 85.6244L41.7813 85.0239L41.8123 84.4338H39.369H36.936V87.5915Z" fill="#FAFAFA"/>
<path d="M46.927 84.5686C46.896 84.641 46.8856 86.049 46.896 87.6952L46.927 90.6976L47.5793 90.7286L48.2212 90.7597V88.658V86.5667L49.7741 88.658L51.3271 90.7494H51.9483H52.5695V87.5917V84.434H51.8965H51.2236L51.2029 86.4218L51.1718 88.4096L49.681 86.4218L48.2005 84.434H47.5896C47.1859 84.434 46.9581 84.4754 46.927 84.5686Z" fill="#FAFAFA"/>
<path d="M57.8496 87.5812V90.7492H59.2266C60.8209 90.7492 61.5767 90.5939 62.26 90.1177C64.2789 88.7304 63.9683 85.759 61.701 84.7134C61.2765 84.5166 60.9866 84.4856 59.5372 84.4545L57.8496 84.4131V87.5812ZM61.2351 85.9764C62.1047 86.3802 62.4774 87.488 62.0426 88.4094C61.7113 89.0927 61.0384 89.4033 59.8581 89.4033H59.092V87.5915V85.7797H59.9513C60.5621 85.7797 60.9245 85.8418 61.2351 85.9764Z" fill="#FAFAFA"/>
<path d="M54.7218 93.5549C53.2827 93.7413 51.9989 94.4142 50.9429 95.5427C48.6341 98.0274 48.7066 101.806 51.1189 104.208C52.0092 105.109 52.8168 105.575 53.9763 105.865C55.8813 106.351 57.807 105.968 59.3806 104.778C59.9915 104.322 60.7887 103.432 60.7266 103.276C60.7058 103.235 60.2814 102.852 59.7741 102.407L58.863 101.61L58.5835 101.972C57.2479 103.722 54.5458 103.908 52.9824 102.345C52.7547 102.117 52.4441 101.692 52.2888 101.392C52.03 100.895 51.9989 100.74 51.9989 99.8082C51.9989 98.9178 52.03 98.7004 52.2577 98.2552C53.0239 96.6712 54.9185 95.8119 56.5646 96.2881C57.3307 96.5055 58.0555 96.9611 58.511 97.5098L58.863 97.9343L59.3185 97.5616C59.567 97.3648 60.0018 96.9818 60.2814 96.7333L60.799 96.2674L60.3953 95.7705C59.0494 94.1347 56.8752 93.2857 54.7218 93.5549Z" fill="#FAFAFA"/>
<path d="M3.51636 93.9588C1.05233 94.611 -0.221105 96.2572 0.327609 98.1207C0.721027 99.4977 2.02552 100.171 5.4938 100.792C7.82325 101.206 8.50655 101.548 8.50655 102.283C8.50655 102.79 8.20631 103.163 7.55407 103.463C6.995 103.722 6.87076 103.742 5.46274 103.742C3.79589 103.742 3.14365 103.608 1.91163 103.049C1.52857 102.873 1.19727 102.749 1.17656 102.769C1.05233 102.925 0.0687818 104.757 0.0998411 104.778C0.203372 104.892 1.85987 105.492 2.54317 105.678C3.68201 105.979 6.11499 106.051 7.35736 105.823C9.67645 105.389 10.8256 104.322 10.9292 102.531C11.012 101.051 10.5979 100.285 9.32445 99.6219C8.41337 99.1457 7.62654 98.9179 5.61804 98.5141C3.86837 98.1725 3.37142 98.0068 3.00906 97.6652C2.68811 97.365 2.68811 96.8266 3.01941 96.4953C3.76484 95.7499 6.43593 95.7188 8.50655 96.4435C8.8482 96.5574 9.1588 96.6195 9.20021 96.5781C9.27268 96.4953 10.0181 94.7456 10.0181 94.6421C10.0181 94.5489 8.43408 94.083 7.54371 93.9174C6.34276 93.6896 4.4792 93.7103 3.51636 93.9588Z" fill="#FAFAFA"/>
<path d="M12.336 94.031C12.3671 94.1346 13.0918 96.7125 13.9511 99.7563C14.8104 102.8 15.5351 105.378 15.5662 105.471C15.6179 105.637 15.7836 105.658 17.057 105.658H18.4961L18.61 105.264C19.6349 101.558 20.6702 98.0791 20.722 98.2033C20.7531 98.2862 21.2397 99.9841 21.7987 101.982L22.8133 105.606L24.2628 105.637L25.7122 105.668L27.3583 99.8909C28.2591 96.7125 29.0148 94.0517 29.0459 93.9793C29.077 93.8861 28.7871 93.855 27.7828 93.855H26.4887L26.3437 94.3416C26.2609 94.6212 25.764 96.4847 25.236 98.4829C24.6976 100.491 24.2421 102.138 24.2006 102.138C24.1696 102.138 23.683 100.564 23.1239 98.6382C22.5649 96.7228 22.0161 94.8593 21.9023 94.4969L21.7056 93.8447L20.6495 93.8757L19.5935 93.9068L18.3822 98.048C17.7196 100.326 17.1709 102.21 17.1605 102.241C17.1502 102.272 16.6843 100.595 16.1356 98.5139C15.5765 96.433 15.0589 94.5383 14.9967 94.2899L14.8725 93.855H13.5784C12.3878 93.855 12.2842 93.8654 12.336 94.031Z" fill="#FAFAFA"/>
<path d="M31.9678 99.7564V105.658H33.3137H34.6596L34.6389 99.7771L34.6078 93.9069L33.293 93.8758L31.9678 93.8448V99.7564Z" fill="#FAFAFA"/>
<path d="M37.4536 95.1493V96.4434H39.3172H41.1807V101.051V105.658H42.4749H43.769V101.051V96.4434L45.6119 96.4227L47.4443 96.3916V95.1493V93.9069L42.4542 93.8758L37.4536 93.8551V95.1493Z" fill="#FAFAFA"/>
<path d="M63.439 99.7564V105.658H64.6813H65.9237V103.328V100.999H68.6673H71.4108V103.328V105.658H72.6532H73.8956L73.8749 99.7771L73.8438 93.9069L72.6325 93.8758L71.4108 93.8448V96.1846V98.514H68.6673H65.9237V96.1846V93.8551H64.6813H63.439V99.7564Z" fill="#FAFAFA"/>
</svg>
