<svg width="146" height="109" viewBox="0 0 146 109" fill="none" xmlns="http://www.w3.org/2000/svg">
<g clip-path="url(#clip0_9008_117273)">
<path d="M98.7748 47.6953C97.9166 48.1413 97.0315 48.5337 96.1248 48.8703C93.2537 49.939 90.2133 50.481 87.1498 50.4703C75.3248 50.4703 65.0248 42.3453 65.0248 31.8953C65.0402 30.496 65.4281 29.1261 66.1488 27.9265C66.8694 26.7269 67.8966 25.741 69.1248 25.0703C58.4248 25.5203 55.6748 36.6703 55.6748 43.1953C55.6748 61.6953 72.6998 63.5453 76.3748 63.5453C78.3498 63.5453 81.3248 62.9703 83.1248 62.3953L83.4498 62.2953C90.3383 59.9147 96.2107 55.2592 100.1 49.0953C100.213 48.908 100.261 48.6889 100.238 48.4714C100.214 48.2539 100.12 48.0501 99.9699 47.8912C99.8196 47.7323 99.6213 47.6271 99.4054 47.5918C99.1895 47.5564 98.968 47.5928 98.7748 47.6953Z" fill="url(#paint0_linear_9008_117273)"/>
<path opacity="0.35" d="M98.7748 47.6953C97.9166 48.1413 97.0315 48.5337 96.1248 48.8703C93.2537 49.939 90.2133 50.481 87.1498 50.4703C75.3248 50.4703 65.0248 42.3453 65.0248 31.8953C65.0402 30.496 65.4281 29.1261 66.1488 27.9265C66.8694 26.7269 67.8966 25.741 69.1248 25.0703C58.4248 25.5203 55.6748 36.6703 55.6748 43.1953C55.6748 61.6953 72.6998 63.5453 76.3748 63.5453C78.3498 63.5453 81.3248 62.9703 83.1248 62.3953L83.4498 62.2953C90.3383 59.9147 96.2107 55.2592 100.1 49.0953C100.213 48.908 100.261 48.6889 100.238 48.4714C100.214 48.2539 100.12 48.0501 99.9699 47.8912C99.8196 47.7323 99.6213 47.6271 99.4054 47.5918C99.1895 47.5564 98.968 47.5928 98.7748 47.6953Z" fill="url(#paint1_radial_9008_117273)"/>
<path d="M67.4248 60.3953C65.1995 59.0132 63.2706 57.2033 61.7498 55.0703C60.0131 52.6933 58.8177 49.965 58.2474 47.077C57.6771 44.1889 57.7458 41.211 58.4485 38.3523C59.1513 35.4935 60.4712 32.8232 62.3155 30.5288C64.1598 28.2343 66.484 26.3712 69.1248 25.0703C69.9248 24.6953 71.2498 24.0453 73.0248 24.0703C74.2738 24.08 75.5037 24.3784 76.6182 24.9422C77.7328 25.506 78.7019 26.3199 79.4498 27.3203C80.4557 28.673 81.007 30.3097 81.0248 31.9953C81.0248 31.9453 87.1498 12.0953 61.0248 12.0953C50.0498 12.0953 41.0248 22.4953 41.0248 31.6453C40.9811 36.4787 42.0145 41.2612 44.0498 45.6453C47.3829 52.7429 53.2061 58.3696 60.4138 61.4573C67.6216 64.545 75.7122 64.8788 83.1498 62.3953C80.544 63.2183 77.7907 63.4657 75.08 63.1204C72.3693 62.7751 69.7659 61.8453 67.4498 60.3953H67.4248Z" fill="url(#paint2_linear_9008_117273)"/>
<path opacity="0.41" d="M67.4248 60.3953C65.1995 59.0132 63.2706 57.2033 61.7498 55.0703C60.0131 52.6933 58.8177 49.965 58.2474 47.077C57.6771 44.1889 57.7458 41.211 58.4485 38.3523C59.1513 35.4935 60.4712 32.8232 62.3155 30.5288C64.1598 28.2343 66.484 26.3712 69.1248 25.0703C69.9248 24.6953 71.2498 24.0453 73.0248 24.0703C74.2738 24.08 75.5037 24.3784 76.6182 24.9422C77.7328 25.506 78.7019 26.3199 79.4498 27.3203C80.4557 28.673 81.007 30.3097 81.0248 31.9953C81.0248 31.9453 87.1498 12.0953 61.0248 12.0953C50.0498 12.0953 41.0248 22.4953 41.0248 31.6453C40.9811 36.4787 42.0145 41.2612 44.0498 45.6453C47.3829 52.7429 53.2061 58.3696 60.4138 61.4573C67.6216 64.545 75.7122 64.8788 83.1498 62.3953C80.544 63.2183 77.7907 63.4657 75.08 63.1204C72.3693 62.7751 69.7659 61.8453 67.4498 60.3953H67.4248Z" fill="url(#paint3_radial_9008_117273)"/>
<path d="M79.1 37.2703C78.875 37.5203 78.25 37.8953 78.25 38.6703C78.25 39.3203 78.675 39.9703 79.45 40.4953C83.025 42.9953 89.8 42.6453 89.825 42.6453C92.4901 42.6436 95.106 41.927 97.4 40.5703C99.7095 39.2195 101.626 37.2884 102.959 34.9686C104.292 32.6488 104.996 30.0209 105 27.3453C105.075 21.7453 103 18.0203 102.175 16.3703C96.85 6.02031 85.425 0.0703127 73 0.0703127C64.5905 0.0694811 56.5186 3.37906 50.5302 9.28324C44.5418 15.1874 41.1183 23.2116 41 31.6203C41.125 22.4953 50.2 15.1203 61 15.1203C61.875 15.1203 66.875 15.1953 71.5 17.6203C74.7493 19.2349 77.44 21.7864 79.225 24.9453C80.75 27.5953 81.025 30.9703 81.025 32.3203C81.025 33.6703 80.35 35.6453 79.075 37.2953L79.1 37.2703Z" fill="url(#paint4_radial_9008_117273)"/>
<path d="M79.1 37.2703C78.875 37.5203 78.25 37.8953 78.25 38.6703C78.25 39.3203 78.675 39.9703 79.45 40.4953C83.025 42.9953 89.8 42.6453 89.825 42.6453C92.4901 42.6436 95.106 41.927 97.4 40.5703C99.7095 39.2195 101.626 37.2884 102.959 34.9686C104.292 32.6488 104.996 30.0209 105 27.3453C105.075 21.7453 103 18.0203 102.175 16.3703C96.85 6.02031 85.425 0.0703127 73 0.0703127C64.5905 0.0694811 56.5186 3.37906 50.5302 9.28324C44.5418 15.1874 41.1183 23.2116 41 31.6203C41.125 22.4953 50.2 15.1203 61 15.1203C61.875 15.1203 66.875 15.1953 71.5 17.6203C74.7493 19.2349 77.44 21.7864 79.225 24.9453C80.75 27.5953 81.025 30.9703 81.025 32.3203C81.025 33.6703 80.35 35.6453 79.075 37.2953L79.1 37.2703Z" fill="url(#paint5_radial_9008_117273)"/>
</g>
<path d="M4.4503 89.7923C4.75458 90.3179 5.09349 90.9611 5.46693 91.7218C5.84037 92.4825 6.22071 93.2847 6.60794 94.1284C6.99525 94.9583 7.37558 95.8089 7.74903 96.6803C8.13633 97.5378 8.48902 98.3331 8.80717 99.0661C9.12524 98.3331 9.47103 97.5378 9.84448 96.6803C10.2179 95.8089 10.5983 94.9583 10.9856 94.1284C11.3729 93.2847 11.7532 92.4825 12.1267 91.7218C12.5001 90.9611 12.8389 90.3179 13.1432 89.7923H15.5084C15.6329 90.8435 15.7504 91.9638 15.8611 93.1533C15.9718 94.3289 16.0686 95.5392 16.1515 96.7841C16.2483 98.015 16.3313 99.2598 16.4005 100.518C16.4835 101.763 16.5527 102.98 16.608 104.17H14.0354C13.98 102.496 13.9109 100.774 13.8279 99.004C13.7587 97.2335 13.6481 95.5184 13.496 93.8587C13.3438 94.1768 13.164 94.5572 12.9565 94.9998C12.7491 95.4424 12.5277 95.9265 12.2926 96.452C12.0575 96.9638 11.8155 97.4963 11.5665 98.0496C11.3314 98.6028 11.0962 99.1423 10.8611 99.6678C10.6398 100.18 10.4323 100.664 10.2387 101.12C10.0451 101.563 9.8791 101.943 9.74078 102.261H7.79054C7.65222 101.943 7.48626 101.556 7.29264 101.099C7.09895 100.643 6.88458 100.159 6.64945 99.6471C6.42819 99.1215 6.19306 98.5821 5.94408 98.0288C5.70895 97.4756 5.47383 96.943 5.2387 96.4313C5.00357 95.9196 4.78223 95.4424 4.57476 94.9998C4.36728 94.5434 4.18753 94.163 4.03535 93.8587C3.88324 95.5184 3.76568 97.2335 3.68266 99.004C3.6135 100.774 3.55123 102.496 3.49594 104.17H0.92334C0.978636 102.98 1.0409 101.749 1.11006 100.477C1.19301 99.2045 1.27603 97.9458 1.35905 96.701C1.45586 95.4424 1.55956 94.2252 1.67023 93.0496C1.7809 91.8739 1.89846 90.7882 2.02292 89.7923H4.4503ZM22.0601 104.17H19.5497V93.3193H22.0601V104.17ZM22.3297 90.145C22.3297 90.6153 22.1776 90.9887 21.8733 91.2653C21.569 91.542 21.2094 91.6803 20.7944 91.6803C20.3657 91.6803 19.9991 91.542 19.6949 91.2653C19.3906 90.9887 19.2385 90.6153 19.2385 90.145C19.2385 89.6609 19.3906 89.2806 19.6949 89.0039C19.9991 88.7273 20.3657 88.589 20.7944 88.589C21.2094 88.589 21.569 88.7273 21.8733 89.0039C22.1776 89.2806 22.3297 89.6609 22.3297 90.145ZM24.661 98.755C24.661 97.9528 24.7854 97.2059 25.0344 96.5143C25.2834 95.8089 25.6361 95.2004 26.0925 94.6886C26.5628 94.1768 27.1299 93.7757 27.7938 93.4852C28.4577 93.1948 29.2046 93.0496 30.0344 93.0496C31.0579 93.0496 32.0262 93.2363 32.9389 93.6098L32.3996 95.6637C32.1091 95.5392 31.7772 95.4355 31.4037 95.3525C31.0442 95.2695 30.6569 95.228 30.2419 95.228C29.2599 95.228 28.513 95.5392 28.0012 96.1616C27.4895 96.7702 27.2336 97.6346 27.2336 98.755C27.2336 99.8338 27.4757 100.691 27.9597 101.328C28.4438 101.95 29.2599 102.261 30.4079 102.261C30.8367 102.261 31.2585 102.22 31.6735 102.137C32.0884 102.054 32.448 101.95 32.7521 101.826L33.1051 103.9C32.8287 104.038 32.4065 104.163 31.8394 104.274C31.2862 104.384 30.7121 104.44 30.1174 104.44C29.1907 104.44 28.3816 104.301 27.6901 104.025C27.0123 103.734 26.4453 103.34 25.9888 102.842C25.5462 102.33 25.2143 101.729 24.9929 101.037C24.7717 100.332 24.661 99.571 24.661 98.755ZM41.2311 95.5807C41.0236 95.5115 40.7333 95.4424 40.3596 95.3732C40.0004 95.2903 39.5784 95.2488 39.0943 95.2488C38.8178 95.2488 38.5199 95.2764 38.2021 95.3317C37.898 95.3871 37.6836 95.4355 37.5587 95.477V104.17H35.0482V93.8379C35.533 93.6582 36.1342 93.4922 36.8534 93.34C37.5863 93.1741 38.3959 93.091 39.2812 93.091C39.4466 93.091 39.6404 93.1049 39.8617 93.1326C40.0831 93.1464 40.3044 93.1741 40.5258 93.2156C40.7471 93.2432 40.9616 93.2847 41.1691 93.34C41.3767 93.3815 41.5421 93.4231 41.6669 93.4645L41.2311 95.5807ZM53.2294 98.7342C53.2294 99.5918 53.1046 100.373 52.8557 101.079C52.6068 101.784 52.2545 102.386 51.798 102.884C51.3415 103.382 50.7886 103.769 50.1383 104.045C49.5019 104.322 48.7965 104.46 48.0222 104.46C47.2471 104.46 46.5418 104.322 45.9061 104.045C45.2696 103.769 44.7236 103.382 44.2671 102.884C43.8106 102.386 43.4507 101.784 43.188 101.079C42.9391 100.373 42.8142 99.5918 42.8142 98.7342C42.8142 97.8767 42.9391 97.1021 43.188 96.4106C43.4507 95.7052 43.8106 95.1036 44.2671 94.6056C44.7374 94.1077 45.2903 93.7273 45.9268 93.4645C46.5624 93.1879 47.2609 93.0496 48.0222 93.0496C48.7827 93.0496 49.4812 93.1879 50.1177 93.4645C50.7671 93.7273 51.3209 94.1077 51.7773 94.6056C52.2338 95.1036 52.5861 95.7052 52.835 96.4106C53.0977 97.1021 53.2294 97.8767 53.2294 98.7342ZM50.6568 98.7342C50.6568 97.6554 50.4217 96.8047 49.9515 96.1824C49.495 95.5462 48.8517 95.228 48.0222 95.228C47.192 95.228 46.5418 95.5462 46.0715 96.1824C45.615 96.8047 45.3868 97.6554 45.3868 98.7342C45.3868 99.8269 45.615 100.691 46.0715 101.328C46.5418 101.964 47.192 102.282 48.0222 102.282C48.8517 102.282 49.495 101.964 49.9515 101.328C50.4217 100.691 50.6568 99.8269 50.6568 98.7342ZM58.5332 102.365C59.1972 102.365 59.6812 102.289 59.986 102.137C60.2901 101.971 60.4425 101.694 60.4425 101.307C60.4425 100.947 60.2763 100.65 59.9439 100.415C59.6261 100.18 59.0938 99.9237 58.3471 99.6471C57.8906 99.4811 57.4686 99.3082 57.0811 99.1284C56.7081 98.9348 56.3826 98.7135 56.1061 98.4646C55.8296 98.2156 55.6083 97.9182 55.4421 97.5724C55.2904 97.2128 55.2138 96.7771 55.2138 96.2653C55.2138 95.2695 55.5807 94.488 56.3136 93.921C57.0466 93.34 58.0422 93.0496 59.3013 93.0496C59.937 93.0496 60.5459 93.1118 61.1272 93.2363C61.7077 93.3469 62.1435 93.4576 62.4338 93.5683L61.9773 95.6015C61.7009 95.477 61.3486 95.3663 60.9197 95.2695C60.4908 95.1589 59.9929 95.1036 59.4254 95.1036C58.9138 95.1036 58.4987 95.1934 58.1809 95.3732C57.863 95.5392 57.7037 95.802 57.7037 96.1616C57.7037 96.3414 57.7313 96.5004 57.7864 96.6388C57.8561 96.7771 57.9664 96.9085 58.1188 97.033C58.2705 97.1436 58.4711 97.2612 58.72 97.3857C58.969 97.4963 59.2738 97.6139 59.633 97.7383C60.2281 97.9597 60.7328 98.1809 61.1479 98.4023C61.5622 98.6098 61.9015 98.8518 62.1642 99.1284C62.4407 99.3912 62.6414 99.6955 62.7662 100.041C62.8903 100.387 62.9523 100.802 62.9523 101.286C62.9523 102.323 62.5655 103.112 61.7905 103.651C61.0299 104.177 59.937 104.44 58.5125 104.44C57.5582 104.44 56.7908 104.357 56.2095 104.191C55.6289 104.038 55.2207 103.914 54.9856 103.817L55.4214 101.722C55.7951 101.874 56.2378 102.019 56.7494 102.157C57.2748 102.296 57.8699 102.365 58.5332 102.365ZM75.1107 98.7342C75.1107 99.5918 74.9866 100.373 74.7377 101.079C74.4888 101.784 74.1357 102.386 73.6792 102.884C73.2228 103.382 72.6698 103.769 72.0196 104.045C71.3831 104.322 70.6777 104.46 69.9034 104.46C69.1291 104.46 68.4238 104.322 67.7873 104.045C67.1509 103.769 66.6048 103.382 66.1483 102.884C65.6919 102.386 65.3319 101.784 65.0692 101.079C64.8203 100.373 64.6962 99.5918 64.6962 98.7342C64.6962 97.8767 64.8203 97.1021 65.0692 96.4106C65.3319 95.7052 65.6919 95.1036 66.1483 94.6056C66.6186 94.1077 67.1715 93.7273 67.808 93.4645C68.4444 93.1879 69.1429 93.0496 69.9034 93.0496C70.664 93.0496 71.3624 93.1879 71.9989 93.4645C72.6491 93.7273 73.2021 94.1077 73.6586 94.6056C74.115 95.1036 74.4681 95.7052 74.717 96.4106C74.9797 97.1021 75.1107 97.8767 75.1107 98.7342ZM72.5381 98.7342C72.5381 97.6554 72.3029 96.8047 71.8327 96.1824C71.3762 95.5462 70.7337 95.228 69.9034 95.228C69.0732 95.228 68.4238 95.5462 67.9535 96.1824C67.497 96.8047 67.2688 97.6554 67.2688 98.7342C67.2688 99.8269 67.497 100.691 67.9535 101.328C68.4238 101.964 69.0732 102.282 69.9034 102.282C70.7337 102.282 71.3762 101.964 71.8327 101.328C72.3029 100.691 72.5381 99.8269 72.5381 98.7342ZM82.1162 88.0703C82.6975 88.0703 83.2091 88.1257 83.6518 88.2363C84.0945 88.3331 84.4261 88.423 84.6474 88.506L84.1703 90.5807C83.9352 90.47 83.6587 90.3801 83.3401 90.311C83.036 90.2418 82.7044 90.2073 82.3444 90.2073C81.9431 90.2073 81.6046 90.2695 81.3281 90.394C81.0508 90.5047 80.8303 90.6637 80.6641 90.8711C80.4979 91.0786 80.3807 91.3345 80.311 91.6388C80.2421 91.9293 80.2076 92.2474 80.2076 92.5931V93.3193H84.1496V95.4147H80.2076V104.17H77.6971V92.5516C77.6971 91.1547 78.0639 90.0621 78.7969 89.2737C79.5298 88.4714 80.6365 88.0703 82.1162 88.0703ZM85.8797 90.4562L88.3895 90.0413V93.3193H92.2488V95.4147H88.3895V99.8338C88.3895 100.705 88.5282 101.328 88.8046 101.701C89.0811 102.074 89.5514 102.261 90.2154 102.261C90.6719 102.261 91.0732 102.213 91.4186 102.116C91.7785 102.019 92.0619 101.929 92.2695 101.846L92.6846 103.838C92.3943 103.962 92.0137 104.087 91.5434 104.211C91.0732 104.35 90.5202 104.419 89.8838 104.419C89.1095 104.419 88.4592 104.315 87.9338 104.108C87.4214 103.9 87.014 103.603 86.7092 103.216C86.4051 102.814 86.1907 102.337 86.0666 101.784C85.9418 101.217 85.8797 100.574 85.8797 99.8545V90.4562ZM99.6426 104.17V89.7923H108.875V92.0122H102.257V95.5599H108.148V97.7383H102.257V101.95H109.372V104.17H99.6426ZM113.341 98.7135C113.341 99.82 113.604 100.691 114.129 101.328C114.655 101.95 115.381 102.261 116.308 102.261C116.71 102.261 117.048 102.247 117.325 102.22C117.615 102.178 117.85 102.137 118.03 102.095V95.8711C117.809 95.719 117.511 95.5807 117.138 95.4562C116.778 95.3179 116.391 95.2488 115.976 95.2488C115.063 95.2488 114.393 95.5599 113.964 96.1824C113.549 96.8047 113.341 97.6485 113.341 98.7135ZM120.54 103.838C120.043 103.99 119.413 104.128 118.653 104.253C117.906 104.377 117.117 104.44 116.288 104.44C115.43 104.44 114.662 104.308 113.985 104.045C113.307 103.783 112.725 103.409 112.241 102.925C111.771 102.427 111.405 101.832 111.142 101.141C110.893 100.435 110.769 99.6471 110.769 98.7757C110.769 97.9182 110.873 97.1436 111.08 96.452C111.301 95.7467 111.619 95.145 112.035 94.6471C112.449 94.1492 112.954 93.7688 113.549 93.506C114.144 93.2294 114.828 93.091 115.603 93.091C116.128 93.091 116.592 93.1533 116.993 93.2778C117.393 93.4023 117.74 93.5406 118.03 93.6927V88.4853L120.54 88.0703V103.838ZM125.7 98.4646C125.7 99.5295 125.928 100.311 126.385 100.809C126.855 101.293 127.457 101.535 128.19 101.535C128.591 101.535 128.964 101.48 129.31 101.369C129.67 101.258 129.96 101.127 130.181 100.975V95.3525C130.001 95.311 129.781 95.2764 129.517 95.2488C129.255 95.2073 128.923 95.1865 128.522 95.1865C127.609 95.1865 126.91 95.4908 126.426 96.0994C125.942 96.6941 125.7 97.4825 125.7 98.4646ZM132.692 103.07C132.692 104.799 132.249 106.065 131.364 106.867C130.493 107.669 129.151 108.07 127.339 108.07C126.675 108.07 126.025 108.015 125.389 107.904C124.767 107.794 124.2 107.648 123.687 107.469L124.144 105.332C124.573 105.511 125.057 105.657 125.597 105.767C126.15 105.878 126.745 105.933 127.381 105.933C128.391 105.933 129.11 105.726 129.538 105.311C129.967 104.896 130.181 104.281 130.181 103.465V103.05C129.932 103.174 129.601 103.299 129.186 103.423C128.784 103.547 128.321 103.61 127.796 103.61C127.104 103.61 126.468 103.499 125.887 103.278C125.32 103.056 124.829 102.731 124.414 102.303C124.013 101.874 123.694 101.341 123.459 100.705C123.238 100.055 123.128 99.3082 123.128 98.4646C123.128 97.6762 123.246 96.95 123.481 96.2861C123.73 95.6222 124.082 95.0551 124.538 94.5848C125.009 94.1146 125.575 93.748 126.239 93.4852C126.903 93.2225 127.657 93.091 128.501 93.091C129.317 93.091 130.092 93.1533 130.825 93.2778C131.558 93.4023 132.18 93.5337 132.692 93.672V103.07ZM135.284 98.7965C135.284 97.8421 135.422 97.0053 135.699 96.2861C135.989 95.5668 136.37 94.9721 136.84 94.5019C137.31 94.0178 137.849 93.6582 138.458 93.4231C139.067 93.1741 139.689 93.0496 140.325 93.0496C141.819 93.0496 142.981 93.5129 143.811 94.4396C144.655 95.3663 145.076 96.7494 145.076 98.589C145.076 98.7273 145.069 98.8864 145.056 99.0661C145.056 99.2321 145.049 99.3843 145.035 99.5226H137.878C137.947 100.394 138.251 101.072 138.79 101.556C139.344 102.026 140.139 102.261 141.176 102.261C141.784 102.261 142.338 102.206 142.836 102.095C143.348 101.985 143.749 101.867 144.039 101.743L144.371 103.796C144.233 103.866 144.039 103.942 143.79 104.025C143.555 104.094 143.279 104.156 142.96 104.211C142.656 104.281 142.324 104.336 141.964 104.377C141.605 104.419 141.238 104.44 140.865 104.44C139.91 104.44 139.081 104.301 138.376 104.025C137.67 103.734 137.089 103.34 136.632 102.842C136.176 102.33 135.837 101.736 135.616 101.058C135.395 100.366 135.284 99.6125 135.284 98.7965ZM142.566 97.6762C142.566 97.3304 142.517 97.0053 142.421 96.701C142.324 96.3829 142.179 96.1132 141.985 95.8919C141.805 95.6568 141.577 95.477 141.3 95.3525C141.038 95.2141 140.72 95.145 140.346 95.145C139.959 95.145 139.62 95.2211 139.33 95.3732C139.04 95.5115 138.79 95.6983 138.583 95.9334C138.389 96.1685 138.237 96.4383 138.127 96.7425C138.016 97.0468 137.94 97.358 137.898 97.6762H142.566Z" fill="#FAFAFA"/>
<defs>
<linearGradient id="paint0_linear_9008_117273" x1="55.6748" y1="44.3203" x2="100.275" y2="44.3203" gradientUnits="userSpaceOnUse">
<stop stop-color="#0C59A4"/>
<stop offset="1" stop-color="#114A8B"/>
</linearGradient>
<radialGradient id="paint1_radial_9008_117273" cx="0" cy="0" r="1" gradientUnits="userSpaceOnUse" gradientTransform="translate(80.2998 44.6566) scale(23.85 22.6575)">
<stop offset="0.7" stop-opacity="0"/>
<stop offset="0.9" stop-opacity="0.5"/>
<stop offset="1"/>
</radialGradient>
<linearGradient id="paint2_linear_9008_117273" x1="79.1748" y1="24.9703" x2="51.3498" y2="55.2953" gradientUnits="userSpaceOnUse">
<stop stop-color="#1B9DE2"/>
<stop offset="0.2" stop-color="#1595DF"/>
<stop offset="0.7" stop-color="#0680D7"/>
<stop offset="1" stop-color="#0078D4"/>
</linearGradient>
<radialGradient id="paint3_radial_9008_117273" cx="0" cy="0" r="1" gradientUnits="userSpaceOnUse" gradientTransform="translate(58.6385 49.8046) rotate(-81.3844) scale(35.8465 28.9604)">
<stop offset="0.8" stop-opacity="0"/>
<stop offset="0.9" stop-opacity="0.5"/>
<stop offset="1"/>
</radialGradient>
<radialGradient id="paint4_radial_9008_117273" cx="0" cy="0" r="1" gradientUnits="userSpaceOnUse" gradientTransform="translate(47.4725 11.8993) rotate(92.2906) scale(50.6405 107.854)">
<stop stop-color="#35C1F1"/>
<stop offset="0.1" stop-color="#34C1ED"/>
<stop offset="0.2" stop-color="#2FC2DF"/>
<stop offset="0.3" stop-color="#2BC3D2"/>
<stop offset="0.7" stop-color="#36C752"/>
</radialGradient>
<radialGradient id="paint5_radial_9008_117273" cx="0" cy="0" r="1" gradientUnits="userSpaceOnUse" gradientTransform="translate(101.015 19.3953) rotate(73.7398) scale(24.325 19.7811)">
<stop stop-color="#66EB6E"/>
<stop offset="1" stop-color="#66EB6E" stop-opacity="0"/>
</radialGradient>
<clipPath id="clip0_9008_117273">
<rect width="64" height="64" fill="white" transform="translate(41 0.0703125)"/>
</clipPath>
</defs>
</svg>
