<svg width="66" height="106" viewBox="0 0 66 106" fill="none" xmlns="http://www.w3.org/2000/svg">
<mask id="mask0_9008_117313" style="mask-type:luminance" maskUnits="userSpaceOnUse" x="2" y="0" width="62" height="61">
<path d="M63.75 0.570312H2.25V60.5703H63.75V0.570312Z" fill="white"/>
</mask>
<g mask="url(#mask0_9008_117313)">
<path d="M22.3752 47.4767C19.0587 43.5616 16.9101 37.7728 16.763 31.2771V29.8635C16.9094 23.368 19.058 17.5797 22.3752 13.6639C26.6782 8.07423 33.077 4.5316 40.2204 4.5316C44.6146 4.5316 48.7266 5.87343 52.2431 8.20707C46.9639 3.48308 40.0003 0.600164 32.3627 0.572551L32.2507 0.570312C15.6809 0.570312 2.25 14.002 2.25 30.5712C2.25 46.6587 14.916 59.7883 30.8215 60.5345C31.2956 60.5569 31.7717 60.5703 32.2507 60.5703C39.9315 60.5703 46.9362 57.6822 52.2438 52.9358C48.7273 55.268 44.6168 56.6097 40.2211 56.6097C33.077 56.6097 26.6791 53.0656 22.3752 47.4767Z" fill="url(#paint0_linear_9008_117313)"/>
<path d="M22.375 13.6645C25.1274 10.4152 28.6842 8.45542 32.5693 8.45542C41.3011 8.45542 48.3818 18.3571 48.3818 30.5709C48.3818 42.7846 41.3025 52.6864 32.5678 52.6864C28.6842 52.6864 25.1274 50.7267 22.3758 47.4772C26.6797 53.067 33.0777 56.6096 40.2219 56.6096C44.6175 56.6096 48.7279 55.2686 52.2446 52.9363C58.3865 47.4437 62.2523 39.4585 62.2523 30.5702C62.2523 21.6841 58.3865 13.7011 52.2468 8.20765C48.7287 5.87402 44.6168 4.53143 40.2212 4.53143C33.077 4.53143 26.679 8.0763 22.375 13.6645Z" fill="url(#paint1_linear_9008_117313)"/>
</g>
<path d="M3.65478 93.0737C3.65478 93.9663 3.76438 94.7806 3.98368 95.5167C4.2029 96.237 4.51611 96.8555 4.92323 97.3724C5.34605 97.8735 5.85506 98.265 6.45009 98.5468C7.04521 98.8287 7.71855 98.9696 8.47027 98.9696C9.20622 98.9696 9.87184 98.8287 10.4669 98.5468C11.062 98.265 11.5631 97.8735 11.9702 97.3724C12.393 96.8555 12.7141 96.237 12.9333 95.5167C13.1526 94.7806 13.2622 93.9663 13.2622 93.0737C13.2622 92.181 13.1526 91.3746 12.9333 90.6543C12.7141 89.9182 12.393 89.2996 11.9702 88.7985C11.5631 88.2818 11.062 87.8824 10.4669 87.6005C9.87184 87.3186 9.20622 87.1777 8.47027 87.1777C7.71855 87.1777 7.04521 87.3186 6.45009 87.6005C5.85506 87.8824 5.34605 88.2818 4.92323 88.7985C4.51611 89.3153 4.2029 89.9338 3.98368 90.6543C3.76438 91.3746 3.65478 92.181 3.65478 93.0737ZM16.3628 93.0737C16.3628 94.4674 16.1514 95.6967 15.7286 96.7616C15.3215 97.8265 14.7577 98.7191 14.0373 99.4394C13.3327 100.144 12.5027 100.677 11.5474 101.037C10.5922 101.397 9.57423 101.577 8.49369 101.577C7.41323 101.577 6.38749 101.397 5.41655 101.037C4.46131 100.677 3.62347 100.144 2.90314 99.4394C2.19841 98.7191 1.63468 97.8265 1.21186 96.7616C0.789045 95.6967 0.577637 94.4674 0.577637 93.0737C0.577637 91.6799 0.789045 90.4585 1.21186 89.4093C1.63468 88.3444 2.2063 87.4517 2.92664 86.7314C3.66267 86.0111 4.5083 85.4708 5.46355 85.1106C6.41879 84.7504 7.42884 84.5703 8.49369 84.5703C9.55862 84.5703 10.5687 84.7504 11.5239 85.1106C12.4792 85.4708 13.3092 86.0111 14.0138 86.7314C14.7342 87.4517 15.3058 88.3444 15.7286 89.4093C16.1514 90.4585 16.3628 91.6799 16.3628 93.0737ZM27.6198 95.1408C27.6198 93.8723 27.3301 92.8858 26.7507 92.181C26.1869 91.4764 25.2708 91.124 24.0023 91.124C23.7361 91.124 23.4543 91.1397 23.1567 91.171C22.8749 91.1867 22.593 91.2337 22.3111 91.312V98.3354C22.5617 98.5077 22.8905 98.6721 23.2977 98.8287C23.7205 98.9696 24.1668 99.0401 24.6366 99.0401C25.6702 99.0401 26.4218 98.6878 26.8917 97.9831C27.3771 97.2784 27.6198 96.3309 27.6198 95.1408ZM30.5326 95.0939C30.5326 96.0334 30.4073 96.8947 30.1567 97.6777C29.9218 98.4607 29.5773 99.1341 29.1232 99.6979C28.669 100.262 28.0974 100.7 27.4084 101.013C26.7351 101.327 25.9677 101.483 25.1064 101.483C24.527 101.483 23.9945 101.413 23.5091 101.272C23.0236 101.131 22.6243 100.974 22.3111 100.802V105.57H19.4688V89.3388C20.0483 89.1822 20.7608 89.0334 21.6064 88.8925C22.4521 88.7516 23.3447 88.6811 24.2842 88.6811C25.2552 88.6811 26.1243 88.8299 26.8917 89.1274C27.659 89.4249 28.3088 89.8555 28.8413 90.4194C29.3894 90.9675 29.8044 91.6408 30.0863 92.4394C30.3838 93.2225 30.5326 94.1072 30.5326 95.0939ZM32.7807 95.1408C32.7807 94.0603 32.9372 93.1129 33.2504 92.2985C33.5793 91.4842 34.0099 90.8109 34.5424 90.2784C35.0748 89.7303 35.6855 89.3231 36.3746 89.0569C37.0637 88.7751 37.7683 88.6341 38.4887 88.6341C40.18 88.6341 41.4955 89.1587 42.4347 90.2079C43.3902 91.2571 43.868 92.8232 43.868 94.9059C43.868 95.0625 43.8602 95.2426 43.8446 95.4462C43.8446 95.6341 43.8368 95.8064 43.8212 95.963H35.7169C35.7952 96.9495 36.1397 97.7169 36.7505 98.265C37.3768 98.7974 38.2773 99.0636 39.4518 99.0636C40.1408 99.0636 40.7672 99.001 41.3308 98.8757C41.91 98.7504 42.3644 98.6173 42.6931 98.4764L43.0694 100.802C42.9124 100.88 42.6931 100.966 42.4112 101.06C42.145 101.139 41.832 101.209 41.4721 101.272C41.127 101.35 40.7515 101.413 40.3444 101.46C39.9372 101.507 39.5223 101.53 39.0995 101.53C38.0189 101.53 37.0793 101.373 36.2806 101.06C35.482 100.731 34.8243 100.285 34.3075 99.7214C33.7907 99.1419 33.407 98.4685 33.1565 97.7012C32.9059 96.9182 32.7807 96.0647 32.7807 95.1408ZM41.0255 93.8723C41.0255 93.4809 40.9709 93.1129 40.8611 92.7684C40.7515 92.4081 40.5871 92.1027 40.3679 91.8522C40.1643 91.586 39.9059 91.3824 39.5927 91.2415C39.2952 91.0849 38.935 91.0066 38.5121 91.0066C38.0737 91.0066 37.69 91.0927 37.3612 91.265C37.0323 91.4216 36.7505 91.633 36.5155 91.8992C36.2963 92.1654 36.124 92.4708 35.9987 92.8153C35.8735 93.1598 35.7873 93.5122 35.7404 93.8723H41.0255ZM53.8818 91.4999C53.6468 91.4216 53.3173 91.3433 52.895 91.265C52.4874 91.171 52.0096 91.124 51.4616 91.124C51.1486 91.124 50.8121 91.1554 50.4522 91.218C50.1071 91.2806 49.8643 91.3354 49.7238 91.3824V101.225H46.8814V89.5267C47.4294 89.3231 48.111 89.1352 48.9252 88.963C49.7551 88.7751 50.6708 88.6811 51.6732 88.6811C51.8613 88.6811 52.0807 88.6968 52.3313 88.7281C52.5819 88.7437 52.8325 88.7751 53.0823 88.822C53.3329 88.8534 53.5757 88.9003 53.8107 88.963C54.0457 89.0099 54.2338 89.0569 54.3743 89.1039L53.8818 91.4999ZM60.6776 99.228C61.5543 99.228 62.2202 99.181 62.6737 99.0871V95.9395C62.5176 95.8925 62.2905 95.8455 61.993 95.7985C61.6956 95.7516 61.3661 95.7281 61.0062 95.7281C60.6932 95.7281 60.3723 95.7516 60.0428 95.7985C59.7298 95.8455 59.4402 95.9316 59.174 96.0569C58.9234 96.1822 58.7196 96.3623 58.5635 96.5972C58.4065 96.8164 58.3285 97.0983 58.3285 97.4429C58.3285 98.1162 58.5401 98.586 58.9624 98.8522C59.3855 99.1027 59.957 99.228 60.6776 99.228ZM60.4426 88.6341C61.3826 88.6341 62.1734 88.7516 62.8151 88.9865C63.4568 89.2213 63.9658 89.5502 64.3421 89.973C64.7332 90.3959 65.0072 90.9126 65.1642 91.5234C65.3359 92.1184 65.4226 92.7762 65.4226 93.4965V100.943C64.9838 101.037 64.3187 101.146 63.4255 101.272C62.5489 101.413 61.5543 101.483 60.4426 101.483C59.7064 101.483 59.0335 101.413 58.4221 101.272C57.8117 101.131 57.2871 100.904 56.8483 100.59C56.426 100.277 56.0895 99.8701 55.8389 99.3689C55.6039 98.8678 55.486 98.2493 55.486 97.5133C55.486 96.8086 55.6195 96.2135 55.8858 95.7281C56.1676 95.2426 56.543 94.8511 57.013 94.5535C57.483 94.2403 58.0233 94.0211 58.6337 93.8958C59.2607 93.7549 59.9102 93.6844 60.5839 93.6844C60.897 93.6844 61.2256 93.7079 61.5699 93.7549C61.915 93.7862 62.2827 93.8489 62.6737 93.9428V93.473C62.6737 93.1442 62.6347 92.831 62.5567 92.5334C62.4786 92.2359 62.3373 91.9775 62.1335 91.7582C61.9462 91.5234 61.6878 91.3433 61.3583 91.218C61.0452 91.0927 60.6464 91.0301 60.1608 91.0301C59.5026 91.0301 58.8999 91.0771 58.3519 91.171C57.8039 91.265 57.3573 91.3746 57.013 91.4999L56.661 89.1979C57.0208 89.0726 57.5455 88.9473 58.2348 88.822C58.9234 88.6968 59.6595 88.6341 60.4426 88.6341Z" fill="#FAFAFA"/>
<defs>
<linearGradient id="paint0_linear_9008_117313" x1="27.2477" y1="1.5487" x2="27.2477" y2="59.6972" gradientUnits="userSpaceOnUse">
<stop offset="0.3" stop-color="#FF1B2D"/>
<stop offset="0.438" stop-color="#FA1A2C"/>
<stop offset="0.594" stop-color="#ED1528"/>
<stop offset="0.758" stop-color="#D60E21"/>
<stop offset="0.927" stop-color="#B70519"/>
<stop offset="1" stop-color="#A70014"/>
</linearGradient>
<linearGradient id="paint1_linear_9008_117313" x1="42.3122" y1="4.97549" x2="42.3122" y2="56.4051" gradientUnits="userSpaceOnUse">
<stop stop-color="#9C0000"/>
<stop offset="0.7" stop-color="#FF4B4B"/>
</linearGradient>
</defs>
</svg>
