<svg width="90" height="107" viewBox="0 0 90 107" fill="none" xmlns="http://www.w3.org/2000/svg">
<path fill-rule="evenodd" clip-rule="evenodd" d="M64.5984 34.6804H59.0385C57.3706 34.6804 55.8416 33.8464 55.8416 32.1785C55.8416 32.1785 54.8687 12.441 54.8687 0.487301V0.0703125H67.7953V32.1785C67.7953 33.9854 66.2663 34.6804 64.5984 34.6804Z" fill="#60A3E5"/>
<path fill-rule="evenodd" clip-rule="evenodd" d="M55.8417 32.1785C55.8417 38.1553 50.9768 42.8812 45 42.8812C39.0231 42.8812 34.1583 37.5994 34.1583 32.0395H22.2046C22.2046 43.1592 32.3513 54.8349 45 54.8349C57.5096 54.8349 67.6564 44.6882 67.7954 32.1785V31.9005L55.8417 31.0665V32.1785Z" fill="url(#paint0_linear_9008_117267)"/>
<path fill-rule="evenodd" clip-rule="evenodd" d="M45 9.38306C32.3513 9.38306 22.2046 19.5298 22.2046 32.0395V64.0086H34.7143C34.7143 52.0549 34.0193 32.1784 34.0193 32.1784L34.1583 32.0395C34.1583 26.4796 39.0231 21.3367 45 21.3367C50.9768 21.3367 55.8417 26.4796 55.8417 32.0395H67.7954C67.6564 19.5298 57.5096 9.38306 45 9.38306Z" fill="url(#paint1_linear_9008_117267)"/>
<path d="M6.91348 88.1432H0.62207V105.8H3.1251V99.3054H6.98113C10.2283 99.3054 12.5284 97.0729 12.5284 93.6904C12.5284 90.308 10.1607 88.1432 6.91348 88.1432ZM6.57524 97.1406H3.1251V90.308H6.57524C8.67237 90.308 9.95772 91.5933 9.95772 93.6904C9.95772 95.7876 8.67237 97.1406 6.57524 97.1406ZM16.7903 96.3288C16.7227 96.3288 16.7903 95.9229 16.7903 95.3817V93.0816H14.4226V105.732H16.858V100.455C16.858 98.02 18.008 95.314 20.714 95.314C20.9846 95.314 21.3229 95.314 21.3905 95.3817V93.0139C21.1876 93.0139 20.9846 92.9463 20.714 92.9463C18.8198 93.0139 17.3315 94.5022 16.7903 96.3288ZM28.832 92.811C25.1112 92.811 22.067 95.5846 22.067 99.4407C22.067 103.297 25.1112 106.07 28.8996 106.07C32.6203 106.07 35.6646 103.297 35.6646 99.4407C35.6646 95.5846 32.6203 92.811 28.832 92.811ZM28.8996 103.973C26.5319 103.973 24.57 102.079 24.57 99.4407C24.57 96.8023 26.5319 94.9081 28.8996 94.9081C31.2673 94.9081 33.2292 96.8023 33.2292 99.4407C33.2292 102.079 31.2673 103.973 28.8996 103.973ZM47.2327 93.1492H44.459L42.0913 97.0053C41.8883 97.3435 41.6854 97.7494 41.6854 97.7494H41.6177C41.6177 97.7494 41.4148 97.3435 41.2118 97.0053L38.8441 93.1492H36.0705L40.1295 99.3054L35.7999 105.8H38.5735L41.2118 101.605C41.4148 101.335 41.6177 100.929 41.6177 100.929H41.6854C41.6854 100.929 41.8883 101.335 42.0913 101.605L44.7296 105.8H47.5033L43.1737 99.3054L47.2327 93.1492ZM49.3974 90.5786H51.9005V88.1432H49.3974V90.5786ZM49.4651 105.8H51.9005V93.1492H49.4651V105.8ZM55.8242 92.7433V93.2845H54.2682V95.2464H55.8242V105.8H58.2596V95.2464H61.2361V93.2845H58.2596V92.7433C58.2596 90.4433 59.9508 90.1727 60.8979 90.1727C61.1685 90.1727 61.4391 90.1727 61.5067 90.2403V88.1432C61.1685 88.0755 60.8979 88.0755 60.5596 88.0755C59.0037 88.0079 55.8242 88.5491 55.8242 92.7433ZM63.5362 90.5786H66.0393V88.1432H63.5362V90.5786ZM63.5362 105.8H65.9716V93.1492H63.5362V105.8ZM74.4955 92.811C70.91 92.811 68.1364 95.3817 68.1364 99.4407C68.1364 103.161 70.91 106.07 74.8337 106.07C76.5926 106.07 78.4868 105.394 79.7045 104.244L78.6897 102.485C77.675 103.364 76.322 103.973 74.969 103.973C72.6689 103.973 70.7747 102.485 70.6394 99.7789H79.8398C79.9074 99.4407 79.9074 99.1024 79.9074 98.7642C79.9751 95.517 78.0809 92.811 74.4955 92.811ZM70.7747 98.02C71.113 95.9229 72.6013 94.7052 74.4955 94.7052C76.119 94.7052 77.472 95.8552 77.5397 98.02H70.7747ZM88.7695 93.0139C86.8077 93.0139 85.3194 94.5699 84.7782 96.3964H84.7105C84.7105 96.3964 84.7782 95.9905 84.7782 95.4493V93.1492H82.4105V105.8H84.8458V100.523C84.8458 98.0877 85.9959 95.3817 88.7019 95.3817C88.9725 95.3817 89.3107 95.3817 89.3784 95.4493V93.0816C89.1754 93.0139 88.9725 93.0139 88.7695 93.0139Z" fill="#FAFAFA"/>
<defs>
<linearGradient id="paint0_linear_9008_117267" x1="34.4849" y1="42.9201" x2="55.4414" y2="42.9201" gradientUnits="userSpaceOnUse">
<stop stop-color="#1B559E"/>
<stop offset="1" stop-color="#3F7EC3"/>
</linearGradient>
<linearGradient id="paint1_linear_9008_117267" x1="35.2897" y1="36.7222" x2="55.4678" y2="36.7222" gradientUnits="userSpaceOnUse">
<stop stop-color="#60A3E5"/>
<stop offset="1" stop-color="#3F7EC3"/>
</linearGradient>
</defs>
</svg>
