<svg width="144" height="109" viewBox="0 0 144 109" fill="none" xmlns="http://www.w3.org/2000/svg">
<path fill-rule="evenodd" clip-rule="evenodd" d="M67.8623 0.338024C43.5532 3.45451 31.6902 31.9471 46.5339 51.5638C61.9392 71.9228 94.2014 66.4706 102.34 42.1332C109.774 19.9008 91.171 -2.65058 67.8623 0.338024ZM54.6097 13.4785C56.3883 19.742 60.0342 24.8014 64.3313 26.9694L65.5506 27.5847L68.3316 26.2514C80.8749 20.2378 93.8417 21.0383 102.739 28.376L103.365 28.8913L101.864 28.3793C93.3754 25.482 85.521 25.233 80.1756 27.6918L78.4879 28.4681L78.4835 30.2423C78.4509 42.8082 71.8671 54.2417 61.7801 59.2496C58.9867 60.6365 58.7443 60.6551 60.6259 59.3383C67.0852 54.8175 71.0963 48.3912 71.6612 41.6585L71.8031 39.9697L70.3327 39.1411C59.455 33.0108 51.6157 19.2206 53.1276 8.87516L53.3231 7.53599L53.6399 9.35677C53.8139 10.3585 54.2504 12.2132 54.6097 13.4785Z" fill="#FAFAFA"/>
<path d="M5.09202 102.264C6.03546 102.264 6.7223 102.104 7.15238 101.785C7.58246 101.466 7.79757 101.015 7.79757 100.432C7.79757 100.086 7.72121 99.7873 7.56863 99.5376C7.42988 99.2878 7.22175 99.0658 6.94425 98.8716C6.68066 98.6635 6.3546 98.4762 5.96609 98.3097C5.57765 98.1293 5.13366 97.9558 4.63421 97.7894C4.13468 97.609 3.64905 97.4147 3.17733 97.2066C2.71952 96.9847 2.31018 96.7141 1.94948 96.395C1.6026 96.0759 1.31819 95.6944 1.09616 95.2504C0.888109 94.8064 0.784005 94.2722 0.784005 93.6478C0.784005 92.3437 1.23491 91.3239 2.13678 90.5886C3.03858 89.8393 4.26651 89.4647 5.82042 89.4647C6.7223 89.4647 7.52007 89.5688 8.21375 89.7769C8.9214 89.9711 9.47633 90.1862 9.87875 90.4221L9.06707 92.5448C8.59535 92.2812 8.07508 92.08 7.50617 91.9413C6.95124 91.8026 6.37542 91.7332 5.77878 91.7332C5.0712 91.7332 4.51628 91.8789 4.11386 92.1702C3.72542 92.4616 3.53112 92.8709 3.53112 93.3981C3.53112 93.7172 3.59358 93.9947 3.71843 94.2306C3.85718 94.4526 4.04448 94.6537 4.28034 94.8341C4.53011 95.0145 4.81452 95.181 5.13366 95.3336C5.46663 95.4862 5.82741 95.6319 6.21585 95.7706C6.8957 96.0204 7.49925 96.2771 8.02644 96.5407C8.56762 96.7904 9.01851 97.0957 9.37922 97.4564C9.75383 97.8033 10.0382 98.2195 10.2325 98.7051C10.4268 99.1769 10.5239 99.7526 10.5239 100.432C10.5239 101.737 10.0591 102.749 9.12953 103.471C8.21375 104.179 6.86796 104.532 5.09202 104.532C4.49546 104.532 3.94737 104.491 3.44792 104.407C2.96229 104.338 2.52522 104.248 2.13678 104.137C1.76217 104.026 1.43612 103.915 1.15862 103.804C0.881117 103.679 0.659161 103.568 0.492676 103.471L1.26272 101.327C1.63733 101.535 2.1437 101.744 2.7819 101.952C3.42018 102.16 4.19022 102.264 5.09202 102.264ZM19.9315 98.83C19.9315 97.7062 19.6749 96.832 19.1616 96.2077C18.662 95.5833 17.8504 95.2712 16.7266 95.2712C16.4907 95.2712 16.241 95.285 15.9774 95.3128C15.7276 95.3267 15.4778 95.3683 15.2282 95.4377V101.66C15.4501 101.813 15.7415 101.959 16.1022 102.097C16.4768 102.222 16.8723 102.285 17.2885 102.285C18.2042 102.285 18.8702 101.973 19.2864 101.348C19.7165 100.724 19.9315 99.8844 19.9315 98.83ZM22.5122 98.7883C22.5122 99.6208 22.4012 100.384 22.1792 101.078C21.9711 101.771 21.6659 102.368 21.2635 102.867C20.8611 103.367 20.3548 103.755 19.7442 104.033C19.1477 104.31 18.4678 104.449 17.7047 104.449C17.1913 104.449 16.7196 104.387 16.2895 104.262C15.8595 104.137 15.5056 103.998 15.2282 103.846V108.07H12.7099V93.6895C13.2233 93.5507 13.8546 93.419 14.6038 93.294C15.353 93.1692 16.1439 93.1067 16.9763 93.1067C17.8365 93.1067 18.6066 93.2386 19.2864 93.5022C19.9663 93.7658 20.5421 94.1474 21.0138 94.6468C21.4993 95.1324 21.867 95.729 22.1168 96.4367C22.3804 97.1303 22.5122 97.9143 22.5122 98.7883ZM25.1075 104.22V88.4866L27.6257 88.0703V93.4605C27.9032 93.3634 28.2223 93.2802 28.5831 93.2108C28.9577 93.1415 29.3254 93.1067 29.6861 93.1067C30.5601 93.1067 31.2816 93.2317 31.8504 93.4813C32.4332 93.7172 32.898 94.0572 33.2449 94.5011C33.5917 94.9312 33.8345 95.4515 33.9733 96.062C34.1259 96.6725 34.2022 97.3524 34.2022 98.1016V104.22H31.684V98.497C31.684 97.9143 31.6424 97.4217 31.5591 97.0193C31.4897 96.6031 31.3649 96.2701 31.1845 96.0204C31.018 95.7568 30.7891 95.5695 30.4977 95.4585C30.2063 95.3336 29.8456 95.2712 29.4155 95.2712C29.0825 95.2712 28.7426 95.3058 28.3958 95.3752C28.0489 95.4446 27.7922 95.507 27.6257 95.5625V104.22H25.1075ZM36.6171 98.83C36.6171 97.8726 36.7554 97.0332 37.0335 96.3117C37.3247 95.5902 37.7058 94.9937 38.1783 94.522C38.65 94.0363 39.1908 93.6756 39.8008 93.4398C40.4116 93.19 41.0362 93.0652 41.6739 93.0652C43.1728 93.0652 44.3383 93.5299 45.1703 94.4595C46.017 95.3891 46.4403 96.7765 46.4403 98.6219C46.4403 98.7606 46.4334 98.9202 46.4195 99.1005C46.4195 99.267 46.4126 99.4196 46.3988 99.5584H39.2185C39.2876 100.432 39.5934 101.112 40.1343 101.598C40.689 102.07 41.4872 102.305 42.5275 102.305C43.1382 102.305 43.6929 102.25 44.1923 102.139C44.7055 102.028 45.1081 101.91 45.3993 101.785L45.7327 103.846C45.5936 103.915 45.3993 103.991 45.1496 104.075C44.9137 104.144 44.6364 104.206 44.3175 104.262C44.0118 104.331 43.6791 104.387 43.318 104.428C42.9577 104.47 42.5897 104.491 42.2155 104.491C41.2583 104.491 40.4255 104.352 39.7179 104.075C39.0103 103.783 38.4279 103.388 37.9701 102.888C37.5122 102.375 37.1718 101.778 36.9498 101.098C36.7278 100.405 36.6171 99.6486 36.6171 98.83ZM43.9219 97.7062C43.9219 97.3593 43.8735 97.0332 43.7759 96.728C43.6791 96.4088 43.5331 96.1383 43.3395 95.9163C43.159 95.6804 42.93 95.5001 42.6527 95.3752C42.3884 95.2365 42.0696 95.1671 41.6954 95.1671C41.3067 95.1671 40.9663 95.2435 40.6751 95.396C40.384 95.5348 40.1343 95.7221 39.9261 95.9579C39.7317 96.1938 39.5788 96.4644 39.4682 96.7696C39.3576 97.0749 39.2807 97.387 39.2392 97.7062H43.9219ZM55.3115 95.6042C55.1041 95.5348 54.8121 95.4654 54.438 95.396C54.0769 95.3128 53.6536 95.2712 53.168 95.2712C52.8907 95.2712 52.5926 95.2989 52.2738 95.3544C51.968 95.4099 51.7529 95.4585 51.6284 95.5001V104.22H49.11V93.8559C49.5956 93.6756 50.1994 93.5092 50.9208 93.3565C51.6561 93.19 52.4674 93.1067 53.3555 93.1067C53.5222 93.1067 53.7166 93.1206 53.9386 93.1484C54.1606 93.1623 54.3827 93.19 54.6039 93.2316C54.826 93.2594 55.0411 93.301 55.2493 93.3565C55.4575 93.3981 55.6242 93.4398 55.7487 93.4813L55.3115 95.6042ZM56.9003 98.83C56.9003 97.8726 57.0394 97.0332 57.3167 96.3117C57.6079 95.5902 57.9897 94.9937 58.4614 94.522C58.9332 94.0363 59.474 93.6756 60.0848 93.4398C60.6948 93.19 61.3194 93.0652 61.9579 93.0652C63.456 93.0652 64.6215 93.5299 65.4535 94.4595C66.3001 95.3891 66.7235 96.7765 66.7235 98.6219C66.7235 98.7606 66.7165 98.9202 66.7027 99.1005C66.7027 99.267 66.6958 99.4196 66.682 99.5584H59.5017C59.5708 100.432 59.8766 101.112 60.4175 101.598C60.9722 102.07 61.7704 102.305 62.8106 102.305C63.4214 102.305 63.9761 102.25 64.4755 102.139C64.9887 102.028 65.3913 101.91 65.6824 101.785L66.0159 103.846C65.8768 103.915 65.6824 103.991 65.4328 104.075C65.1969 104.144 64.9195 104.206 64.6007 104.262C64.2957 104.331 63.9623 104.387 63.602 104.428C63.2409 104.47 62.8729 104.491 62.4987 104.491C61.5414 104.491 60.7086 104.352 60.0011 104.075C59.2935 103.783 58.7111 103.388 58.2532 102.888C57.7953 102.375 57.455 101.778 57.233 101.098C57.0109 100.405 56.9003 99.6486 56.9003 98.83ZM64.2051 97.7062C64.2051 97.3593 64.1567 97.0332 64.0591 96.728C63.9623 96.4088 63.8163 96.1383 63.6227 95.9163C63.4422 95.6804 63.2132 95.5001 62.9359 95.3752C62.6723 95.2365 62.3527 95.1671 61.9786 95.1671C61.5898 95.1671 61.2495 95.2435 60.9583 95.396C60.6672 95.5348 60.4175 95.7221 60.2093 95.9579C60.0149 96.1938 59.8628 96.4644 59.7514 96.7696C59.6407 97.0749 59.5639 97.387 59.5224 97.7062H64.2051ZM78.7254 104.387C77.9618 104.387 77.1919 104.359 76.4152 104.303C75.6385 104.262 74.9586 104.165 74.3755 104.012V90.0058C74.6805 89.9504 75.007 89.9017 75.3535 89.8602C75.7007 89.8046 76.0541 89.763 76.4152 89.7352C76.7755 89.7075 77.1297 89.6867 77.4762 89.6729C77.8373 89.6589 78.1769 89.652 78.4965 89.652C79.37 89.652 80.1821 89.7214 80.9311 89.8602C81.6802 89.985 82.3255 90.2 82.8664 90.5053C83.4219 90.8105 83.8521 91.2129 84.1571 91.7124C84.4621 92.2118 84.615 92.8292 84.615 93.5646C84.615 94.2445 84.4483 94.8272 84.1156 95.3128C83.796 95.7984 83.3451 96.1869 82.7627 96.4782C83.637 96.7696 84.2816 97.1997 84.698 97.7685C85.1144 98.3374 85.3226 99.0589 85.3226 99.933C85.3226 101.418 84.7817 102.534 83.6992 103.284C82.6167 104.019 80.9588 104.387 78.7254 104.387ZM76.9561 97.727V102.118C77.2473 102.146 77.56 102.167 77.8926 102.181C78.226 102.194 78.531 102.201 78.8084 102.201C79.3493 102.201 79.8494 102.167 80.3065 102.097C80.7782 102.028 81.1808 101.91 81.5143 101.744C81.8607 101.563 82.1312 101.327 82.3256 101.036C82.5338 100.745 82.6375 100.37 82.6375 99.9122C82.6375 99.0936 82.3394 98.5247 81.7432 98.2056C81.1463 97.8865 80.3211 97.727 79.2663 97.727H76.9561ZM76.9561 95.6666H78.8084C79.8072 95.6666 80.5916 95.5279 81.1601 95.2504C81.7294 94.959 82.0136 94.4457 82.0136 93.7103C82.0136 93.0165 81.7148 92.524 81.1186 92.2327C80.5355 91.9413 79.7726 91.7956 78.8291 91.7956C78.4266 91.7956 78.0662 91.8026 77.7474 91.8164C77.4416 91.8303 77.1781 91.8511 76.9561 91.8789V95.6666ZM94.1308 95.6042C93.9226 95.5348 93.6307 95.4654 93.2565 95.396C92.8955 95.3128 92.4729 95.2712 91.9866 95.2712C91.7092 95.2712 91.4111 95.2989 91.0923 95.3544C90.7865 95.4099 90.5714 95.4585 90.447 95.5001V104.22H87.9286V93.8559C88.4141 93.6756 89.018 93.5092 89.7394 93.3565C90.4746 93.19 91.2859 93.1067 92.174 93.1067C92.3408 93.1067 92.5351 93.1206 92.7572 93.1484C92.9792 93.1623 93.2012 93.19 93.4233 93.2316C93.6453 93.2594 93.8596 93.301 94.0678 93.3565C94.276 93.3981 94.4428 93.4398 94.5672 93.4813L94.1308 95.6042ZM106.167 98.7675C106.167 99.6278 106.041 100.412 105.792 101.119C105.542 101.827 105.188 102.43 104.731 102.93C104.273 103.429 103.717 103.818 103.065 104.095C102.427 104.373 101.72 104.512 100.942 104.512C100.166 104.512 99.458 104.373 98.8196 104.095C98.1819 103.818 97.6334 103.429 97.1755 102.93C96.7176 102.43 96.3573 101.827 96.0938 101.119C95.8441 100.412 95.7189 99.6278 95.7189 98.7675C95.7189 97.9073 95.8441 97.1303 96.0938 96.4367C96.3573 95.729 96.7176 95.1255 97.1755 94.626C97.6472 94.1265 98.2027 93.745 98.8404 93.4813C99.4788 93.2038 100.179 93.0652 100.942 93.0652C101.706 93.0652 102.407 93.2038 103.044 93.4813C103.697 93.745 104.251 94.1265 104.709 94.626C105.167 95.1255 105.521 95.729 105.771 96.4367C106.034 97.1303 106.167 97.9073 106.167 98.7675ZM103.586 98.7675C103.586 97.6853 103.35 96.832 102.878 96.2077C102.421 95.5695 101.775 95.2504 100.942 95.2504C100.11 95.2504 99.4581 95.5695 98.9863 96.2077C98.5284 96.832 98.2995 97.6853 98.2995 98.7675C98.2995 99.8636 98.5284 100.731 98.9863 101.369C99.4581 102.007 100.11 102.326 100.942 102.326C101.775 102.326 102.421 102.007 102.878 101.369C103.35 100.731 103.586 99.8636 103.586 98.7675ZM115.03 97.3732C114.711 98.5941 114.364 99.7873 113.99 100.953C113.629 102.104 113.269 103.193 112.907 104.22H110.847C110.57 103.582 110.278 102.854 109.973 102.035C109.668 101.216 109.363 100.342 109.058 99.4127C108.752 98.4831 108.447 97.5049 108.142 96.4782C107.836 95.4515 107.538 94.404 107.247 93.3357H109.91C110.036 93.9184 110.182 94.5497 110.348 95.2295C110.514 95.8955 110.688 96.5823 110.868 97.2899C111.048 97.9837 111.236 98.6635 111.43 99.3294C111.624 99.9955 111.818 100.606 112.012 101.161C112.221 100.523 112.422 99.8636 112.616 99.1838C112.824 98.5039 113.019 97.8241 113.199 97.1442C113.379 96.4644 113.546 95.8054 113.699 95.1671C113.865 94.515 114.011 93.9045 114.135 93.3357H116.071C116.196 93.9045 116.335 94.515 116.487 95.1671C116.64 95.8054 116.8 96.4644 116.965 97.1442C117.146 97.8241 117.333 98.5039 117.528 99.1838C117.736 99.8636 117.944 100.523 118.152 101.161C118.332 100.606 118.52 99.9955 118.714 99.3294C118.908 98.6635 119.096 97.9837 119.276 97.2899C119.47 96.5823 119.651 95.8955 119.817 95.2295C119.983 94.5497 120.129 93.9184 120.254 93.3357H122.856C122.564 94.404 122.266 95.4515 121.961 96.4782C121.656 97.5049 121.35 98.4831 121.045 99.4127C120.74 100.342 120.434 101.216 120.129 102.035C119.824 102.854 119.525 103.582 119.234 104.22H117.194C116.834 103.193 116.459 102.104 116.071 100.953C115.696 99.7873 115.35 98.5941 115.03 97.3732ZM127.502 102.41C128.168 102.41 128.654 102.333 128.959 102.181C129.264 102.014 129.417 101.737 129.417 101.348C129.417 100.987 129.25 100.689 128.917 100.453C128.599 100.217 128.064 99.9607 127.315 99.6832C126.857 99.5167 126.434 99.3433 126.046 99.163C125.671 98.9687 125.345 98.7467 125.067 98.497C124.79 98.2472 124.568 97.9489 124.402 97.6021C124.249 97.2413 124.173 96.8043 124.173 96.2909C124.173 95.292 124.54 94.5081 125.275 93.9392C126.01 93.3565 127.01 93.0652 128.272 93.0652C128.911 93.0652 129.521 93.1275 130.104 93.2525C130.686 93.3634 131.123 93.4744 131.415 93.5854L130.957 95.625C130.679 95.5001 130.326 95.3891 129.896 95.292C129.465 95.181 128.966 95.1255 128.397 95.1255C127.883 95.1255 127.468 95.2156 127.148 95.396C126.829 95.5625 126.67 95.8261 126.67 96.1869C126.67 96.3673 126.697 96.5268 126.753 96.6655C126.822 96.8043 126.933 96.9361 127.086 97.061C127.239 97.172 127.44 97.2899 127.69 97.4147C127.939 97.5258 128.244 97.6437 128.606 97.7685C129.202 97.9906 129.708 98.2125 130.124 98.4346C130.541 98.6427 130.88 98.8855 131.144 99.163C131.422 99.4265 131.623 99.7318 131.748 100.079C131.873 100.426 131.935 100.842 131.935 101.327C131.935 102.368 131.547 103.159 130.77 103.7C130.007 104.227 128.911 104.491 127.482 104.491C126.524 104.491 125.754 104.407 125.171 104.241C124.588 104.088 124.18 103.964 123.944 103.866L124.381 101.764C124.755 101.917 125.199 102.063 125.712 102.201C126.239 102.34 126.836 102.41 127.502 102.41ZM133.684 98.83C133.684 97.8726 133.823 97.0332 134.1 96.3117C134.391 95.5902 134.773 94.9937 135.245 94.522C135.717 94.0363 136.258 93.6756 136.868 93.4398C137.478 93.19 138.103 93.0652 138.741 93.0652C140.24 93.0652 141.405 93.5299 142.238 94.4595C143.084 95.3891 143.507 96.7765 143.507 98.6219C143.507 98.7606 143.5 98.9202 143.486 99.1005C143.486 99.267 143.479 99.4196 143.466 99.5584H136.285C136.355 100.432 136.66 101.112 137.201 101.598C137.756 102.07 138.554 102.305 139.594 102.305C140.205 102.305 140.76 102.25 141.259 102.139C141.773 102.028 142.175 101.91 142.467 101.785L142.799 103.846C142.66 103.915 142.467 103.991 142.217 104.075C141.981 104.144 141.703 104.206 141.384 104.262C141.079 104.331 140.746 104.387 140.385 104.428C140.024 104.47 139.657 104.491 139.282 104.491C138.325 104.491 137.492 104.352 136.785 104.075C136.077 103.783 135.495 103.388 135.037 102.888C134.579 102.375 134.239 101.778 134.017 101.098C133.795 100.405 133.684 99.6486 133.684 98.83ZM140.989 97.7062C140.989 97.3593 140.94 97.0332 140.843 96.728C140.746 96.4088 140.601 96.1383 140.406 95.9163C140.226 95.6804 139.997 95.5001 139.719 95.3752C139.456 95.2365 139.136 95.1671 138.762 95.1671C138.373 95.1671 138.034 95.2435 137.742 95.396C137.451 95.5348 137.201 95.7221 136.993 95.9579C136.798 96.1938 136.646 96.4644 136.535 96.7696C136.424 97.0749 136.347 97.387 136.306 97.7062H140.989Z" fill="#FAFAFA"/>
</svg>
