<svg width="90" height="109" viewBox="0 0 90 109" fill="none" xmlns="http://www.w3.org/2000/svg">
<path d="M45 0.0703125C36.5151 0.0703125 28.37 3.44381 22.375 9.44281C16.375 15.4418 13 23.5868 13 32.0703C13 40.5538 16.375 48.6988 22.375 54.6978C28.37 60.6968 36.5151 64.0703 45 64.0703C53.4849 64.0703 61.63 60.6968 67.625 54.6978C73.625 48.6988 77 40.5538 77 32.0703C77 23.5868 73.625 15.4418 67.625 9.44281C61.63 3.44381 53.4849 0.0703125 45 0.0703125Z" fill="url(#paint0_linear_9008_117268)"/>
<path d="M27.4854 31.7313C36.8154 27.6673 43.0353 24.9879 46.1453 23.6933C55.0353 19.9969 56.8802 19.3549 58.0852 19.3333C58.3502 19.3288 58.9402 19.3943 59.3252 19.7059C59.6452 19.9684 59.7352 20.3233 59.7803 20.5723C59.8203 20.8213 59.8753 21.3889 59.8303 21.8318C59.3503 26.8919 57.2654 39.1709 56.2053 44.8384C55.7604 47.2365 54.8753 48.0404 54.0203 48.1189C52.1602 48.29 50.7502 46.891 48.9502 45.7114C46.1352 43.8648 44.5453 42.7159 41.8103 40.9143C38.6503 38.8324 40.7003 37.6878 42.5003 35.8179C42.9703 35.3284 51.1602 27.8808 51.3151 27.2053C51.3352 27.1208 51.3553 26.8059 51.1653 26.6398C50.9803 26.4734 50.7051 26.5303 50.5051 26.5754C50.2202 26.6394 45.7252 29.6133 37.0052 35.4968C35.7301 36.3739 34.5752 36.8014 33.5352 36.7789C32.3951 36.7543 30.1953 36.1329 28.5604 35.6019C26.5603 34.9504 24.9652 34.6059 25.1052 33.4993C25.1752 32.9233 25.9704 32.3339 27.4854 31.7313Z" fill="white"/>
<path d="M12.1961 89.7923V92.0537H7.77707V104.17H5.14221V92.0537H0.723145V89.7923H12.1961ZM12.3292 98.7965C12.3292 97.8421 12.4676 97.0053 12.7441 96.2861C13.0346 95.5668 13.4149 94.9721 13.8852 94.5019C14.3554 94.0178 14.8949 93.6582 15.5035 93.4231C16.1121 93.1741 16.7344 93.0496 17.3707 93.0496C18.8645 93.0496 20.0263 93.5129 20.8562 94.4396C21.6999 95.3663 22.1217 96.7494 22.1217 98.589C22.1217 98.7273 22.1148 98.8864 22.101 99.0661C22.101 99.2321 22.0941 99.3843 22.0802 99.5226H14.9226C14.9917 100.394 15.296 101.072 15.8354 101.556C16.3887 102.026 17.184 102.261 18.2213 102.261C18.8299 102.261 19.3832 102.206 19.8811 102.095C20.3928 101.985 20.7939 101.867 21.0844 101.743L21.4163 103.796C21.278 103.866 21.0844 103.942 20.8354 104.025C20.6003 104.094 20.3237 104.156 20.0055 104.211C19.7012 104.281 19.3693 104.336 19.0097 104.377C18.6501 104.419 18.2836 104.44 17.9101 104.44C16.9558 104.44 16.1259 104.301 15.4205 104.025C14.7151 103.734 14.1342 103.34 13.6777 102.842C13.2213 102.33 12.8824 101.736 12.6612 101.058C12.4398 100.366 12.3292 99.6125 12.3292 98.7965ZM19.6114 97.6762C19.6114 97.3304 19.563 97.0053 19.4661 96.701C19.3693 96.3829 19.2241 96.1132 19.0305 95.8919C18.8506 95.6568 18.6224 95.477 18.3458 95.3525C18.083 95.2141 17.7649 95.145 17.3915 95.145C17.0042 95.145 16.6653 95.2211 16.3749 95.3732C16.0844 95.5115 15.8354 95.6983 15.628 95.9334C15.4344 96.1685 15.2822 96.4383 15.1715 96.7425C15.0609 97.0468 14.9848 97.358 14.9433 97.6762H19.6114ZM28.5593 104.377C27.8124 104.364 27.1899 104.281 26.692 104.128C26.2079 103.976 25.8207 103.762 25.5302 103.485C25.2398 103.195 25.0323 102.842 24.9078 102.427C24.7972 101.998 24.7418 101.514 24.7418 100.975V88.4853L27.2522 88.0703V100.498C27.2522 100.802 27.273 101.058 27.3145 101.265C27.3698 101.473 27.4597 101.653 27.5841 101.805C27.7087 101.943 27.8746 102.054 28.0821 102.137C28.3034 102.206 28.58 102.261 28.9119 102.303L28.5593 104.377ZM30.3409 98.7965C30.3409 97.8421 30.4792 97.0053 30.7558 96.2861C31.0463 95.5668 31.4266 94.9721 31.8969 94.5019C32.3671 94.0178 32.9066 93.6582 33.5152 93.4231C34.1238 93.1741 34.7461 93.0496 35.3824 93.0496C36.8762 93.0496 38.0383 93.5129 38.8677 94.4396C39.7117 95.3663 40.1337 96.7494 40.1337 98.589C40.1337 98.7273 40.1268 98.8864 40.113 99.0661C40.113 99.2321 40.1061 99.3843 40.0916 99.5226H32.9343C33.0034 100.394 33.3077 101.072 33.8471 101.556C34.4004 102.026 35.1957 102.261 36.233 102.261C36.8416 102.261 37.3949 102.206 37.8928 102.095C38.4044 101.985 38.8057 101.867 39.096 101.743L39.4283 103.796C39.2897 103.866 39.096 103.942 38.847 104.025C38.6119 104.094 38.3354 104.156 38.0176 104.211C37.7128 104.281 37.3811 104.336 37.0214 104.377C36.6618 104.419 36.2953 104.44 35.9218 104.44C34.9675 104.44 34.1376 104.301 33.4322 104.025C32.7268 103.734 32.1459 103.34 31.6894 102.842C31.233 102.33 30.8941 101.736 30.6729 101.058C30.4515 100.366 30.3409 99.6125 30.3409 98.7965ZM37.6232 97.6762C37.6232 97.3304 37.5749 97.0053 37.4776 96.701C37.3811 96.3829 37.2356 96.1132 37.0422 95.8919C36.8623 95.6568 36.6341 95.477 36.3575 95.3525C36.0947 95.2141 35.7766 95.145 35.4032 95.145C35.0159 95.145 34.677 95.2211 34.3865 95.3732C34.0961 95.5115 33.8471 95.6983 33.6397 95.9334C33.446 96.1685 33.2939 96.4383 33.1832 96.7425C33.0726 97.0468 32.9965 97.358 32.955 97.6762H37.6232ZM44.7658 98.4646C44.7658 99.5295 44.994 100.311 45.4505 100.809C45.9207 101.293 46.5227 101.535 47.2557 101.535C47.657 101.535 48.03 101.48 48.3761 101.369C48.7353 101.258 49.0264 101.127 49.2469 100.975V95.3525C49.0677 95.311 48.8464 95.2764 48.5837 95.2488C48.321 95.2073 47.9886 95.1865 47.5873 95.1865C46.6743 95.1865 45.9759 95.4908 45.4918 96.0994C45.0078 96.6941 44.7658 97.4825 44.7658 98.4646ZM51.7575 103.07C51.7575 104.799 51.3148 106.065 50.4302 106.867C49.5587 107.669 48.2168 108.07 46.4048 108.07C45.7407 108.07 45.0913 108.015 44.4548 107.904C43.8322 107.794 43.2654 107.648 42.7538 107.469L43.2103 105.332C43.6384 105.511 44.1232 105.657 44.6624 105.767C45.2153 105.878 45.8104 105.933 46.4461 105.933C47.4563 105.933 48.1755 105.726 48.6044 105.311C49.0333 104.896 49.2469 104.281 49.2469 103.465V103.05C48.998 103.174 48.6664 103.299 48.2513 103.423C47.85 103.547 47.3874 103.61 46.8612 103.61C46.1696 103.61 45.534 103.499 44.9526 103.278C44.3859 103.056 43.895 102.731 43.4799 102.303C43.0785 101.874 42.7607 101.341 42.5256 100.705C42.3042 100.055 42.1932 99.3082 42.1932 98.4646C42.1932 97.6762 42.3111 96.95 42.5462 96.2861C42.7952 95.6222 43.1475 95.0551 43.6039 94.5848C44.0742 94.1146 44.6417 93.748 45.3057 93.4852C45.969 93.2225 46.7234 93.091 47.5666 93.091C48.383 93.091 49.1573 93.1533 49.8903 93.2778C50.6232 93.4023 51.2459 93.5337 51.7575 93.672V103.07ZM61.1342 95.5807C60.9266 95.5115 60.6364 95.4424 60.2626 95.3732C59.9026 95.2903 59.4814 95.2488 58.9974 95.2488C58.7201 95.2488 58.423 95.2764 58.1051 95.3317C57.8003 95.3871 57.5866 95.4355 57.4618 95.477V104.17H54.9512V93.8379C55.4353 93.6582 56.0373 93.4922 56.7564 93.34C57.4894 93.1741 58.2989 93.091 59.1835 93.091C59.3497 93.091 59.5435 93.1049 59.7648 93.1326C59.9861 93.1464 60.2075 93.1741 60.4288 93.2156C60.6502 93.2432 60.8646 93.2847 61.0714 93.34C61.2789 93.3815 61.4451 93.4231 61.57 93.4645L61.1342 95.5807ZM67.1364 102.406C67.9107 102.406 68.4989 102.365 68.9002 102.282V99.5019C68.7616 99.4603 68.5609 99.4188 68.2982 99.3774C68.0355 99.3359 67.7453 99.3151 67.4267 99.3151C67.1502 99.3151 66.8668 99.3359 66.5765 99.3774C66.2993 99.4188 66.0435 99.495 65.8084 99.6056C65.587 99.7162 65.4078 99.8753 65.2692 100.083C65.1306 100.276 65.0616 100.525 65.0616 100.83C65.0616 101.424 65.2485 101.839 65.6223 102.074C65.9952 102.296 66.5 102.406 67.1364 102.406ZM66.9288 93.0496C67.7591 93.0496 68.4575 93.1533 69.0243 93.3608C69.5918 93.5683 70.0414 93.8587 70.373 94.2321C70.7184 94.6056 70.9604 95.062 71.0991 95.6015C71.2515 96.127 71.3273 96.7079 71.3273 97.3442V103.921C70.9398 104.004 70.3523 104.101 69.5635 104.211C68.7892 104.336 67.9107 104.398 66.9288 104.398C66.2786 104.398 65.6843 104.336 65.1451 104.211C64.6052 104.087 64.1418 103.886 63.755 103.61C63.3813 103.333 63.0841 102.974 62.8628 102.531C62.6552 102.088 62.5511 101.542 62.5511 100.892C62.5511 100.27 62.669 99.7439 62.9041 99.3151C63.1531 98.8864 63.4847 98.5406 63.8998 98.2778C64.3149 98.0012 64.792 97.8075 65.3312 97.6969C65.885 97.5724 66.4586 97.5102 67.0537 97.5102C67.3302 97.5102 67.6204 97.5309 67.9245 97.5724C68.2293 97.6001 68.554 97.6554 68.9002 97.7383V97.3235C68.9002 97.033 68.865 96.7563 68.7961 96.4936C68.7271 96.2308 68.6023 96.0025 68.4231 95.8089C68.2569 95.6015 68.0286 95.4424 67.7384 95.3317C67.4611 95.2211 67.1088 95.1657 66.6799 95.1657C66.0994 95.1657 65.5663 95.2073 65.0823 95.2903C64.5983 95.3732 64.2046 95.47 63.8998 95.5807L63.5888 93.5475C63.9067 93.4368 64.37 93.3262 64.9789 93.2156C65.587 93.1049 66.2373 93.0496 66.9288 93.0496ZM80.5845 98.4646C80.5845 97.3304 80.439 96.5143 80.1487 96.0164C79.8715 95.5046 79.3461 95.2488 78.5718 95.2488C78.2953 95.2488 77.9905 95.2695 77.6588 95.311C77.3272 95.3525 77.0783 95.3871 76.9121 95.4147V104.17H74.4016V93.672C74.8856 93.5337 75.5152 93.4023 76.2895 93.2778C77.0783 93.1533 77.9078 93.091 78.7793 93.091C79.5261 93.091 80.1349 93.1879 80.6052 93.3815C81.0892 93.5752 81.4898 93.831 81.8084 94.1492C81.96 94.0385 82.1538 93.921 82.3889 93.7965C82.6241 93.672 82.8867 93.5613 83.1778 93.4645C83.4681 93.3539 83.7721 93.264 84.0907 93.1948C84.4223 93.1257 84.754 93.091 85.0864 93.091C85.9296 93.091 86.6212 93.2156 87.1611 93.4645C87.7141 93.6996 88.143 94.0385 88.4471 94.4811C88.7657 94.9099 88.9801 95.4355 89.0904 96.0578C89.2152 96.6665 89.2773 97.3372 89.2773 98.0704V104.17H86.7667V98.4646C86.7667 97.3304 86.6281 96.5143 86.3516 96.0164C86.0751 95.5046 85.5428 95.2488 84.754 95.2488C84.3534 95.2488 83.9728 95.3179 83.6136 95.4562C83.2536 95.5807 82.984 95.7052 82.804 95.8297C82.9151 96.1754 82.9909 96.542 83.0323 96.9293C83.0736 97.3165 83.0943 97.7314 83.0943 98.1741V104.17H80.5845V98.4646Z" fill="#FAFAFA"/>
<defs>
<linearGradient id="paint0_linear_9008_117268" x1="45" y1="0.0703125" x2="45" y2="64.0703" gradientUnits="userSpaceOnUse">
<stop stop-color="#2AABEE"/>
<stop offset="1" stop-color="#229ED9"/>
</linearGradient>
</defs>
</svg>
