<svg width="102" height="107" viewBox="0 0 102 107" fill="none" xmlns="http://www.w3.org/2000/svg">
<path d="M50.9998 64.0703C65.0229 64.0703 72.8154 64.0703 77.9077 58.978C83 53.8857 83 46.0932 83 32.0702C83 18.0474 83 10.2548 77.9077 5.16252C72.8154 0.0703125 65.0229 0.0703125 50.9998 0.0703125C36.9771 0.0703125 29.1748 0.0703125 24.0922 5.16252C19.0096 10.2548 19 18.0474 19 32.0702C19 46.0932 19 53.8857 24.0922 58.978C29.1844 64.0703 36.9771 64.0703 50.9998 64.0703Z" fill="#EF3939"/>
<path d="M71.8057 20.2247C70.2609 17.4392 67.6035 15.1584 65.1019 13.1864C62.6001 11.2144 60.1443 10.0263 57.0747 9.17436C54.0051 8.32244 50.868 8.3382 47.7077 8.73876C44.5472 9.13932 41.8278 9.8607 39.068 11.4515C36.308 13.0422 34.1644 14.99 32.234 17.5237C30.3037 20.0575 29.0211 22.5735 28.2205 25.6562C27.4198 28.7387 27.1297 32.1543 27.5832 35.3066C28.0367 38.4591 28.5875 41.4591 30.2247 44.1914L30.3597 44.4226L41.6325 63.9643C43.5032 64.0157 45.5283 64.0381 47.7077 64.0317H50.9091C56.0211 64.1416 61.1355 63.9904 66.2321 63.5787C71.3331 63.0195 74.9974 61.7661 77.8037 58.9416C81.9309 54.8152 82.7121 48.9152 82.8566 39.3709L71.8057 20.2247Z" fill="url(#paint0_linear_9008_117272)"/>
<path d="M67.9522 15.0916C64.5957 11.7375 60.3202 9.45399 55.6666 8.5298C51.0126 7.60561 46.1894 8.08223 41.8066 9.89942C37.4235 11.7166 33.6776 14.7927 31.0421 18.739C28.4066 22.6854 27 27.3246 27 32.0702C27 36.8161 28.4066 41.4553 31.0421 45.4017C33.6776 49.3479 37.4235 52.4241 41.8066 54.2412C46.1894 56.0583 51.0126 56.5351 55.6666 55.6108C60.3202 54.6866 64.5957 52.4031 67.9522 49.0489C70.1861 46.822 71.9586 44.1759 73.168 41.2622C74.3773 38.3486 75 35.2252 75 32.0702C75 28.9154 74.3773 25.7919 73.168 22.8783C71.9586 19.9647 70.1861 17.3186 67.9522 15.0916ZM66.5134 26.1404C62.5546 33.0297 58.599 39.9158 54.6469 46.7988C54.335 47.4089 53.8706 47.9281 53.2986 48.3055C52.7267 48.6828 52.0667 48.9057 51.3834 48.9524C50.6286 49.0367 49.8662 48.8911 49.1958 48.5343C48.5258 48.1775 47.9787 47.6263 47.6274 46.9532C45.1266 42.6457 42.645 38.3094 40.1635 33.9825C38.6445 31.3556 37.1317 28.7222 35.6254 26.0823C35.2678 25.4897 35.0707 24.814 35.0533 24.122C35.0358 23.43 35.1989 22.7452 35.5261 22.1353C35.8534 21.5252 36.3339 21.011 36.9202 20.643C37.5064 20.2751 38.1782 20.066 38.8698 20.0366C39.6141 19.9908 40.3557 20.1617 41.0051 20.5286C41.6544 20.8953 42.1838 21.4422 42.5291 22.1033C43.6491 24.035 44.7499 25.9665 45.8507 27.8982C46.6522 29.2889 47.4243 30.6796 48.2451 32.051C48.767 32.9988 49.5246 33.7956 50.445 34.3644C51.3654 34.9329 52.417 35.2537 53.4978 35.2961C55.1394 35.3977 56.757 34.8638 58.0154 33.8046C59.2738 32.7454 60.0762 31.2428 60.2566 29.6076C60.2566 29.3468 60.2566 29.086 60.3146 28.9508C60.3205 27.9174 60.089 26.8966 59.6389 25.9665C59.3626 25.4542 59.2021 24.8878 59.1678 24.3068C59.1338 23.7258 59.2274 23.1444 59.4418 22.6034C59.6562 22.0623 59.9866 21.575 60.4093 21.1751C60.8322 20.7753 61.3373 20.4729 61.8893 20.289C62.4413 20.1052 63.0269 20.0444 63.605 20.111C64.1829 20.1775 64.7394 20.3698 65.235 20.6743C65.731 20.9788 66.1544 21.3881 66.4752 21.8735C66.796 22.359 67.0069 22.9089 67.0928 23.4844C67.2016 24.4095 66.9976 25.3446 66.5134 26.1404Z" fill="white"/>
<mask id="mask0_9008_117272" style="mask-type:luminance" maskUnits="userSpaceOnUse" x="0" y="88" width="102" height="19">
<path d="M102 88.0703H0V106.07H102V88.0703Z" fill="white"/>
</mask>
<g mask="url(#mask0_9008_117272)">
<path d="M100.969 89.913H97.0942V105.413H100.969V89.913Z" fill="#FAFAFA"/>
<path d="M78.6865 105.413H84.0783C86.1168 105.413 88.0713 104.597 89.5128 103.143C90.9543 101.69 91.7643 99.7185 91.7643 97.6631C91.7643 95.6076 90.9543 93.6364 89.5128 92.183C88.0713 90.7295 86.1168 89.913 84.0783 89.913H78.6865V105.413ZM82.1515 102.226V93.1005H84.0783C86.6568 93.1005 88.417 95.1724 88.417 97.6631C88.417 100.154 86.6665 102.226 84.0783 102.226H82.1515Z" fill="#FAFAFA"/>
<path d="M63.1865 105.413H73.8425V102.022H67.0618V89.913H63.1865V105.413Z" fill="#FAFAFA"/>
<path d="M49.1228 100.231L50.6062 97.0358L52.0898 100.231H49.1228ZM42.8438 105.413H46.5615L47.6933 103.04H53.4937L54.6255 105.413H58.344L50.6062 89.913L42.8438 105.413Z" fill="#FAFAFA"/>
<path d="M34.6097 105.413L41.8766 89.913H38.0152L34.6097 97.575L31.2043 89.913H27.3457L34.6097 105.413Z" fill="#FAFAFA"/>
<path d="M22.501 89.913H18.626V105.413H22.501V89.913Z" fill="#FAFAFA"/>
<path d="M6.5172 105.413L13.7812 89.913H9.92265L6.5172 97.575L3.11175 89.913H-0.75L6.5172 105.413Z" fill="#FAFAFA"/>
</g>
<defs>
<linearGradient id="paint0_linear_9008_117272" x1="38.9517" y1="11.3263" x2="69.5086" y2="64.2699" gradientUnits="userSpaceOnUse">
<stop stop-opacity="0.2"/>
<stop offset="0.79" stop-opacity="0.05"/>
</linearGradient>
</defs>
</svg>
