<svg width="98" height="113" viewBox="0 0 98 113" fill="none" xmlns="http://www.w3.org/2000/svg">
<mask id="mask0_9008_117274" style="mask-type:luminance" maskUnits="userSpaceOnUse" x="14" y="0" width="70" height="65">
<path d="M84 0.0703125H14V64.6016H84V0.0703125Z" fill="white"/>
</mask>
<g mask="url(#mask0_9008_117274)">
<path opacity="0.993" fill-rule="evenodd" clip-rule="evenodd" d="M55.4258 10.0508C55.2158 10.2593 55.079 10.5327 55.0157 10.8711C54.9475 10.5638 54.8108 10.2903 54.6055 10.0508C54.0003 10.6726 53.2713 11.0827 52.418 11.2813C50.3212 11.6267 48.3162 11.3533 46.4023 10.461C45.7893 9.9769 45.3338 9.38446 45.0352 8.68361C47.6475 6.59931 50.473 6.2803 53.5117 7.72658C54.311 8.38726 54.9492 9.16203 55.4258 10.0508Z" fill="#84F5FE"/>
<path fill-rule="evenodd" clip-rule="evenodd" d="M61.988 4.85567C65.6805 4.76339 67.093 6.49516 66.2261 10.051C64.7291 11.8386 62.9518 12.1576 60.8941 11.008C58.8835 8.52816 59.2483 6.47737 61.988 4.85567Z" fill="#68E8FE"/>
<path fill-rule="evenodd" clip-rule="evenodd" d="M45.0352 8.68359C45.3338 9.38444 45.7893 9.97688 46.4023 10.4609C48.3162 11.3533 50.3213 11.6267 52.418 11.2812C53.2713 11.0827 54.0003 10.6725 54.6055 10.0508C54.8108 10.2903 54.9475 10.5637 55.0157 10.8711C55.079 10.5327 55.2158 10.2593 55.4258 10.0508C55.8113 13.2283 54.5355 15.5069 51.5977 16.8866C51.5673 16.7179 51.4763 16.5812 51.3242 16.4766C52.0535 15.9297 52.7825 15.3828 53.5117 14.8359C49.4648 15.5039 45.8645 14.5469 42.711 11.9648C42.3303 12.6052 42.1025 12.6052 42.0273 11.9648C42.8362 10.7 43.8387 9.60628 45.0352 8.68359Z" fill="#58EEFE"/>
<path opacity="0.974" fill-rule="evenodd" clip-rule="evenodd" d="M42.0276 11.9648C42.1027 12.6052 42.3306 12.6052 42.7111 11.9648C45.8647 14.5469 49.4651 15.5039 53.5119 14.8359C52.7826 15.3828 52.0537 15.9297 51.3244 16.4766C51.4764 16.5812 51.5676 16.7179 51.5979 16.8866C49.3737 17.8561 47.1862 18.9043 45.0354 20.0313C43.7592 20.9426 42.6654 22.0365 41.754 23.3125C41.5717 23.4948 41.3896 23.4948 41.2072 23.3125C40.6204 22.5483 40.3014 21.6825 40.2502 20.7148C39.7247 17.536 40.3171 14.6194 42.0276 11.9648Z" fill="#35E8FF"/>
<path opacity="0.986" fill-rule="evenodd" clip-rule="evenodd" d="M62.2617 18.5276C57.6604 19.8642 53.4677 22.0062 49.6837 24.9534C48.8127 25.7419 48.0381 26.6079 47.3594 27.5511C47.3021 27.1249 47.1652 26.7604 46.9492 26.4572C47.0004 25.8927 47.1371 25.3459 47.3594 24.8166C47.9582 23.7989 48.5506 22.7962 49.1367 21.8087C53.0856 19.0899 57.4606 17.9961 62.2617 18.5276Z" fill="#ACFDFE"/>
<path opacity="0.997" fill-rule="evenodd" clip-rule="evenodd" d="M62.2617 18.5273C64.3971 18.9967 65.9467 20.1817 66.9102 22.082C66.6942 22.3852 66.5576 22.7498 66.5001 23.1758C66.4314 22.6472 66.2947 22.146 66.0899 21.6718C64.2636 21.3572 62.5319 21.6307 60.8946 22.4922C58.0347 24.3952 55.5737 26.7193 53.5117 29.4648C53.2384 29.556 53.0561 29.7383 52.9649 30.0117C48.5319 32.9632 46.5266 31.7782 46.9492 26.457C47.1654 26.7602 47.3021 27.1248 47.3594 27.5508C48.0381 26.6077 48.8127 25.7417 49.6837 24.9532C53.4677 22.006 57.6604 19.864 62.2617 18.5273Z" fill="#BDFEFE"/>
<path fill-rule="evenodd" clip-rule="evenodd" d="M37.6523 21.8132C37.4747 21.7301 37.2923 21.6389 37.1055 21.5397C35.3595 22.4082 33.5365 22.6817 31.6367 22.3601C31.6813 23.0046 31.6358 23.6426 31.5 24.2741C31.4425 23.8481 31.3058 23.4836 31.0898 23.1804C31.433 19.4109 33.347 18.1804 36.832 19.4889C37.3782 20.1702 37.6515 20.9451 37.6523 21.8132Z" fill="#34F6FD"/>
<path fill-rule="evenodd" clip-rule="evenodd" d="M25.3476 22.6266C23.8083 24.6922 22.0765 26.6519 20.1523 28.5054C18.7378 29.7597 17.0971 30.5801 15.2305 30.9664C15.0416 31.2582 14.9049 31.5772 14.8203 31.9234C14.7063 31.5801 14.4784 31.3976 14.1367 31.3766C14.2016 31.0236 14.1105 30.7501 13.8633 30.5562C13.8633 29.4626 13.8633 28.3687 13.8633 27.2751C16.0934 21.7851 19.9215 20.2356 25.3476 22.6266Z" fill="#01C3E8"/>
<path opacity="0.999" fill-rule="evenodd" clip-rule="evenodd" d="M83.5899 27.0074C78.6686 29.1062 74.9316 27.7847 72.3789 23.0424C73.0891 22.8294 73.0891 22.6927 72.3789 22.6324C72.9239 22.1775 73.5619 21.8585 74.2931 21.6752C78.9407 20.8522 82.0397 22.6296 83.5899 27.0074Z" fill="#6281F0"/>
<path fill-rule="evenodd" clip-rule="evenodd" d="M66.9102 22.0847C67.1562 22.7948 66.9739 23.4328 66.3634 23.9987C64.1797 25.8178 62.0832 27.732 60.0742 29.7408C58.5744 30.3623 57.0249 30.818 55.4259 31.108C54.6184 30.7562 53.9804 30.2093 53.5117 29.4675C55.5737 26.7218 58.0347 24.3977 60.8946 22.4948C62.5319 21.6332 64.2636 21.3598 66.0899 21.6745C66.2947 22.1485 66.4314 22.6498 66.5001 23.1783C66.5576 22.7523 66.6942 22.3877 66.9102 22.0847Z" fill="#AEF0FC"/>
<path opacity="0.992" fill-rule="evenodd" clip-rule="evenodd" d="M72.3788 22.6289C73.089 22.6892 73.089 22.8259 72.3788 23.0389C74.9315 27.7812 78.6685 29.1027 83.5898 27.0039C83.5898 27.1861 83.6808 27.2772 83.8633 27.2772C83.8633 28.2799 83.8633 29.2824 83.8633 30.2851C82.3682 30.0734 80.8642 30.1646 79.3515 30.5586C74.952 30.1852 71.9898 28.0889 70.4648 24.2694C70.9403 23.5196 71.5785 22.9726 72.3788 22.6289Z" fill="#5A7EEF"/>
<path opacity="0.995" fill-rule="evenodd" clip-rule="evenodd" d="M25.3476 22.6289C26.724 23.3676 27.7266 24.4614 28.3555 25.9101C28.2104 26.2642 27.8458 26.4466 27.2617 26.4569C27.3026 26.7446 27.257 27.0181 27.125 27.2772C25.5628 28.7959 23.9677 30.2999 22.3398 31.7889C20.2301 32.8634 18.0426 33.8204 15.7773 34.6601C15.1818 33.6106 14.6349 32.5169 14.1367 31.3789C14.4784 31.3999 14.7063 31.5822 14.8203 31.9257C14.9049 31.5796 15.0416 31.2604 15.2305 30.9687C17.0971 30.5822 18.7378 29.7621 20.1523 28.5077C22.0765 26.6542 23.8083 24.6946 25.3476 22.6289Z" fill="#00B4E9"/>
<path opacity="0.941" fill-rule="evenodd" clip-rule="evenodd" d="M37.6523 21.8087C37.1548 23.17 36.6535 24.5372 36.1485 25.9102C36.116 27.2178 35.9337 28.4938 35.6015 29.7383C32.6727 28.5287 31.1688 26.341 31.0898 23.1758C31.3058 23.4788 31.4425 23.8435 31.5 24.2695C31.6358 23.638 31.6813 23 31.6367 22.3555C33.5365 22.677 35.3595 22.4037 37.1055 21.5352C37.2923 21.6343 37.4747 21.7255 37.6523 21.8087Z" fill="#07E5FE"/>
<path opacity="0.996" fill-rule="evenodd" clip-rule="evenodd" d="M70.4648 24.2695C71.9898 28.089 74.952 30.1854 79.3515 30.5587C80.8642 30.1647 82.3682 30.0735 83.8633 30.2852C83.8633 30.3762 83.8633 30.4675 83.8633 30.5587C83.484 31.5909 83.0282 32.5935 82.4962 33.5665C78.455 34.2969 74.7182 33.431 71.2852 30.9689C70.3048 29.9402 69.3022 28.983 68.2773 28.0977C68.8723 26.7229 69.6017 25.4469 70.4648 24.2695Z" fill="#4F7AEE"/>
<path opacity="0.99" fill-rule="evenodd" clip-rule="evenodd" d="M28.3555 25.9102C28.9772 27.0623 29.5241 28.2472 29.9961 29.4648C29.3786 29.54 29.2874 29.8135 29.7226 30.2852C28.0507 31.365 26.5013 32.5955 25.0742 33.9765C23.1452 35.1233 21.14 36.126 19.0586 36.9843C18.3351 37.1203 17.6059 37.166 16.8711 37.1212C16.2991 36.4135 15.9345 35.5932 15.7773 34.6602C18.0426 33.8205 20.2301 32.8635 22.3398 31.789C23.9677 30.3 25.5628 28.796 27.125 27.2773C27.257 27.0182 27.3026 26.7447 27.2617 26.457C27.8458 26.4467 28.2104 26.2643 28.3555 25.9102Z" fill="#00A7E9"/>
<path opacity="0.994" fill-rule="evenodd" clip-rule="evenodd" d="M49.1381 21.8086C48.5517 22.7961 47.9596 23.7986 47.3607 24.8164C47.1384 25.3456 47.0017 25.8926 46.9506 26.4569C46.5277 31.7781 48.5332 32.9631 52.9662 30.0116C52.4042 30.5736 51.9487 31.2116 51.5989 31.9258C50.7819 33.0091 49.9616 34.1028 49.1381 35.2069C45.6732 35.1613 42.2097 35.2069 38.7474 35.3438C38.4849 35.7318 38.2571 36.1419 38.0639 36.5741C37.9317 36.3149 37.8862 36.0416 37.9271 35.7539C39.8766 31.7174 42.3374 28.0259 45.3099 24.6796C46.4751 23.5581 47.7512 22.6011 49.1381 21.8086Z" fill="#0EF0FE"/>
<path fill-rule="evenodd" clip-rule="evenodd" d="M68.2788 28.0977C69.3036 28.983 70.3063 29.9402 71.2864 30.9688C74.7196 33.431 78.4563 34.2968 82.4974 33.5665C81.8431 35.331 81.1139 37.0627 80.3099 38.7617C80.0808 38.6682 79.9894 38.4862 80.0364 38.2148C80.0149 37.8238 80.1059 37.459 80.3099 37.1212C75.0898 37.176 70.7601 35.262 67.3216 31.379C67.2306 31.5613 67.1393 31.7435 67.0483 31.9258C66.9391 31.8635 66.8938 31.7722 66.9114 31.6523C67.2913 30.4372 67.7471 29.2523 68.2788 28.0977Z" fill="#4375ED"/>
<path opacity="0.992" fill-rule="evenodd" clip-rule="evenodd" d="M53.5117 29.4648C53.9803 30.2067 54.6183 30.7535 55.4258 31.1055C53.4212 35.3865 51.188 39.5793 48.7265 43.6837C47.8245 46.3302 46.7762 48.9278 45.582 51.4765C45.734 51.5813 45.8252 51.718 45.8555 51.8867C45.1082 53.4722 44.2878 55.0217 43.3945 56.5352C43.1925 56.571 43.01 56.5253 42.8477 56.3985C43.5738 53.3203 44.4397 50.2668 45.4453 47.2383C47.4155 42.8347 49.4662 38.4597 51.5977 34.1133C51.8392 33.4197 51.8392 32.6907 51.5977 31.9258C51.9473 31.2115 52.403 30.5737 52.9648 30.0117C53.0558 29.7383 53.2383 29.556 53.5117 29.4648Z" fill="#02D5FC"/>
<path fill-rule="evenodd" clip-rule="evenodd" d="M60.0742 29.7383C59.3319 30.4803 58.6937 31.3006 58.1602 32.1991C57.8879 32.1756 57.66 32.2669 57.4765 32.4726C54.0434 36.9693 51.1722 41.7998 48.8634 46.9648C47.8607 48.6054 46.8582 50.2461 45.8555 51.8866C45.8252 51.7179 45.734 51.5813 45.582 51.4766C46.7762 48.9278 47.8245 46.3301 48.7265 43.6836C51.188 39.5793 53.4212 35.3864 55.4259 31.1054C57.0249 30.8153 58.5744 30.3598 60.0742 29.7383Z" fill="#04DEFD"/>
<path fill-rule="evenodd" clip-rule="evenodd" d="M80.0351 38.2147C79.7915 38.4229 79.6091 38.6962 79.4883 39.0351C74.313 39.2509 69.8923 37.5189 66.2265 33.8397C66.1125 34.1832 65.8848 34.3656 65.543 34.3866C65.8976 33.4069 66.3531 32.4956 66.9101 31.6522C66.8923 31.7721 66.9378 31.8634 67.0468 31.9257C67.138 31.7434 67.2293 31.5612 67.3203 31.3789C70.7588 35.2619 75.0883 37.1759 80.3086 37.1211C80.1046 37.4589 80.0135 37.8237 80.0351 38.2147Z" fill="#3A72EB"/>
<path opacity="0.991" fill-rule="evenodd" clip-rule="evenodd" d="M29.9961 29.4648C30.8163 31.2878 31.6367 33.1107 32.457 34.9337C32.0658 34.912 31.7013 35.003 31.3633 35.207C30.4498 35.9577 29.5384 36.7323 28.6289 37.5313C27.6324 37.3427 26.8121 37.7073 26.168 38.625C24.8344 38.6993 23.6495 39.1552 22.6133 39.9922C21.1552 40.2512 19.6969 40.479 18.2383 40.6758C17.7067 39.521 17.2509 38.3363 16.8711 37.1212C17.6059 37.166 18.3351 37.1203 19.0586 36.9843C21.14 36.126 23.1452 35.1233 25.0742 33.9767C26.5013 32.5955 28.0507 31.365 29.7226 30.2852C29.2874 29.8135 29.3786 29.54 29.9961 29.4648Z" fill="#009BE9"/>
<path opacity="0.993" fill-rule="evenodd" clip-rule="evenodd" d="M32.457 34.9335C32.912 36.0261 33.3678 37.1198 33.8242 38.2146C33.1375 39.0468 32.2262 39.457 31.0898 39.4451C30.1505 40.4895 28.9656 40.945 27.5351 40.8123C26.2881 41.8708 24.8298 42.3266 23.1601 42.1795C21.9434 42.9383 20.6673 43.2575 19.332 43.1366C19.0419 42.283 18.6772 41.4626 18.2383 40.6756C19.6969 40.4788 21.1552 40.251 22.6133 39.992C23.6495 39.155 24.8344 38.6991 26.168 38.6248C26.8121 37.7071 27.6324 37.3425 28.6289 37.5311C29.5384 36.7321 30.4498 35.9575 31.3633 35.2068C31.7013 35.003 32.0658 34.9118 32.457 34.9335Z" fill="#0092E9"/>
<path opacity="0.993" fill-rule="evenodd" clip-rule="evenodd" d="M49.1366 35.2079C47.5188 37.6228 45.9695 40.0836 44.4883 42.5908C41.3833 41.6031 38.1931 41.2384 34.918 41.4971C34.918 41.2236 34.918 40.9503 34.918 40.6768C35.9205 39.0361 36.9231 37.3954 37.9258 35.7549C37.8848 36.0426 37.9305 36.3159 38.0625 36.5753C38.2556 36.1429 38.4835 35.7328 38.7461 35.3448C42.2083 35.2079 45.672 35.1623 49.1366 35.2079Z" fill="#03EEFE"/>
<path opacity="0.995" fill-rule="evenodd" clip-rule="evenodd" d="M80.0352 38.2148C79.9882 38.4862 80.0795 38.6682 80.3087 38.7617C79.671 40.2187 79.033 41.6772 78.3945 43.1367C73.4073 42.734 68.9868 40.911 65.1328 37.668C65.0418 37.3945 64.9505 37.1212 64.8593 36.8477C64.7232 37.4065 64.4042 37.7713 63.9023 37.9415C64.5242 36.7892 65.071 35.6043 65.543 34.3867C65.8848 34.3657 66.1125 34.1833 66.2265 33.8398C69.8923 37.519 74.313 39.251 79.4883 39.0352C79.6092 38.6963 79.7915 38.423 80.0352 38.2148Z" fill="#306DEA"/>
<path opacity="0.997" fill-rule="evenodd" clip-rule="evenodd" d="M33.8242 38.2148C34.2632 39.0018 34.6278 39.8222 34.918 40.6758C34.918 40.9492 34.918 41.2227 34.918 41.4962C34.3952 42.086 33.9395 42.7242 33.5508 43.4102C33.4222 43.084 33.1487 42.9017 32.7305 42.8633C31.7635 42.9822 30.9432 43.3923 30.2695 44.0938C29.2669 44.1848 28.2643 44.2762 27.2617 44.3672C26.3 44.8933 25.2974 45.3492 24.2539 45.7343C23.0142 45.8257 21.8293 45.8713 20.6992 45.8712C20.2524 44.9775 19.7967 44.0662 19.332 43.1367C20.6673 43.2577 21.9434 42.9385 23.1601 42.1797C24.8298 42.3268 26.2881 41.871 27.5351 40.8125C28.9656 40.9452 30.1505 40.4897 31.0898 39.4453C32.2262 39.4572 33.1375 39.047 33.8242 38.2148Z" fill="#008CE9"/>
<path fill-rule="evenodd" clip-rule="evenodd" d="M60.6212 36.8477C61.3503 37.9415 62.0793 39.0352 62.8087 40.129C63.338 41.9167 64.1583 43.5573 65.2695 45.0508C66.0852 47.0475 67.179 48.8705 68.5508 50.5195C65.4453 50.6303 62.4375 51.2685 59.5273 52.4337C59.5273 52.2512 59.4363 52.1602 59.2538 52.1602C57.9787 50.1998 56.8848 48.1492 55.9727 46.0078C57.21 42.5728 58.7593 39.5197 60.6212 36.8477Z" fill="#00CAFD"/>
<path fill-rule="evenodd" clip-rule="evenodd" d="M58.1601 32.1996C58.3424 32.5641 58.5246 32.9288 58.7069 33.2933C57.0191 36.3076 55.3784 39.3611 53.7851 42.4535C54.0631 42.7403 54.1088 43.0595 53.9218 43.4105C53.2628 45.0013 52.5336 46.551 51.7343 48.059C51.3433 48.8391 51.1156 49.6593 51.0508 50.5198C50.3214 49.3351 49.5924 48.15 48.8633 46.9651C51.1721 41.8003 54.0433 36.9696 57.4764 32.473C57.6599 32.2673 57.8878 32.176 58.1601 32.1996Z" fill="#0192F3"/>
<path fill-rule="evenodd" clip-rule="evenodd" d="M78.3944 43.1367C77.7139 44.6393 76.9849 46.0975 76.2069 47.5117C72.4939 47.529 68.9849 46.6173 65.6796 44.7773C65.4704 44.7965 65.3338 44.8875 65.2694 45.0508C64.1583 43.5573 63.3379 41.9167 62.8086 40.129C63.3119 39.4867 63.6764 38.7577 63.9023 37.9415C64.4041 37.7713 64.7231 37.4065 64.8593 36.8477C64.9504 37.1212 65.0418 37.3945 65.1328 37.668C68.9868 40.911 73.4073 42.734 78.3944 43.1367Z" fill="#2469E9"/>
<path fill-rule="evenodd" clip-rule="evenodd" d="M44.4883 42.5891C43.7368 44.0016 42.9164 45.3687 42.0273 46.6906C41.9091 47.0214 41.7268 47.2949 41.4804 47.5109C38.3578 46.9619 35.2588 46.5061 32.1836 46.1437C32.6313 45.2367 33.0869 44.3254 33.5508 43.4094C33.9394 42.7232 34.3951 42.0851 34.9179 41.4952C38.1931 41.2366 41.3833 41.6014 44.4883 42.5891Z" fill="#00E9FE"/>
<path opacity="0.997" fill-rule="evenodd" clip-rule="evenodd" d="M33.5508 43.4101C33.087 44.3261 32.6313 45.2374 32.1837 46.1444C31.4085 47.1464 30.7705 48.2401 30.2695 49.4258C27.4186 52.0641 24.6843 51.9731 22.0664 49.1523C21.611 48.0599 21.1553 46.9661 20.6992 45.8711C21.8293 45.8713 23.0142 45.8256 24.2539 45.7343C25.2974 45.3491 26.3 44.8933 27.2617 44.3671C28.2643 44.2761 29.2669 44.1848 30.2695 44.0938C30.9432 43.3923 31.7635 42.9821 32.7305 42.8633C33.1487 42.9016 33.4222 43.0839 33.5508 43.4101Z" fill="#0086E8"/>
<path fill-rule="evenodd" clip-rule="evenodd" d="M58.7069 33.293C59.2104 33.9353 59.5749 34.6643 59.8008 35.4805C57.8804 38.2711 56.2398 41.2336 54.8788 44.3671C55.1723 44.7261 55.3546 45.1363 55.4258 45.5976C54.6809 47.6028 53.9059 49.6081 53.1014 51.6133C52.8174 51.9441 52.4983 52.2176 52.1444 52.4336C51.7149 51.8498 51.3504 51.2118 51.0508 50.5195C51.1156 49.659 51.3433 48.8386 51.7343 48.0586C52.5336 46.5506 53.2628 45.001 53.9218 43.4101C54.1088 43.059 54.0631 42.74 53.7851 42.4531C55.3784 39.3608 57.0191 36.3073 58.7069 33.293Z" fill="#00A6F7"/>
<path opacity="0.996" fill-rule="evenodd" clip-rule="evenodd" d="M76.207 47.5117C76.1505 48.2612 75.877 48.8992 75.3867 49.4258C73.3757 51.4952 71.097 51.8597 68.5509 50.5195C67.179 48.8705 66.0852 47.0475 65.2695 45.0508C65.3339 44.8875 65.4705 44.7965 65.6797 44.7773C68.985 46.6173 72.494 47.529 76.207 47.5117Z" fill="#1D67E8"/>
<path opacity="0.989" fill-rule="evenodd" clip-rule="evenodd" d="M59.8009 35.4805C60.2794 35.7973 60.5527 36.2531 60.6212 36.8476C58.7594 39.5196 57.21 42.5728 55.9727 46.0078C56.8849 48.1491 57.9787 50.1998 59.2539 52.1601C58.5387 52.5 57.9007 52.9558 57.3399 53.5273C57.2489 53.345 57.1575 53.1628 57.0664 52.9805C56.4815 53.8265 55.7524 54.5558 54.8789 55.168C54.7879 55.3503 54.6965 55.5325 54.6055 55.7148C54.8455 56.434 55.028 57.1633 55.1524 57.9023C54.0119 56.1693 53.0094 54.3465 52.1445 52.4336C52.4984 52.2176 52.8175 51.9441 53.1015 51.6133C53.906 49.6081 54.681 47.6028 55.4259 45.5976C55.3547 45.1363 55.1724 44.7261 54.8789 44.3671C56.2399 41.2336 57.8805 38.2711 59.8009 35.4805Z" fill="#00B2FA"/>
<path fill-rule="evenodd" clip-rule="evenodd" d="M32.1837 46.1445C35.2588 46.5069 38.3578 46.9627 41.4805 47.5117C40.9153 48.7329 40.2773 49.9177 39.5663 51.0665C36.6178 50.3219 33.61 49.9117 30.543 49.836C30.3909 49.7312 30.2998 49.5945 30.2695 49.4259C30.7705 48.2402 31.4085 47.1465 32.1837 46.1445Z" fill="#00E3FC"/>
<path fill-rule="evenodd" clip-rule="evenodd" d="M40.6602 61.1837C40.3101 61.9895 39.7632 62.6277 39.0196 63.0977C38.4324 63.128 38.3412 62.9457 38.7462 62.5508C38.0504 62.1578 38.0504 61.7477 38.7462 61.3203C38.1747 60.3438 38.1747 59.3415 38.7462 58.3125C38.5824 56.7815 38.5824 55.3233 38.7462 53.9375C38.5974 53.7415 38.4151 53.6047 38.1992 53.5273C38.7244 52.751 39.1801 51.9308 39.5664 51.0665C40.2774 49.9177 40.9154 48.7328 41.4806 47.5117C41.7269 47.2957 41.9092 47.0223 42.0274 46.6915C42.7287 46.7858 43.2302 46.4213 43.5314 45.5977C43.4022 46.9887 42.9921 48.3102 42.3009 49.5625C42.4257 49.6757 42.5171 49.8125 42.5742 49.9727C41.9186 51.446 41.6451 52.9498 41.7539 54.4843C41.6236 55.2772 41.3501 56.0063 40.9337 56.6718C41.1374 57.3748 41.2286 58.0585 41.2071 58.7227C41.0367 59.452 40.7632 60.1355 40.3867 60.7735C40.5387 60.8782 40.6299 61.0148 40.6602 61.1837Z" fill="#00BAF7"/>
<path fill-rule="evenodd" clip-rule="evenodd" d="M51.5977 31.9258C51.8392 32.6906 51.8392 33.4196 51.5977 34.1133C49.4662 38.4596 47.4156 42.8346 45.4454 47.2383C44.4397 50.2668 43.5739 53.3203 42.8477 56.3984C43.0101 56.5253 43.1926 56.5709 43.3946 56.5351C42.5481 58.1394 41.6367 59.6886 40.6602 61.1836C40.6299 61.0148 40.5387 60.8781 40.3867 60.7734C40.7632 60.1355 41.0367 59.4519 41.2071 58.7226C41.2286 58.0584 41.1374 57.3748 40.9337 56.6718C41.3501 56.0063 41.6236 55.2771 41.7539 54.4843C41.6451 52.9498 41.9186 51.4459 42.5742 49.9726C42.5171 49.8124 42.4257 49.6756 42.3009 49.5624C42.9921 48.3101 43.4022 46.9886 43.5314 45.5976C43.2302 46.4213 42.7287 46.7858 42.0274 46.6914C42.9166 45.3696 43.7369 44.0024 44.4884 42.5898C45.9696 40.0826 47.5189 37.6218 49.1367 35.2069C49.9604 34.1028 50.7807 33.0091 51.5977 31.9258Z" fill="#00C6F9"/>
<path opacity="0.995" fill-rule="evenodd" clip-rule="evenodd" d="M75.3867 49.4258C74.734 51.1873 74.0048 52.9191 73.1992 54.6211C72.9597 54.6569 72.7773 54.5658 72.6523 54.3476C72.8347 53.9831 73.0168 53.6184 73.1992 53.2539C73.0625 53.1628 72.9258 53.0714 72.789 52.9804C71.8337 53.5669 70.8312 53.6579 69.7813 53.2539C66.8372 53.4029 63.966 53.9498 61.168 54.8944C60.5568 54.1313 60.01 53.3109 59.5273 52.4336C62.4375 51.2684 65.4453 50.6303 68.5508 50.5194C71.097 51.8596 73.3757 51.4951 75.3867 49.4258Z" fill="#01C4FD"/>
<path fill-rule="evenodd" clip-rule="evenodd" d="M22.0664 49.1523C24.6843 51.9732 27.4186 52.0642 30.2695 49.4258C30.2998 49.5945 30.3909 49.7312 30.543 49.836C33.61 49.9117 36.6178 50.3218 39.5663 51.0665C39.18 51.9308 38.7243 52.751 38.1992 53.5273C37.8347 54.0742 37.47 54.6212 37.1055 55.168C33.4955 54.5292 29.8497 54.2102 26.168 54.211C25.767 54.0373 25.4024 53.8093 25.0742 53.5273C24.8793 54.0565 24.6058 54.1475 24.2539 53.8008C23.4594 52.3022 22.7303 50.7525 22.0664 49.1523Z" fill="#00D9FC"/>
<path opacity="0.997" fill-rule="evenodd" clip-rule="evenodd" d="M73.1991 54.6211C72.7176 55.8565 72.1708 57.0413 71.5586 58.1758C71.2228 57.7628 71.2228 57.3528 71.5586 56.9453C70.9423 56.5688 70.35 56.1586 69.7813 55.7148C66.6138 58.137 63.7426 57.8635 61.168 54.8945C63.966 53.9498 66.8371 53.403 69.7813 53.254C70.8311 53.658 71.8336 53.567 72.789 52.9805C72.9258 53.0715 73.0625 53.1628 73.1991 53.254C73.0168 53.6185 72.8346 53.9831 72.6523 54.3476C72.7773 54.5658 72.9596 54.657 73.1991 54.6211Z" fill="#00BDFC"/>
<path opacity="0.987" fill-rule="evenodd" clip-rule="evenodd" d="M37.1055 55.168C34.373 58.7413 31.2285 59.1058 27.6719 56.2617C27.2261 56.5935 26.7248 56.8212 26.168 56.9453C26.574 57.4255 26.4829 57.7447 25.8945 57.9023C25.272 56.566 24.7251 55.1988 24.2539 53.8008C24.6058 54.1475 24.8793 54.0565 25.0742 53.5273C25.4024 53.8093 25.767 54.0373 26.168 54.211C29.8497 54.2102 33.4955 54.5292 37.1055 55.168Z" fill="#00CFFA"/>
<path opacity="0.996" fill-rule="evenodd" clip-rule="evenodd" d="M38.1992 53.5273C38.415 53.6047 38.5973 53.7415 38.7462 53.9375C38.5823 55.3233 38.5823 56.7815 38.7462 58.3125C38.1747 59.3415 38.1747 60.3438 38.7462 61.3203C38.0503 61.7477 38.0503 62.1578 38.7462 62.5508C38.3412 62.9457 38.4323 63.128 39.0195 63.0977C38.1413 64.0388 37.0475 64.6313 35.7383 64.875C32.5558 65.4815 29.9582 64.5245 27.9453 62.004C27.1308 60.698 26.4472 59.3308 25.8945 57.9023C26.4829 57.7447 26.574 57.4255 26.168 56.9453C26.7248 56.8212 27.2261 56.5935 27.6719 56.2617C31.2285 59.1058 34.373 58.7413 37.1055 55.168C37.47 54.6212 37.8347 54.0742 38.1992 53.5273Z" fill="#01B2F6"/>
<path fill-rule="evenodd" clip-rule="evenodd" d="M59.2538 52.1602C59.4363 52.1602 59.5273 52.2512 59.5273 52.4337C60.01 53.311 60.5568 54.1313 61.168 54.8945C63.7426 57.8635 66.6138 58.137 69.7813 55.7148C70.35 56.1587 70.9423 56.5688 71.5586 56.9453C71.2228 57.3528 71.2228 57.7628 71.5586 58.1758C71.0256 60.4372 69.8408 62.2602 68.0038 63.6445C67.9635 63.019 67.5986 62.472 66.9101 62.004C66.5925 61.3685 66.2733 60.7303 65.9531 60.0898C65.175 59.6095 64.446 59.0625 63.7656 58.4492C63.5968 58.1897 63.6423 57.962 63.9023 57.7657C63.2043 57.5575 62.5206 57.3298 61.8515 57.082C59.9051 57.9283 57.9458 58.7487 55.9726 59.543C55.6991 58.9962 55.4258 58.4492 55.1523 57.9023C55.028 57.1633 54.8455 56.434 54.6055 55.7148C54.6965 55.5325 54.7878 55.3503 54.8788 55.168C55.7523 54.5558 56.4815 53.8265 57.0663 52.9805C57.1575 53.1628 57.2488 53.345 57.3398 53.5273C57.9006 52.9558 58.5386 52.5 59.2538 52.1602Z" fill="#00A7F9"/>
<path opacity="0.999" fill-rule="evenodd" clip-rule="evenodd" d="M68.0038 63.6445C62.6437 66.3135 58.6332 64.9464 55.9727 59.543C57.9458 58.7487 59.9052 57.9284 61.8515 57.082C62.5207 57.3299 63.2043 57.5575 63.9023 57.7657C63.6423 57.962 63.5968 58.1897 63.7657 58.4492C64.446 59.0625 65.175 59.6095 65.9532 60.0899C66.2733 60.7304 66.5925 61.3685 66.9102 62.004C67.5987 62.472 67.9635 63.019 68.0038 63.6445Z" fill="#009EF7"/>
</g>
<path d="M11.5107 97.7387C11.7538 98.5589 12.012 99.4172 12.2855 100.313C12.5588 101.194 12.8399 102.083 13.1285 102.979C13.4322 103.86 13.7285 104.734 14.0171 105.599C14.3209 106.45 14.6095 107.255 14.8829 108.015C15.1108 107.194 15.331 106.306 15.5437 105.349C15.7563 104.377 15.969 103.374 16.1817 102.341C16.3943 101.293 16.5994 100.23 16.7969 99.1513C17.0095 98.0728 17.207 97.0096 17.3893 95.9615H20.3512C19.8197 98.8171 19.2272 101.567 18.5741 104.21C17.9209 106.837 17.1918 109.351 16.3867 111.751H13.6525C12.4677 108.683 11.3209 105.334 10.212 101.703C9.65001 103.541 9.08041 105.288 8.50315 106.944C7.92598 108.599 7.34872 110.202 6.77155 111.751H4.03734C3.21709 109.351 2.48036 106.837 1.82723 104.21C1.18925 101.567 0.604422 98.8171 0.0727539 95.9615H3.14871C3.33098 96.9944 3.5209 98.05 3.71831 99.1286C3.93102 100.207 4.14366 101.27 4.35629 102.318C4.58415 103.351 4.81201 104.354 5.03987 105.326C5.26772 106.298 5.49558 107.194 5.72344 108.015C6.01203 107.24 6.30061 106.427 6.5892 105.577C6.89301 104.711 7.18925 103.837 7.47783 102.956C7.76642 102.06 8.03987 101.172 8.29809 100.291C8.57153 99.4096 8.82219 98.5589 9.04996 97.7387H11.5107ZM26.2322 109.815C27.0828 109.815 27.7285 109.769 28.169 109.678V106.625C28.0171 106.579 27.7968 106.534 27.5082 106.488C27.2196 106.443 26.9006 106.42 26.5513 106.42C26.2475 106.42 25.9361 106.443 25.617 106.488C25.3132 106.534 25.0322 106.617 24.774 106.739C24.531 106.86 24.3335 107.035 24.1816 107.263C24.0297 107.475 23.9537 107.749 23.9537 108.083C23.9537 108.736 24.1588 109.192 24.5689 109.45C24.9791 109.693 25.5335 109.815 26.2322 109.815ZM26.0044 99.5387C26.9158 99.5387 27.6829 99.6526 28.3057 99.8805C28.9284 100.108 29.4221 100.427 29.7867 100.837C30.1665 101.248 30.4322 101.749 30.5842 102.341C30.7513 102.918 30.8348 103.556 30.8348 104.255V111.478C30.4095 111.569 29.7639 111.675 28.8981 111.797C28.0474 111.934 27.0828 112.002 26.0044 112.002C25.2905 112.002 24.6373 111.934 24.0449 111.797C23.4525 111.66 22.9436 111.44 22.5183 111.136C22.1082 110.832 21.7816 110.437 21.5386 109.951C21.3107 109.465 21.1968 108.865 21.1968 108.151C21.1968 107.468 21.3259 106.891 21.5841 106.42C21.8576 105.949 22.2221 105.569 22.6778 105.281C23.1335 104.977 23.6576 104.764 24.25 104.643C24.8576 104.506 25.4879 104.437 26.1411 104.437C26.4449 104.437 26.7639 104.46 27.0981 104.506C27.4322 104.536 27.7892 104.597 28.169 104.688V104.232C28.169 103.913 28.131 103.61 28.055 103.321C27.9791 103.032 27.8424 102.782 27.6449 102.569C27.4626 102.341 27.212 102.167 26.893 102.045C26.5892 101.924 26.2019 101.863 25.731 101.863C25.093 101.863 24.5082 101.908 23.9765 101.999C23.4449 102.091 23.012 102.197 22.6778 102.318L22.336 100.086C22.6854 99.964 23.1943 99.8425 23.8626 99.721C24.531 99.5995 25.2449 99.5387 26.0044 99.5387ZM34.0744 96.6905L36.8313 96.2349V99.8349H41.0693V102.136H36.8313V106.989C36.8313 107.946 36.9832 108.63 37.287 109.04C37.5908 109.45 38.1072 109.655 38.8364 109.655C39.3376 109.655 39.7781 109.602 40.1575 109.496C40.5529 109.389 40.8641 109.291 41.092 109.199L41.5479 111.387C41.2291 111.524 40.8111 111.66 40.2946 111.797C39.7781 111.949 39.1706 112.025 38.4718 112.025C37.6212 112.025 36.9072 111.911 36.3301 111.683C35.768 111.455 35.3199 111.129 34.9857 110.703C34.6515 110.263 34.4161 109.739 34.2794 109.131C34.1426 108.508 34.0744 107.802 34.0744 107.012V96.6905ZM42.8735 105.85C42.8735 104.802 43.0249 103.883 43.3294 103.093C43.6482 102.303 44.0662 101.65 44.5826 101.134C45.0991 100.602 45.6912 100.207 46.3591 99.9489C47.0278 99.6754 47.7116 99.5387 48.4097 99.5387C50.0507 99.5387 51.3267 100.048 52.2376 101.065C53.1645 102.083 53.628 103.602 53.628 105.622C53.628 105.774 53.6204 105.949 53.6053 106.146C53.6053 106.329 53.5977 106.496 53.5826 106.648H45.7215C45.7972 107.605 46.132 108.349 46.7241 108.88C47.3314 109.397 48.2053 109.655 49.3442 109.655C50.0129 109.655 50.6201 109.594 51.1669 109.473C51.7287 109.351 52.1695 109.222 52.4883 109.086L52.8533 111.341C52.7011 111.417 52.4883 111.501 52.2149 111.592C51.9567 111.668 51.653 111.736 51.304 111.797C50.9692 111.873 50.605 111.934 50.2097 111.979C49.8152 112.025 49.4123 112.048 49.0027 112.048C47.9547 112.048 47.0429 111.896 46.2682 111.592C45.4936 111.273 44.856 110.84 44.3547 110.293C43.8534 109.731 43.4808 109.078 43.2377 108.334C42.9946 107.574 42.8735 106.746 42.8735 105.85ZM50.8708 104.62C50.8708 104.24 50.8178 103.883 50.711 103.549C50.605 103.199 50.4452 102.903 50.2332 102.66C50.0356 102.402 49.7849 102.205 49.4813 102.068C49.1928 101.916 48.8429 101.84 48.4333 101.84C48.0076 101.84 47.635 101.924 47.3163 102.091C46.9975 102.242 46.7241 102.448 46.4962 102.706C46.2834 102.964 46.1168 103.26 45.9949 103.594C45.8737 103.929 45.7896 104.27 45.7442 104.62H50.8708ZM63.3412 102.318C63.1132 102.242 62.7936 102.167 62.384 102.091C61.9886 101.999 61.5252 101.954 60.9936 101.954C60.69 101.954 60.3636 101.984 60.0145 102.045C59.6798 102.106 59.4443 102.159 59.308 102.205V111.751H56.5508V100.404C57.0824 100.207 57.7435 100.025 58.5333 99.8577C59.3383 99.6754 60.2265 99.5842 61.1988 99.5842C61.3814 99.5842 61.5942 99.5995 61.8372 99.6298C62.0803 99.645 62.3234 99.6754 62.5656 99.721C62.8087 99.7514 63.0442 99.797 63.2722 99.8577C63.5001 99.9033 63.6826 99.9489 63.8189 99.9944L63.3412 102.318ZM70.5932 94.0703C71.2316 94.0703 71.7935 94.1311 72.2797 94.2526C72.7658 94.3589 73.13 94.4576 73.3731 94.5488L72.8491 96.8273C72.5909 96.7058 72.2872 96.607 71.9382 96.5311C71.6034 96.4551 71.2392 96.4172 70.8439 96.4172C70.404 96.4172 70.0314 96.4855 69.7277 96.6223C69.4241 96.7438 69.181 96.9184 68.9985 97.1463C68.8168 97.3741 68.6873 97.6551 68.6116 97.9893C68.535 98.3083 68.4972 98.6577 68.4972 99.0374V99.8349H72.8264V102.136H68.4972V111.751H65.7409V98.9918C65.7409 97.4576 66.1429 96.2577 66.9478 95.3919C67.7528 94.5108 68.9682 94.0703 70.5932 94.0703ZM85.4179 105.782C85.4179 106.724 85.2816 107.582 85.0082 108.356C84.734 109.131 84.3471 109.792 83.8458 110.339C83.3445 110.886 82.7372 111.311 82.0231 111.615C81.3242 111.918 80.5495 112.07 79.6991 112.07C78.8488 112.07 78.0741 111.918 77.3751 111.615C76.6762 111.311 76.0765 110.886 75.5751 110.339C75.0738 109.792 74.6785 109.131 74.39 108.356C74.1167 107.582 73.9804 106.724 73.9804 105.782C73.9804 104.84 74.1167 103.989 74.39 103.23C74.6785 102.455 75.0738 101.794 75.5751 101.248C76.0916 100.701 76.6989 100.283 77.3978 99.9944C78.0968 99.6905 78.8639 99.5387 79.6991 99.5387C80.5344 99.5387 81.3014 99.6905 82.0004 99.9944C82.7145 100.283 83.3218 100.701 83.8231 101.248C84.3244 101.794 84.7113 102.455 84.9847 103.23C85.274 103.989 85.4179 104.84 85.4179 105.782ZM82.5926 105.782C82.5926 104.597 82.3343 103.663 81.8179 102.979C81.3166 102.281 80.6101 101.931 79.6991 101.931C78.7874 101.931 78.0741 102.281 77.5568 102.979C77.0564 103.663 76.8057 104.597 76.8057 105.782C76.8057 106.982 77.0564 107.931 77.5568 108.63C78.0741 109.329 78.7874 109.678 79.6991 109.678C80.6101 109.678 81.3166 109.329 81.8179 108.63C82.3343 107.931 82.5926 106.982 82.5926 105.782ZM92.2082 103.731L94.7374 99.8349H97.6308L93.7121 105.463C94.5322 106.526 95.3144 107.605 96.0588 108.698C96.8183 109.777 97.4407 110.794 97.9269 111.751H94.9426C94.8055 111.463 94.623 111.136 94.3951 110.772C94.1831 110.392 93.9476 110.005 93.6894 109.61C93.4463 109.199 93.1881 108.797 92.9147 108.402C92.6413 108.007 92.3756 107.635 92.1165 107.286C91.5849 107.969 91.0609 108.729 90.5444 109.564C90.0431 110.384 89.6259 111.113 89.2912 111.751H86.4659C86.6938 111.296 86.9672 110.81 87.2868 110.293C87.6056 109.777 87.9471 109.253 88.3121 108.721C88.6763 108.174 89.049 107.635 89.4283 107.103C89.8236 106.556 90.2105 106.04 90.5907 105.554L86.6484 99.8349H89.6789L92.2082 103.731Z" fill="#FAFAFA"/>
</svg>
